G04*
G04 #@! TF.GenerationSoftware,Altium Limited,Altium Designer,22.5.1 (42)*
G04*
G04 Layer_Physical_Order=4*
G04 Layer_Color=16711680*
%FSLAX25Y25*%
%MOIN*%
G70*
G04*
G04 #@! TF.SameCoordinates,02EF2946-DDE5-4D11-B7C9-AFF3A69701B4*
G04*
G04*
G04 #@! TF.FilePolarity,Positive*
G04*
G01*
G75*
%ADD15C,0.00800*%
%ADD26R,0.03937X0.03543*%
%ADD93C,0.05000*%
%ADD94C,0.06181*%
%ADD95R,0.06181X0.06181*%
%ADD108C,0.10827*%
%ADD109R,0.10827X0.10827*%
%ADD110C,0.11811*%
%ADD116C,0.01968*%
%ADD117C,0.03543*%
%ADD123C,0.05000*%
%ADD124C,0.15748*%
%ADD125R,0.15748X0.15748*%
%ADD126C,0.06000*%
%ADD127R,0.06000X0.06000*%
G04:AMPARAMS|DCode=128|XSize=55.12mil|YSize=55.12mil|CornerRadius=13.78mil|HoleSize=0mil|Usage=FLASHONLY|Rotation=90.000|XOffset=0mil|YOffset=0mil|HoleType=Round|Shape=RoundedRectangle|*
%AMROUNDEDRECTD128*
21,1,0.05512,0.02756,0,0,90.0*
21,1,0.02756,0.05512,0,0,90.0*
1,1,0.02756,0.01378,0.01378*
1,1,0.02756,0.01378,-0.01378*
1,1,0.02756,-0.01378,-0.01378*
1,1,0.02756,-0.01378,0.01378*
%
%ADD128ROUNDEDRECTD128*%
%ADD129C,0.05512*%
%ADD130C,0.13780*%
%ADD131R,0.06693X0.06693*%
%ADD132C,0.06693*%
%ADD133C,0.07087*%
%ADD134R,0.07087X0.07087*%
%ADD135R,0.09449X0.09449*%
%ADD136C,0.09449*%
%ADD137C,0.17717*%
G04:AMPARAMS|DCode=138|XSize=55.12mil|YSize=55.12mil|CornerRadius=13.78mil|HoleSize=0mil|Usage=FLASHONLY|Rotation=0.000|XOffset=0mil|YOffset=0mil|HoleType=Round|Shape=RoundedRectangle|*
%AMROUNDEDRECTD138*
21,1,0.05512,0.02756,0,0,0.0*
21,1,0.02756,0.05512,0,0,0.0*
1,1,0.02756,0.01378,-0.01378*
1,1,0.02756,-0.01378,-0.01378*
1,1,0.02756,-0.01378,0.01378*
1,1,0.02756,0.01378,0.01378*
%
%ADD138ROUNDEDRECTD138*%
%ADD139R,0.10630X0.09843*%
%ADD140O,0.10630X0.09843*%
%ADD141O,0.11811X0.21654*%
%ADD142C,0.31890*%
%ADD143C,0.07874*%
%ADD144C,0.01968*%
%ADD145C,0.03937*%
%ADD148C,0.07874*%
G36*
X597500Y326000D02*
X584100Y312600D01*
X575300Y303227D01*
X575300Y192900D01*
X598600Y169600D01*
Y153600D01*
X582800D01*
X569668Y166732D01*
X506068D01*
X465628Y207172D01*
X444571D01*
X437100Y199700D01*
Y189000D01*
X436000Y187900D01*
X429900D01*
X423700Y194100D01*
X371900D01*
Y72097D01*
X332103Y32300D01*
X287700D01*
X280700Y39300D01*
X280771Y39771D01*
X287600Y46600D01*
X320948Y46440D01*
X356299Y81791D01*
Y207172D01*
X394271D01*
X405200Y218100D01*
X473928D01*
X507828Y184200D01*
X553400D01*
X564100Y194900D01*
Y319501D01*
X581900Y341400D01*
X597500D01*
Y326000D01*
D02*
G37*
G36*
X970000Y371000D02*
X984100Y356900D01*
Y64100D01*
X958900Y38900D01*
X947400D01*
Y184600D01*
X953800Y191000D01*
Y316900D01*
X948600Y322100D01*
X861700Y322100D01*
X853500Y313900D01*
X826500D01*
X820800Y319600D01*
Y349700D01*
X842100Y371000D01*
X970000Y371000D01*
D02*
G37*
%LPC*%
G36*
X957134Y178904D02*
X955899Y178783D01*
X954712Y178423D01*
X953617Y177838D01*
X952658Y177051D01*
X951871Y176091D01*
X951286Y174997D01*
X950926Y173810D01*
X950804Y172575D01*
X950926Y171340D01*
X951286Y170152D01*
X951871Y169058D01*
X952658Y168099D01*
X953617Y167312D01*
X954712Y166727D01*
X955899Y166367D01*
X957134Y166245D01*
X958369Y166367D01*
X959556Y166727D01*
X960650Y167312D01*
X961610Y168099D01*
X962397Y169058D01*
X962982Y170152D01*
X963342Y171340D01*
X963464Y172575D01*
X963342Y173810D01*
X962982Y174997D01*
X962397Y176091D01*
X961610Y177051D01*
X960650Y177838D01*
X959556Y178423D01*
X958369Y178783D01*
X957134Y178904D01*
D02*
G37*
G36*
Y115755D02*
X955899Y115633D01*
X954712Y115273D01*
X953617Y114688D01*
X952658Y113901D01*
X951871Y112942D01*
X951286Y111847D01*
X950926Y110660D01*
X950804Y109425D01*
X950926Y108190D01*
X951286Y107003D01*
X951871Y105909D01*
X952658Y104949D01*
X953617Y104162D01*
X954712Y103577D01*
X955899Y103217D01*
X957134Y103095D01*
X958369Y103217D01*
X959556Y103577D01*
X960650Y104162D01*
X961610Y104949D01*
X962397Y105909D01*
X962982Y107003D01*
X963342Y108190D01*
X963464Y109425D01*
X963342Y110660D01*
X962982Y111847D01*
X962397Y112942D01*
X961610Y113901D01*
X960650Y114688D01*
X959556Y115273D01*
X958369Y115633D01*
X957134Y115755D01*
D02*
G37*
%LPD*%
D15*
X552700Y67257D02*
Y73700D01*
Y67257D02*
X552957Y67000D01*
X560600Y60700D02*
Y66443D01*
X560043Y67000D02*
X560600Y66443D01*
D26*
X552957Y67000D02*
D03*
X560043D02*
D03*
D93*
X926878Y35283D02*
D03*
X962311D02*
D03*
X395528Y81693D02*
D03*
X430961D02*
D03*
X414961Y165256D02*
D03*
X419783Y160433D02*
D03*
X424311Y155807D02*
D03*
X429035Y149902D02*
D03*
X429331Y142126D02*
D03*
X426575Y134941D02*
D03*
X440158Y107677D02*
D03*
X436909Y113681D02*
D03*
X433169Y119390D02*
D03*
X428937Y124902D02*
D03*
X423917Y128642D02*
D03*
X805906Y129921D02*
D03*
X817520Y130020D02*
D03*
X805610Y122047D02*
D03*
X817618Y121457D02*
D03*
X926280Y61122D02*
D03*
X937894Y61221D02*
D03*
X925984Y53248D02*
D03*
X937992Y52658D02*
D03*
X911024Y78642D02*
D03*
X922638Y78740D02*
D03*
X910728Y70768D02*
D03*
X922736Y70177D02*
D03*
X909153Y145768D02*
D03*
X920768Y145866D02*
D03*
X908858Y137894D02*
D03*
X920866Y137303D02*
D03*
X838681Y127067D02*
D03*
X850295Y127165D02*
D03*
X838386Y119193D02*
D03*
X850394Y118602D02*
D03*
X875591Y158366D02*
D03*
X887205Y158465D02*
D03*
X875295Y150492D02*
D03*
X887303Y149902D02*
D03*
X926083Y172146D02*
D03*
X937697Y172244D02*
D03*
X925787Y164272D02*
D03*
X937795Y163681D02*
D03*
X929232Y217028D02*
D03*
X940847Y217126D02*
D03*
X928937Y209154D02*
D03*
X940945Y208563D02*
D03*
X928642Y234842D02*
D03*
X940256Y234941D02*
D03*
X928347Y226969D02*
D03*
X940354Y226378D02*
D03*
X928937Y252658D02*
D03*
X940551Y252756D02*
D03*
X928642Y244783D02*
D03*
X940650Y244193D02*
D03*
X929035Y283268D02*
D03*
X940650Y283366D02*
D03*
X928740Y275394D02*
D03*
X940748Y274803D02*
D03*
X940354Y292224D02*
D03*
X928347Y292815D02*
D03*
X940256Y300787D02*
D03*
X928642Y300689D02*
D03*
X920768Y310335D02*
D03*
X880217Y308071D02*
D03*
X908957Y300886D02*
D03*
X890354Y301083D02*
D03*
X899705Y301181D02*
D03*
X830217Y456299D02*
D03*
X779528Y471161D02*
D03*
X817224Y426083D02*
D03*
X826378Y425886D02*
D03*
X836614Y425787D02*
D03*
X883760Y403150D02*
D03*
X867028Y389961D02*
D03*
X795669Y391142D02*
D03*
X823228Y381693D02*
D03*
X830315Y381890D02*
D03*
X837894Y381594D02*
D03*
X867717Y495768D02*
D03*
X875984Y495571D02*
D03*
X884842D02*
D03*
X894094Y495177D02*
D03*
X903445Y495079D02*
D03*
X911516Y495472D02*
D03*
X920571Y495374D02*
D03*
X929429Y495669D02*
D03*
X939173Y495177D02*
D03*
X948720Y495669D02*
D03*
X857185Y495472D02*
D03*
X844390Y496358D02*
D03*
X835335Y496654D02*
D03*
X826772Y496555D02*
D03*
X817717Y496752D02*
D03*
X809055Y496654D02*
D03*
X799213Y496752D02*
D03*
X790551D02*
D03*
X781496D02*
D03*
X773425Y496949D02*
D03*
X653445Y383858D02*
D03*
X647342Y390059D02*
D03*
X647441Y383858D02*
D03*
X537500Y495768D02*
D03*
X546260Y495472D02*
D03*
X554331D02*
D03*
X562402Y496063D02*
D03*
X570472Y495866D02*
D03*
X578248D02*
D03*
X586319Y495472D02*
D03*
X594193Y495079D02*
D03*
X603150Y495276D02*
D03*
X694587Y462303D02*
D03*
X626083Y468209D02*
D03*
X612747Y495278D02*
D03*
X621163Y495355D02*
D03*
X629733Y495278D02*
D03*
X639468Y495276D02*
D03*
X527756Y458169D02*
D03*
X530610Y466043D02*
D03*
X537795Y469980D02*
D03*
X546161Y470669D02*
D03*
X491240Y275689D02*
D03*
X599000Y467588D02*
D03*
X597800Y390812D02*
D03*
X591700Y390300D02*
D03*
X602051Y414900D02*
D03*
X601700Y397300D02*
D03*
X602051Y408200D02*
D03*
X598300Y460700D02*
D03*
X658400Y478400D02*
D03*
X876600Y394900D02*
D03*
X877600Y411100D02*
D03*
X873100Y417600D02*
D03*
X863100Y422500D02*
D03*
X857900Y427600D02*
D03*
X798800Y408600D02*
D03*
X788300Y407900D02*
D03*
X788000Y419800D02*
D03*
X798800Y420000D02*
D03*
X806200Y432700D02*
D03*
X815100Y438800D02*
D03*
X814600Y449100D02*
D03*
X739900Y457200D02*
D03*
X629500Y385600D02*
D03*
X600000Y433100D02*
D03*
X681600Y393900D02*
D03*
X639300Y384000D02*
D03*
X574400Y445700D02*
D03*
X652100Y483200D02*
D03*
X660200Y488200D02*
D03*
X597500Y423100D02*
D03*
X592900Y427100D02*
D03*
X592000Y401200D02*
D03*
X593200Y418900D02*
D03*
X510600Y217000D02*
D03*
X461800Y239200D02*
D03*
X510800Y286400D02*
D03*
X488000Y284900D02*
D03*
X552700Y73700D02*
D03*
X560600Y60700D02*
D03*
X438100Y88300D02*
D03*
X452900Y73600D02*
D03*
X471800Y82400D02*
D03*
X917000Y180500D02*
D03*
X861300Y189600D02*
D03*
X380000Y102000D02*
D03*
X412000Y108000D02*
D03*
D94*
X938689Y43000D02*
D03*
X407339Y89409D02*
D03*
D95*
X950500Y43000D02*
D03*
X419150Y89409D02*
D03*
D108*
X955854Y129780D02*
D03*
Y152220D02*
D03*
X933413D02*
D03*
D109*
Y129780D02*
D03*
D110*
X957134Y109425D02*
D03*
Y172575D02*
D03*
D116*
X599000Y467588D02*
X615312D01*
X591700Y390300D02*
X592280Y390880D01*
Y395568D02*
X596522Y399810D01*
X592280Y390880D02*
Y395568D01*
X629500Y385600D02*
Y453400D01*
X592900Y427100D02*
Y455300D01*
X598300Y460700D01*
X615312Y467588D02*
X629500Y453400D01*
X876600Y394900D02*
X883034D01*
X884134Y393800D02*
X889747D01*
X883034Y394900D02*
X884134Y393800D01*
X889747D02*
X890900Y394953D01*
X831700Y399200D02*
X865700D01*
X877600Y411100D01*
X806200Y432700D02*
X806780Y433280D01*
X809580D02*
X815100Y438800D01*
X806780Y433280D02*
X809580D01*
X739900Y457200D02*
X773700D01*
X831700Y399200D01*
X890900Y412700D02*
X891185Y412985D01*
X814600Y449100D02*
X855069D01*
X891185Y412985D01*
X890900Y394953D02*
Y412700D01*
X597500Y416384D02*
Y423100D01*
X596522Y415406D02*
X597500Y416384D01*
X592580Y403829D02*
X592620Y403869D01*
Y418320D01*
X592000Y401200D02*
X592580Y401780D01*
Y403829D01*
X592620Y418320D02*
X593200Y418900D01*
X596522Y399810D02*
Y415406D01*
D117*
X488400Y239200D02*
X510600Y217000D01*
X461800Y239200D02*
X488400D01*
X508906Y284900D02*
X510406Y286400D01*
X488000Y284900D02*
X508906D01*
X510406Y286400D02*
X510800D01*
D123*
X572300Y479200D02*
X639800D01*
X533325Y440225D02*
X572300Y479200D01*
X639800D02*
X689000Y430000D01*
X780200Y399800D02*
X788300Y407900D01*
X780200Y310600D02*
Y399800D01*
X494900D02*
X533325Y438225D01*
Y440225D01*
X780200Y310600D02*
X803000Y287800D01*
Y200400D02*
Y287800D01*
Y200400D02*
X826800Y176600D01*
Y110500D02*
Y176600D01*
X811800Y95500D02*
X826800Y110500D01*
X804433Y95500D02*
X811800D01*
X804150Y95217D02*
X804433Y95500D01*
D124*
X590551Y110563D02*
D03*
Y61744D02*
D03*
X743504Y161744D02*
D03*
Y111744D02*
D03*
Y61744D02*
D03*
X590551Y282634D02*
D03*
Y233815D02*
D03*
X743504Y333815D02*
D03*
Y283815D02*
D03*
Y233815D02*
D03*
D125*
X590551Y161744D02*
D03*
Y333815D02*
D03*
D126*
X289370Y117028D02*
D03*
Y105217D02*
D03*
D127*
Y128839D02*
D03*
D128*
X899650Y330744D02*
D03*
D129*
Y311059D02*
D03*
X433307Y133409D02*
D03*
X452992Y191909D02*
D03*
D130*
X783630Y130075D02*
D03*
Y80075D02*
D03*
X328878Y39500D02*
D03*
X458799D02*
D03*
X417500D02*
D03*
X287579D02*
D03*
D131*
X804150Y95217D02*
D03*
X551500Y219342D02*
D03*
D132*
X804150Y105059D02*
D03*
Y114902D02*
D03*
X551500Y199657D02*
D03*
Y209500D02*
D03*
D133*
X729000Y385000D02*
D03*
Y415000D02*
D03*
Y430000D02*
D03*
X689000Y385000D02*
D03*
Y400000D02*
D03*
Y415000D02*
D03*
D134*
Y430000D02*
D03*
D135*
X539000Y67583D02*
D03*
D136*
Y89000D02*
D03*
Y110417D02*
D03*
D137*
X528370Y39039D02*
D03*
Y139039D02*
D03*
X911472Y200043D02*
D03*
Y281941D02*
D03*
D138*
X452992Y133409D02*
D03*
X433307Y191909D02*
D03*
D139*
X879000Y262492D02*
D03*
D140*
Y240996D02*
D03*
Y219500D02*
D03*
D141*
X772776Y167941D02*
D03*
X830650Y223059D02*
D03*
X772150Y271059D02*
D03*
X830024Y326177D02*
D03*
D142*
X498626Y89059D02*
D03*
X498650Y455059D02*
D03*
X980126D02*
D03*
X872126Y89059D02*
D03*
D143*
X717126Y18209D02*
D03*
X717421Y7382D02*
D03*
X706398D02*
D03*
X706496Y18602D02*
D03*
X695571Y18307D02*
D03*
X695472Y7579D02*
D03*
X684154Y7283D02*
D03*
X684350Y18602D02*
D03*
X612205D02*
D03*
X612008Y7283D02*
D03*
X623327Y7579D02*
D03*
X623425Y18307D02*
D03*
X634350Y18602D02*
D03*
X634252Y7382D02*
D03*
X645276D02*
D03*
X644980Y18209D02*
D03*
X613596Y445746D02*
D03*
X494900Y399800D02*
D03*
X962500Y320400D02*
D03*
X961800Y285300D02*
D03*
X960900Y296500D02*
D03*
X962300Y309600D02*
D03*
X968100Y262600D02*
D03*
X969500Y196700D02*
D03*
X967400Y216700D02*
D03*
X867400Y361410D02*
D03*
X828500Y347800D02*
D03*
X846600Y318100D02*
D03*
X866700Y345500D02*
D03*
X866800Y336100D02*
D03*
X969800Y56000D02*
D03*
X975900Y68600D02*
D03*
X974300Y82800D02*
D03*
X973600Y94800D02*
D03*
X973400Y107200D02*
D03*
X972700Y118900D02*
D03*
X972100Y130200D02*
D03*
X971700Y141900D02*
D03*
X971800Y152600D02*
D03*
X972700Y163400D02*
D03*
X972000Y175000D02*
D03*
X970100Y185600D02*
D03*
X967400Y227500D02*
D03*
X966300Y238700D02*
D03*
X966100Y250000D02*
D03*
X960700Y332100D02*
D03*
X951600Y342600D02*
D03*
X938700Y346200D02*
D03*
X924743Y346921D02*
D03*
X867200Y354500D02*
D03*
X909600Y339100D02*
D03*
X911700Y329200D02*
D03*
X899600Y343100D02*
D03*
X889700Y339300D02*
D03*
X887500Y328700D02*
D03*
X847000Y328300D02*
D03*
X846100Y338900D02*
D03*
X841100Y348600D02*
D03*
X406000Y199500D02*
D03*
X389000D02*
D03*
X373000D02*
D03*
D144*
X834417Y412433D02*
D03*
X838748D02*
D03*
X834417Y408102D02*
D03*
X838748D02*
D03*
X834417Y403772D02*
D03*
X838748D02*
D03*
X577116Y418395D02*
D03*
X572785D02*
D03*
X577116Y422725D02*
D03*
X572785D02*
D03*
X577116Y427056D02*
D03*
X572785D02*
D03*
X577116Y431387D02*
D03*
X572785D02*
D03*
D145*
X555700Y433700D02*
D03*
X552500Y437600D02*
D03*
D148*
X590922Y365922D02*
Y373328D01*
X604863Y378863D02*
X614500Y388500D01*
X596457Y378863D02*
X604863D01*
X590922Y373328D02*
X596457Y378863D01*
X614500Y388500D02*
Y444842D01*
X613596Y445746D02*
X614500Y444842D01*
X588000Y335352D02*
Y363000D01*
X590922Y365922D01*
X588000Y335352D02*
X589538Y333815D01*
M02*
