G04*
G04 #@! TF.GenerationSoftware,Altium Limited,Altium Designer,22.5.1 (42)*
G04*
G04 Layer_Color=8421504*
%FSLAX25Y25*%
%MOIN*%
G70*
G04*
G04 #@! TF.SameCoordinates,02EF2946-DDE5-4D11-B7C9-AFF3A69701B4*
G04*
G04*
G04 #@! TF.FilePolarity,Positive*
G04*
G01*
G75*
%ADD20R,0.03150X0.03150*%
%ADD21R,0.03543X0.03937*%
%ADD22R,0.03150X0.03543*%
%ADD23R,0.03150X0.03150*%
%ADD24O,0.05118X0.01968*%
%ADD25R,0.10787X0.15197*%
%ADD26R,0.03937X0.03543*%
%ADD27R,0.06693X0.04528*%
%ADD28R,0.06102X0.07284*%
%ADD29R,0.05512X0.02165*%
%ADD30O,0.04500X0.08000*%
%ADD31R,0.04500X0.08000*%
%ADD32R,0.09843X0.03543*%
%ADD33R,0.09449X0.12402*%
%ADD34R,0.23622X0.21457*%
%ADD35R,0.09055X0.03740*%
%ADD36R,0.07087X0.05118*%
%ADD37R,0.10787X0.18701*%
%ADD38R,0.04921X0.01378*%
%ADD39R,0.05118X0.07087*%
%ADD40R,0.06890X0.02756*%
%ADD41R,0.02756X0.06890*%
%ADD42O,0.02165X0.06496*%
%ADD43R,0.14764X0.08268*%
%ADD44R,0.03543X0.14961*%
%ADD45R,0.06299X0.12205*%
%ADD46R,0.14961X0.03543*%
%ADD47R,0.04528X0.06693*%
%ADD48R,0.12205X0.06299*%
%ADD49R,0.04803X0.03583*%
%ADD50R,0.05118X0.03543*%
%ADD51R,0.07677X0.03543*%
%ADD52R,0.07677X0.12795*%
D20*
X787500Y470000D02*
D03*
Y463701D02*
D03*
D21*
X805500Y464543D02*
D03*
Y457457D02*
D03*
X864657Y404500D02*
D03*
X859342D02*
D03*
X855000Y383457D02*
D03*
Y390543D02*
D03*
X825000Y390500D02*
D03*
X819685D02*
D03*
X810500Y404500D02*
D03*
X815815D02*
D03*
X743358Y414600D02*
D03*
X738042D02*
D03*
X730000Y449957D02*
D03*
Y457043D02*
D03*
Y472500D02*
D03*
Y465413D02*
D03*
X682000Y471500D02*
D03*
X676685D02*
D03*
X646685Y377500D02*
D03*
X652000D02*
D03*
X556950Y462434D02*
D03*
Y455347D02*
D03*
X538450Y450391D02*
D03*
X543765D02*
D03*
X543950Y436391D02*
D03*
Y443477D02*
D03*
Y429477D02*
D03*
Y422391D02*
D03*
X549950Y403934D02*
D03*
Y396847D02*
D03*
X543450Y403934D02*
D03*
Y396847D02*
D03*
X536950Y403934D02*
D03*
Y396847D02*
D03*
X530450Y403934D02*
D03*
Y396847D02*
D03*
X485000Y259957D02*
D03*
Y267043D02*
D03*
X541000Y199457D02*
D03*
Y206543D02*
D03*
X445650Y88685D02*
D03*
Y81598D02*
D03*
X453150D02*
D03*
Y88685D02*
D03*
X460150Y81642D02*
D03*
Y88728D02*
D03*
X794000Y470543D02*
D03*
Y463457D02*
D03*
X621000Y385043D02*
D03*
Y377957D02*
D03*
D22*
X818500Y464437D02*
D03*
X822240Y456563D02*
D03*
X814760D02*
D03*
D23*
X828299Y471500D02*
D03*
X822000D02*
D03*
D24*
X825165Y419618D02*
D03*
Y414500D02*
D03*
Y409382D02*
D03*
Y406823D02*
D03*
Y404264D02*
D03*
Y401705D02*
D03*
Y399146D02*
D03*
Y396587D02*
D03*
X848000Y419618D02*
D03*
Y414500D02*
D03*
Y409382D02*
D03*
Y406823D02*
D03*
Y404264D02*
D03*
Y401705D02*
D03*
Y399146D02*
D03*
Y396587D02*
D03*
D25*
X836583Y408102D02*
D03*
D26*
X859457Y397500D02*
D03*
X866543D02*
D03*
X848000Y385343D02*
D03*
Y390657D02*
D03*
X840543Y390500D02*
D03*
X833457D02*
D03*
X812500D02*
D03*
X805413D02*
D03*
X810457Y397500D02*
D03*
X817543D02*
D03*
X758243Y414600D02*
D03*
X751157D02*
D03*
X687500Y494500D02*
D03*
X680413D02*
D03*
X675500Y481500D02*
D03*
X682587D02*
D03*
X667500D02*
D03*
Y476185D02*
D03*
X664457Y494500D02*
D03*
X671543D02*
D03*
X622343Y454100D02*
D03*
X615257D02*
D03*
X659500Y389657D02*
D03*
Y384343D02*
D03*
X666043Y377500D02*
D03*
X658957D02*
D03*
X639543D02*
D03*
X632457D02*
D03*
X556950Y443076D02*
D03*
Y448391D02*
D03*
X543537Y456891D02*
D03*
X536450D02*
D03*
X556950Y396891D02*
D03*
Y402206D02*
D03*
X536950Y422391D02*
D03*
X529864D02*
D03*
X523857Y219900D02*
D03*
X530943D02*
D03*
X396606Y108142D02*
D03*
X403693D02*
D03*
X322150Y115909D02*
D03*
X315063D02*
D03*
X813000Y471500D02*
D03*
X805913D02*
D03*
X648413Y494500D02*
D03*
X655500D02*
D03*
X624413Y400000D02*
D03*
X631500D02*
D03*
Y407000D02*
D03*
X624413D02*
D03*
X617500Y401185D02*
D03*
Y406500D02*
D03*
D27*
X907200Y181601D02*
D03*
Y169199D02*
D03*
X897100D02*
D03*
Y181601D02*
D03*
X886700Y169299D02*
D03*
Y181701D02*
D03*
X876700Y169499D02*
D03*
Y181901D02*
D03*
X866400Y169599D02*
D03*
Y182001D02*
D03*
X640400Y438199D02*
D03*
Y450601D02*
D03*
X494457Y266910D02*
D03*
Y254509D02*
D03*
X505457Y266910D02*
D03*
Y254509D02*
D03*
D28*
X750673Y427000D02*
D03*
X740240D02*
D03*
X668240Y385000D02*
D03*
X678673D02*
D03*
D29*
X719705Y489043D02*
D03*
Y494043D02*
D03*
X695295Y489043D02*
D03*
Y494043D02*
D03*
D30*
X722000Y452043D02*
D03*
Y472043D02*
D03*
X695500Y452043D02*
D03*
D31*
Y472043D02*
D03*
D32*
X651800Y468602D02*
D03*
Y456398D02*
D03*
X638600Y468702D02*
D03*
Y456498D02*
D03*
X838650Y134457D02*
D03*
Y146661D02*
D03*
X852650Y134457D02*
D03*
Y146661D02*
D03*
X942000Y312898D02*
D03*
Y325102D02*
D03*
X864500Y315898D02*
D03*
Y328102D02*
D03*
D33*
X672141Y434500D02*
D03*
X649700D02*
D03*
X933780Y74000D02*
D03*
X956221D02*
D03*
D34*
X647795Y408000D02*
D03*
D35*
X672598Y417016D02*
D03*
Y398984D02*
D03*
D36*
X631400Y439000D02*
D03*
Y450417D02*
D03*
X512500Y210209D02*
D03*
Y198791D02*
D03*
X532500Y210209D02*
D03*
Y198791D02*
D03*
D37*
X574950Y424891D02*
D03*
D38*
X586466Y407174D02*
D03*
Y409142D02*
D03*
Y411111D02*
D03*
Y415048D02*
D03*
Y418985D02*
D03*
Y422922D02*
D03*
Y426859D02*
D03*
Y430796D02*
D03*
Y434733D02*
D03*
Y438670D02*
D03*
Y440639D02*
D03*
Y442607D02*
D03*
X563435Y407174D02*
D03*
Y409142D02*
D03*
Y411111D02*
D03*
Y413080D02*
D03*
Y415048D02*
D03*
Y417017D02*
D03*
Y418985D02*
D03*
Y420954D02*
D03*
Y422922D02*
D03*
Y424891D02*
D03*
Y426859D02*
D03*
Y428828D02*
D03*
Y430796D02*
D03*
Y432765D02*
D03*
Y434733D02*
D03*
Y436702D02*
D03*
Y438670D02*
D03*
Y440639D02*
D03*
Y442607D02*
D03*
D39*
X564242Y387891D02*
D03*
X575659D02*
D03*
X564242Y398391D02*
D03*
X575659D02*
D03*
D40*
X564635Y378800D02*
D03*
X573100D02*
D03*
D41*
X584450Y397391D02*
D03*
Y388926D02*
D03*
X514957Y256477D02*
D03*
Y264942D02*
D03*
X316150Y98945D02*
D03*
Y107409D02*
D03*
Y132642D02*
D03*
Y124177D02*
D03*
D42*
X491500Y210472D02*
D03*
X496500D02*
D03*
X501500D02*
D03*
X491500Y244528D02*
D03*
X496500D02*
D03*
X501500D02*
D03*
D43*
X478200Y236898D02*
D03*
Y249102D02*
D03*
D44*
X543177Y236000D02*
D03*
X560500D02*
D03*
X543177Y253500D02*
D03*
X560500D02*
D03*
X543177Y271000D02*
D03*
X560500D02*
D03*
X543177Y288000D02*
D03*
X560500D02*
D03*
X543177Y305000D02*
D03*
X560500D02*
D03*
X655839Y13000D02*
D03*
X673161D02*
D03*
D45*
X541205Y340000D02*
D03*
X566795D02*
D03*
X520795Y413500D02*
D03*
X495205D02*
D03*
D46*
X572000Y327500D02*
D03*
Y310177D02*
D03*
X406000Y188661D02*
D03*
Y171339D02*
D03*
X388500Y188661D02*
D03*
Y171339D02*
D03*
D47*
X456350Y97409D02*
D03*
X443949D02*
D03*
D48*
X360400Y164405D02*
D03*
Y189995D02*
D03*
X494600Y390000D02*
D03*
Y364409D02*
D03*
D49*
X386500Y143063D02*
D03*
Y155937D02*
D03*
D50*
X395500Y150740D02*
D03*
Y143260D02*
D03*
X365701Y105500D02*
D03*
Y115500D02*
D03*
X328299Y105500D02*
D03*
Y115500D02*
D03*
D51*
X402772Y116587D02*
D03*
Y125642D02*
D03*
Y134697D02*
D03*
D52*
X380528Y125642D02*
D03*
M02*
