G04*
G04 #@! TF.GenerationSoftware,Altium Limited,Altium Designer,22.5.1 (42)*
G04*
G04 Layer_Physical_Order=3*
G04 Layer_Color=16440176*
%FSLAX25Y25*%
%MOIN*%
G70*
G04*
G04 #@! TF.SameCoordinates,02EF2946-DDE5-4D11-B7C9-AFF3A69701B4*
G04*
G04*
G04 #@! TF.FilePolarity,Positive*
G04*
G01*
G75*
%ADD11C,0.00787*%
%ADD15C,0.00800*%
%ADD93C,0.05000*%
%ADD94C,0.06181*%
%ADD108C,0.10827*%
%ADD109R,0.10827X0.10827*%
%ADD116C,0.01968*%
%ADD117C,0.03543*%
%ADD118C,0.02500*%
%ADD129C,0.05512*%
%ADD132C,0.06693*%
%ADD133C,0.07087*%
%ADD135R,0.09449X0.09449*%
%ADD143C,0.07874*%
%ADD144C,0.01968*%
%ADD145C,0.03937*%
%ADD146C,0.05906*%
%ADD147R,0.09843X0.09843*%
G36*
X1003000Y455409D02*
X984500Y392953D01*
X984600Y100D01*
X734350Y0D01*
X674016D01*
X671063Y5413D01*
Y20768D01*
X674087Y23792D01*
X734350D01*
Y341142D01*
X761836Y371875D01*
X761074Y404433D01*
X750647Y409980D01*
X727054Y409968D01*
X726700Y410322D01*
Y426222D01*
X727200Y426484D01*
X727972Y426164D01*
X729000Y426029D01*
X730028Y426164D01*
X730985Y426561D01*
X731808Y427192D01*
X732439Y428015D01*
X732836Y428972D01*
X732971Y430000D01*
X732836Y431028D01*
X732439Y431986D01*
X731808Y432808D01*
X730985Y433439D01*
X730028Y433836D01*
X729000Y433971D01*
X727972Y433836D01*
X727200Y433516D01*
X726700Y433778D01*
Y499900D01*
X984600D01*
X1003000Y455409D01*
D02*
G37*
G36*
X693000Y439055D02*
X679945D01*
Y420945D01*
X693000D01*
Y416938D01*
X692500Y416838D01*
X692439Y416986D01*
X691808Y417808D01*
X690985Y418439D01*
X690028Y418836D01*
X689000Y418971D01*
X687972Y418836D01*
X687014Y418439D01*
X686192Y417808D01*
X685561Y416986D01*
X685164Y416028D01*
X685029Y415000D01*
X685164Y413972D01*
X685561Y413015D01*
X686192Y412192D01*
X687014Y411561D01*
X687972Y411164D01*
X689000Y411029D01*
X690028Y411164D01*
X690985Y411561D01*
X691808Y412192D01*
X692439Y413015D01*
X692500Y413162D01*
X693000Y413062D01*
Y404131D01*
X704300Y389126D01*
X734541D01*
X734888Y388766D01*
X734594Y380840D01*
X723590Y369836D01*
X599902Y369587D01*
Y347201D01*
X577165D01*
Y320429D01*
X599902D01*
Y244029D01*
X599447Y243820D01*
X598444Y244678D01*
X596647Y245778D01*
X594700Y246585D01*
X592652Y247077D01*
X590551Y247242D01*
X588451Y247077D01*
X586402Y246585D01*
X584455Y245778D01*
X582659Y244678D01*
X581057Y243309D01*
X579688Y241707D01*
X578587Y239911D01*
X577781Y237964D01*
X577289Y235915D01*
X577124Y233815D01*
X577289Y231714D01*
X577781Y229666D01*
X578587Y227719D01*
X579688Y225922D01*
X581057Y224320D01*
X582659Y222952D01*
X584455Y221851D01*
X586402Y221045D01*
X588451Y220553D01*
X590551Y220388D01*
X592652Y220553D01*
X594700Y221045D01*
X596647Y221851D01*
X598444Y222952D01*
X599447Y223810D01*
X599902Y223600D01*
Y175130D01*
X577165D01*
Y148358D01*
X599902D01*
Y71959D01*
X599447Y71749D01*
X598444Y72607D01*
X596647Y73708D01*
X594700Y74514D01*
X592652Y75006D01*
X590551Y75171D01*
X588451Y75006D01*
X586402Y74514D01*
X584455Y73708D01*
X582659Y72607D01*
X581057Y71238D01*
X579688Y69636D01*
X578587Y67840D01*
X577781Y65893D01*
X577289Y63845D01*
X577124Y61744D01*
X577289Y59644D01*
X577781Y57595D01*
X578587Y55648D01*
X579688Y53852D01*
X581057Y52250D01*
X582659Y50881D01*
X584455Y49780D01*
X586402Y48974D01*
X588451Y48482D01*
X590551Y48317D01*
X592652Y48482D01*
X594700Y48974D01*
X596647Y49780D01*
X598444Y50881D01*
X599447Y51739D01*
X599902Y51529D01*
Y23792D01*
X655145D01*
X658169Y20768D01*
X658071Y20669D01*
Y5413D01*
X655807Y0D01*
X271400D01*
X271400Y207172D01*
X366711D01*
X366880Y206701D01*
X366286Y206214D01*
X365106Y204775D01*
X364228Y203133D01*
X363688Y201352D01*
X363506Y199500D01*
X363688Y197648D01*
X364228Y195867D01*
X365106Y194225D01*
X366286Y192786D01*
X367725Y191606D01*
X369367Y190728D01*
X371148Y190188D01*
X373000Y190006D01*
X374852Y190188D01*
X376633Y190728D01*
X378275Y191606D01*
X379714Y192786D01*
X380686Y193972D01*
X380706Y193983D01*
X381294D01*
X381314Y193972D01*
X382286Y192786D01*
X383725Y191606D01*
X385367Y190728D01*
X387148Y190188D01*
X389000Y190006D01*
X390852Y190188D01*
X392633Y190728D01*
X394275Y191606D01*
X395714Y192786D01*
X396894Y194225D01*
X397250Y194890D01*
X397750D01*
X398106Y194225D01*
X399286Y192786D01*
X400725Y191606D01*
X402367Y190728D01*
X404148Y190188D01*
X406000Y190006D01*
X407852Y190188D01*
X409633Y190728D01*
X411275Y191606D01*
X412714Y192786D01*
X413894Y194225D01*
X414772Y195867D01*
X415312Y197648D01*
X415494Y199500D01*
X415312Y201352D01*
X414772Y203133D01*
X413894Y204775D01*
X412714Y206214D01*
X411275Y207394D01*
X409633Y208272D01*
X407852Y208812D01*
X406000Y208995D01*
X404148Y208812D01*
X402367Y208272D01*
X400725Y207394D01*
X399286Y206214D01*
X398106Y204775D01*
X397750Y204110D01*
X397250D01*
X396894Y204775D01*
X395714Y206214D01*
X394275Y207394D01*
X392633Y208272D01*
X390852Y208812D01*
X389000Y208995D01*
X387148Y208812D01*
X385781Y208398D01*
X385583Y208860D01*
X481000Y262700D01*
X481168Y500500D01*
X693000D01*
Y439055D01*
D02*
G37*
%LPC*%
G36*
X739900Y460119D02*
X739145Y460019D01*
X738441Y459728D01*
X737836Y459264D01*
X737372Y458659D01*
X737081Y457955D01*
X736981Y457200D01*
X737081Y456445D01*
X737372Y455741D01*
X737836Y455136D01*
X738441Y454672D01*
X739145Y454381D01*
X739900Y454281D01*
X740655Y454381D01*
X741359Y454672D01*
X741964Y455136D01*
X742428Y455741D01*
X742719Y456445D01*
X742819Y457200D01*
X742719Y457955D01*
X742428Y458659D01*
X741964Y459264D01*
X741359Y459728D01*
X740655Y460019D01*
X739900Y460119D01*
D02*
G37*
G36*
X814600Y452019D02*
X813845Y451919D01*
X813141Y451628D01*
X812536Y451164D01*
X812072Y450559D01*
X811781Y449855D01*
X811681Y449100D01*
X811781Y448345D01*
X812072Y447641D01*
X812536Y447036D01*
X813141Y446572D01*
X813845Y446281D01*
X814600Y446181D01*
X815355Y446281D01*
X816059Y446572D01*
X816664Y447036D01*
X817128Y447641D01*
X817419Y448345D01*
X817519Y449100D01*
X817419Y449855D01*
X817128Y450559D01*
X816664Y451164D01*
X816059Y451628D01*
X815355Y451919D01*
X814600Y452019D01*
D02*
G37*
G36*
X980126Y471433D02*
X977989Y471293D01*
X975888Y470875D01*
X973860Y470186D01*
X971939Y469239D01*
X970158Y468049D01*
X968548Y466637D01*
X967136Y465027D01*
X965946Y463246D01*
X964999Y461325D01*
X964310Y459297D01*
X963892Y457196D01*
X963752Y455059D01*
X963892Y452922D01*
X964310Y450821D01*
X964999Y448793D01*
X965946Y446872D01*
X967136Y445091D01*
X968548Y443481D01*
X970158Y442069D01*
X971939Y440879D01*
X973860Y439932D01*
X975888Y439243D01*
X977989Y438826D01*
X980126Y438685D01*
X982263Y438826D01*
X984364Y439243D01*
X986392Y439932D01*
X988313Y440879D01*
X990094Y442069D01*
X991704Y443481D01*
X993116Y445091D01*
X994306Y446872D01*
X995253Y448793D01*
X995942Y450821D01*
X996360Y452922D01*
X996500Y455059D01*
X996360Y457196D01*
X995942Y459297D01*
X995253Y461325D01*
X994306Y463246D01*
X993116Y465027D01*
X991704Y466637D01*
X990094Y468049D01*
X988313Y469239D01*
X986392Y470186D01*
X984364Y470875D01*
X982263Y471293D01*
X980126Y471433D01*
D02*
G37*
G36*
X815100Y441719D02*
X814345Y441619D01*
X813641Y441328D01*
X813036Y440864D01*
X812572Y440259D01*
X812281Y439555D01*
X812181Y438800D01*
X812281Y438045D01*
X812572Y437341D01*
X813036Y436736D01*
X813641Y436272D01*
X814345Y435981D01*
X815100Y435881D01*
X815855Y435981D01*
X816559Y436272D01*
X817164Y436736D01*
X817628Y437341D01*
X817919Y438045D01*
X818019Y438800D01*
X817919Y439555D01*
X817628Y440259D01*
X817164Y440864D01*
X816559Y441328D01*
X815855Y441619D01*
X815100Y441719D01*
D02*
G37*
G36*
X806200Y435619D02*
X805445Y435519D01*
X804741Y435228D01*
X804136Y434764D01*
X803672Y434159D01*
X803381Y433455D01*
X803281Y432700D01*
X803381Y431945D01*
X803672Y431241D01*
X804136Y430636D01*
X804741Y430172D01*
X805445Y429881D01*
X806200Y429781D01*
X806955Y429881D01*
X807659Y430172D01*
X808264Y430636D01*
X808728Y431241D01*
X809019Y431945D01*
X809119Y432700D01*
X809019Y433455D01*
X808728Y434159D01*
X808264Y434764D01*
X807659Y435228D01*
X806955Y435519D01*
X806200Y435619D01*
D02*
G37*
G36*
X798800Y422919D02*
X798045Y422819D01*
X797341Y422528D01*
X796736Y422064D01*
X796272Y421459D01*
X795981Y420755D01*
X795881Y420000D01*
X795981Y419245D01*
X796272Y418541D01*
X796736Y417936D01*
X797341Y417472D01*
X798045Y417181D01*
X798800Y417081D01*
X799555Y417181D01*
X800259Y417472D01*
X800864Y417936D01*
X801328Y418541D01*
X801619Y419245D01*
X801719Y420000D01*
X801619Y420755D01*
X801328Y421459D01*
X800864Y422064D01*
X800259Y422528D01*
X799555Y422819D01*
X798800Y422919D01*
D02*
G37*
G36*
X788000Y422719D02*
X787245Y422619D01*
X786541Y422328D01*
X785936Y421864D01*
X785472Y421259D01*
X785181Y420555D01*
X785081Y419800D01*
X785181Y419045D01*
X785472Y418341D01*
X785936Y417736D01*
X786541Y417272D01*
X787245Y416981D01*
X788000Y416881D01*
X788647Y416966D01*
X796062Y409551D01*
X795981Y409355D01*
X795881Y408600D01*
X795981Y407845D01*
X796272Y407141D01*
X796736Y406536D01*
X797341Y406072D01*
X798045Y405781D01*
X798800Y405681D01*
X799555Y405781D01*
X800259Y406072D01*
X800864Y406536D01*
X801328Y407141D01*
X801619Y407845D01*
X801719Y408600D01*
X801619Y409355D01*
X801328Y410059D01*
X800864Y410664D01*
X800259Y411128D01*
X799555Y411419D01*
X798800Y411519D01*
X798153Y411434D01*
X790738Y418849D01*
X790819Y419045D01*
X790919Y419800D01*
X790819Y420555D01*
X790528Y421259D01*
X790064Y421864D01*
X789459Y422328D01*
X788755Y422619D01*
X788000Y422719D01*
D02*
G37*
G36*
X788300Y410819D02*
X787545Y410719D01*
X786841Y410428D01*
X786236Y409964D01*
X785772Y409359D01*
X785481Y408655D01*
X785381Y407900D01*
X785481Y407145D01*
X785772Y406441D01*
X786236Y405836D01*
X786841Y405372D01*
X787545Y405081D01*
X788300Y404981D01*
X789055Y405081D01*
X789759Y405372D01*
X790364Y405836D01*
X790828Y406441D01*
X791119Y407145D01*
X791219Y407900D01*
X791119Y408655D01*
X790828Y409359D01*
X790364Y409964D01*
X789759Y410428D01*
X789055Y410719D01*
X788300Y410819D01*
D02*
G37*
G36*
X876600Y397819D02*
X875845Y397719D01*
X875141Y397428D01*
X874536Y396964D01*
X874072Y396359D01*
X873781Y395655D01*
X873681Y394900D01*
X873781Y394145D01*
X874072Y393441D01*
X874536Y392836D01*
X875141Y392372D01*
X875845Y392081D01*
X876600Y391981D01*
X877355Y392081D01*
X878059Y392372D01*
X878664Y392836D01*
X879128Y393441D01*
X879419Y394145D01*
X879519Y394900D01*
X879419Y395655D01*
X879128Y396359D01*
X878664Y396964D01*
X878059Y397428D01*
X877355Y397719D01*
X876600Y397819D01*
D02*
G37*
G36*
X857900Y430519D02*
X857145Y430419D01*
X856441Y430128D01*
X855836Y429664D01*
X855372Y429059D01*
X855081Y428355D01*
X854981Y427600D01*
X855081Y426845D01*
X855372Y426141D01*
X855836Y425536D01*
X856441Y425072D01*
X857145Y424781D01*
X857900Y424681D01*
X858655Y424781D01*
X859359Y425072D01*
X859964Y425536D01*
X860262Y425924D01*
X933106D01*
X979224Y379806D01*
Y378236D01*
X978724Y378085D01*
X978601Y378269D01*
X933185Y423685D01*
X932641Y424048D01*
X932000Y424176D01*
X865462D01*
X865164Y424564D01*
X864559Y425028D01*
X863855Y425319D01*
X863100Y425419D01*
X862345Y425319D01*
X861641Y425028D01*
X861036Y424564D01*
X860572Y423959D01*
X860281Y423255D01*
X860181Y422500D01*
X860281Y421745D01*
X860572Y421041D01*
X861036Y420436D01*
X861641Y419972D01*
X862345Y419681D01*
X863100Y419581D01*
X863855Y419681D01*
X864559Y419972D01*
X865164Y420436D01*
X865462Y420824D01*
X870983D01*
X871153Y420324D01*
X870713Y419987D01*
X870177Y419288D01*
X869840Y418474D01*
X869725Y417600D01*
X869840Y416726D01*
X870177Y415912D01*
X870713Y415213D01*
X871412Y414677D01*
X872226Y414340D01*
X873100Y414225D01*
X876275D01*
X876375Y413725D01*
X876141Y413628D01*
X875536Y413164D01*
X875072Y412559D01*
X874781Y411855D01*
X874681Y411100D01*
X874781Y410345D01*
X875072Y409641D01*
X875536Y409036D01*
X876141Y408572D01*
X876845Y408281D01*
X877600Y408181D01*
X878355Y408281D01*
X879059Y408572D01*
X879664Y409036D01*
X880128Y409641D01*
X880419Y410345D01*
X880519Y411100D01*
X880419Y411855D01*
X880128Y412559D01*
X879664Y413164D01*
X879059Y413628D01*
X878825Y413725D01*
X878925Y414225D01*
X921802D01*
X968825Y367202D01*
Y282298D01*
X952394Y265867D01*
X884315D01*
Y267807D01*
X873685D01*
Y257177D01*
X884315D01*
Y259117D01*
X953792D01*
X954666Y259232D01*
X955480Y259569D01*
X956179Y260105D01*
X974587Y278513D01*
X975123Y279212D01*
X975240Y279494D01*
X975740Y279395D01*
Y211810D01*
X973406Y209476D01*
X959673D01*
X959031Y209348D01*
X958488Y208985D01*
X937978Y188476D01*
X892191D01*
X889882Y190785D01*
X889338Y191148D01*
X888697Y191276D01*
X863661D01*
X863364Y191664D01*
X862759Y192128D01*
X862055Y192419D01*
X861300Y192519D01*
X860545Y192419D01*
X859841Y192128D01*
X859236Y191664D01*
X858772Y191059D01*
X858481Y190355D01*
X858381Y189600D01*
X858481Y188845D01*
X858772Y188141D01*
X859236Y187536D01*
X859841Y187072D01*
X860545Y186781D01*
X861300Y186681D01*
X862055Y186781D01*
X862759Y187072D01*
X863364Y187536D01*
X863661Y187924D01*
X888003D01*
X890312Y185615D01*
X890856Y185252D01*
X891497Y185124D01*
X938673D01*
X938890Y185167D01*
X939137Y184707D01*
X936606Y182176D01*
X919361D01*
X919064Y182564D01*
X918459Y183028D01*
X917755Y183319D01*
X917000Y183419D01*
X916245Y183319D01*
X915541Y183028D01*
X914936Y182564D01*
X914472Y181959D01*
X914181Y181255D01*
X914081Y180500D01*
X914181Y179745D01*
X914472Y179041D01*
X914936Y178436D01*
X915541Y177972D01*
X916245Y177681D01*
X917000Y177581D01*
X917755Y177681D01*
X918459Y177972D01*
X919064Y178436D01*
X919361Y178824D01*
X937300D01*
X937941Y178952D01*
X938485Y179315D01*
X961265Y202095D01*
X974999D01*
X975640Y202223D01*
X976184Y202586D01*
X982085Y208488D01*
X982448Y209031D01*
X982576Y209672D01*
Y380500D01*
X982448Y381141D01*
X982085Y381685D01*
X934985Y428785D01*
X934441Y429148D01*
X933800Y429276D01*
X860262D01*
X859964Y429664D01*
X859359Y430128D01*
X858655Y430419D01*
X857900Y430519D01*
D02*
G37*
G36*
X841100Y352968D02*
X839970Y352819D01*
X838916Y352383D01*
X838011Y351689D01*
X837317Y350784D01*
X836881Y349730D01*
X836732Y348600D01*
X836881Y347469D01*
X837317Y346416D01*
X838011Y345511D01*
X838916Y344817D01*
X839970Y344381D01*
X841100Y344232D01*
X842231Y344381D01*
X843284Y344817D01*
X844189Y345511D01*
X844883Y346416D01*
X845319Y347469D01*
X845468Y348600D01*
X845319Y349730D01*
X844883Y350784D01*
X844189Y351689D01*
X843284Y352383D01*
X842231Y352819D01*
X841100Y352968D01*
D02*
G37*
G36*
X828500Y352168D02*
X827369Y352019D01*
X826316Y351583D01*
X825411Y350889D01*
X824717Y349984D01*
X824281Y348931D01*
X824132Y347800D01*
X824281Y346670D01*
X824717Y345616D01*
X825411Y344711D01*
X826316Y344017D01*
X827369Y343581D01*
X828500Y343432D01*
X829630Y343581D01*
X830684Y344017D01*
X831589Y344711D01*
X832283Y345616D01*
X832719Y346670D01*
X832868Y347800D01*
X832719Y348931D01*
X832283Y349984D01*
X831589Y350889D01*
X830684Y351583D01*
X829630Y352019D01*
X828500Y352168D01*
D02*
G37*
G36*
X924743Y351289D02*
X923612Y351140D01*
X922559Y350704D01*
X921654Y350010D01*
X920960Y349105D01*
X920524Y348052D01*
X920375Y346921D01*
X920524Y345791D01*
X920960Y344737D01*
X921654Y343832D01*
X922559Y343138D01*
X923612Y342702D01*
X924743Y342553D01*
X925873Y342702D01*
X926927Y343138D01*
X927831Y343832D01*
X928526Y344737D01*
X928962Y345791D01*
X929111Y346921D01*
X928962Y348052D01*
X928526Y349105D01*
X927831Y350010D01*
X926927Y350704D01*
X925873Y351140D01*
X924743Y351289D01*
D02*
G37*
G36*
X938700Y350568D02*
X937570Y350419D01*
X936516Y349983D01*
X935611Y349289D01*
X934917Y348384D01*
X934481Y347330D01*
X934332Y346200D01*
X934481Y345070D01*
X934917Y344016D01*
X935611Y343111D01*
X936516Y342417D01*
X937570Y341981D01*
X938700Y341832D01*
X939830Y341981D01*
X940884Y342417D01*
X941789Y343111D01*
X942483Y344016D01*
X942919Y345070D01*
X943068Y346200D01*
X942919Y347330D01*
X942483Y348384D01*
X941789Y349289D01*
X940884Y349983D01*
X939830Y350419D01*
X938700Y350568D01*
D02*
G37*
G36*
X867400Y365778D02*
X866269Y365630D01*
X865216Y365193D01*
X864311Y364499D01*
X863617Y363594D01*
X863181Y362541D01*
X863032Y361410D01*
X863181Y360280D01*
X863617Y359226D01*
X864287Y358354D01*
X864363Y358200D01*
Y357782D01*
X864111Y357589D01*
X863417Y356684D01*
X862981Y355630D01*
X862832Y354500D01*
X862981Y353369D01*
X863417Y352316D01*
X864111Y351411D01*
X865016Y350717D01*
X866069Y350281D01*
X866037Y349781D01*
X865569Y349719D01*
X864516Y349283D01*
X863611Y348589D01*
X862917Y347684D01*
X862481Y346631D01*
X862332Y345500D01*
X862481Y344370D01*
X862917Y343316D01*
X863611Y342411D01*
X864516Y341717D01*
X865569Y341281D01*
X866700Y341132D01*
X867830Y341281D01*
X868884Y341717D01*
X869789Y342411D01*
X870483Y343316D01*
X870919Y344370D01*
X871068Y345500D01*
X870919Y346631D01*
X870483Y347684D01*
X869789Y348589D01*
X868884Y349283D01*
X867831Y349719D01*
X867863Y350219D01*
X868330Y350281D01*
X869384Y350717D01*
X870289Y351411D01*
X870983Y352316D01*
X871419Y353369D01*
X871568Y354500D01*
X871419Y355630D01*
X870983Y356684D01*
X870289Y357589D01*
X870237Y357628D01*
Y358128D01*
X870489Y358321D01*
X871183Y359226D01*
X871619Y360280D01*
X871768Y361410D01*
X871619Y362541D01*
X871183Y363594D01*
X870489Y364499D01*
X869584Y365193D01*
X868530Y365630D01*
X867400Y365778D01*
D02*
G37*
G36*
X899600Y347468D02*
X898470Y347319D01*
X897416Y346883D01*
X896511Y346189D01*
X895817Y345284D01*
X895381Y344231D01*
X895232Y343100D01*
X895381Y341969D01*
X895817Y340916D01*
X896511Y340011D01*
X897416Y339317D01*
X898470Y338881D01*
X899600Y338732D01*
X900731Y338881D01*
X901784Y339317D01*
X902689Y340011D01*
X903383Y340916D01*
X903819Y341969D01*
X903968Y343100D01*
X903819Y344231D01*
X903383Y345284D01*
X902689Y346189D01*
X901784Y346883D01*
X900731Y347319D01*
X899600Y347468D01*
D02*
G37*
G36*
X951600Y346968D02*
X950469Y346819D01*
X949416Y346383D01*
X948511Y345689D01*
X947817Y344784D01*
X947381Y343730D01*
X947232Y342600D01*
X947381Y341470D01*
X947817Y340416D01*
X948511Y339511D01*
X949416Y338817D01*
X950469Y338381D01*
X951600Y338232D01*
X952730Y338381D01*
X953784Y338817D01*
X954689Y339511D01*
X955383Y340416D01*
X955819Y341470D01*
X955968Y342600D01*
X955819Y343730D01*
X955383Y344784D01*
X954689Y345689D01*
X953784Y346383D01*
X952730Y346819D01*
X951600Y346968D01*
D02*
G37*
G36*
X889700Y343668D02*
X888570Y343519D01*
X887516Y343083D01*
X886611Y342389D01*
X885917Y341484D01*
X885481Y340430D01*
X885332Y339300D01*
X885481Y338170D01*
X885917Y337116D01*
X886611Y336211D01*
X887516Y335517D01*
X888570Y335081D01*
X889700Y334932D01*
X890831Y335081D01*
X891884Y335517D01*
X892789Y336211D01*
X893483Y337116D01*
X893919Y338170D01*
X894068Y339300D01*
X893919Y340430D01*
X893483Y341484D01*
X892789Y342389D01*
X891884Y343083D01*
X890831Y343519D01*
X889700Y343668D01*
D02*
G37*
G36*
X909600Y343468D02*
X908469Y343319D01*
X907416Y342883D01*
X906511Y342189D01*
X905817Y341284D01*
X905381Y340230D01*
X905232Y339100D01*
X905381Y337969D01*
X905817Y336916D01*
X906511Y336011D01*
X907416Y335317D01*
X908469Y334881D01*
X909600Y334732D01*
X910730Y334881D01*
X911784Y335317D01*
X912689Y336011D01*
X913383Y336916D01*
X913819Y337969D01*
X913968Y339100D01*
X913819Y340230D01*
X913383Y341284D01*
X912689Y342189D01*
X911784Y342883D01*
X910730Y343319D01*
X909600Y343468D01*
D02*
G37*
G36*
X846100Y343268D02*
X844969Y343119D01*
X843916Y342683D01*
X843011Y341989D01*
X842317Y341084D01*
X841881Y340031D01*
X841732Y338900D01*
X841881Y337770D01*
X842317Y336716D01*
X843011Y335811D01*
X843916Y335117D01*
X844969Y334681D01*
X846100Y334532D01*
X847231Y334681D01*
X848284Y335117D01*
X849189Y335811D01*
X849883Y336716D01*
X850319Y337770D01*
X850468Y338900D01*
X850319Y340031D01*
X849883Y341084D01*
X849189Y341989D01*
X848284Y342683D01*
X847231Y343119D01*
X846100Y343268D01*
D02*
G37*
G36*
X866800Y340468D02*
X865670Y340319D01*
X864616Y339883D01*
X863711Y339189D01*
X863017Y338284D01*
X862581Y337230D01*
X862432Y336100D01*
X862581Y334969D01*
X863017Y333916D01*
X863711Y333011D01*
X864616Y332317D01*
X865670Y331881D01*
X866800Y331732D01*
X867931Y331881D01*
X868984Y332317D01*
X869889Y333011D01*
X870583Y333916D01*
X871019Y334969D01*
X871168Y336100D01*
X871019Y337230D01*
X870583Y338284D01*
X869889Y339189D01*
X868984Y339883D01*
X867931Y340319D01*
X866800Y340468D01*
D02*
G37*
G36*
X960700Y336468D02*
X959569Y336319D01*
X958516Y335883D01*
X957611Y335189D01*
X956917Y334284D01*
X956481Y333230D01*
X956332Y332100D01*
X956481Y330970D01*
X956917Y329916D01*
X957611Y329011D01*
X958516Y328317D01*
X959569Y327881D01*
X960700Y327732D01*
X961831Y327881D01*
X962884Y328317D01*
X963789Y329011D01*
X964483Y329916D01*
X964919Y330970D01*
X965068Y332100D01*
X964919Y333230D01*
X964483Y334284D01*
X963789Y335189D01*
X962884Y335883D01*
X961831Y336319D01*
X960700Y336468D01*
D02*
G37*
G36*
X901027Y333928D02*
X898272D01*
X897580Y333791D01*
X896994Y333399D01*
X896603Y332813D01*
X896465Y332122D01*
Y329366D01*
X896603Y328675D01*
X896994Y328089D01*
X897580Y327697D01*
X898272Y327560D01*
X901027D01*
X901719Y327697D01*
X902305Y328089D01*
X902696Y328675D01*
X902834Y329366D01*
Y332122D01*
X902696Y332813D01*
X902305Y333399D01*
X901719Y333791D01*
X901027Y333928D01*
D02*
G37*
G36*
X743504Y342123D02*
X741883Y341963D01*
X740325Y341490D01*
X738888Y340722D01*
X737630Y339689D01*
X736596Y338430D01*
X735829Y336994D01*
X735356Y335436D01*
X735196Y333815D01*
X735356Y332194D01*
X735829Y330636D01*
X736596Y329199D01*
X737630Y327940D01*
X738888Y326907D01*
X740325Y326139D01*
X741883Y325667D01*
X743504Y325507D01*
X745125Y325667D01*
X746683Y326139D01*
X748119Y326907D01*
X749378Y327940D01*
X750412Y329199D01*
X751179Y330636D01*
X751652Y332194D01*
X751812Y333815D01*
X751652Y335436D01*
X751179Y336994D01*
X750412Y338430D01*
X749378Y339689D01*
X748119Y340722D01*
X746683Y341490D01*
X745125Y341963D01*
X743504Y342123D01*
D02*
G37*
G36*
X911700Y333568D02*
X910569Y333419D01*
X909516Y332983D01*
X908611Y332289D01*
X907917Y331384D01*
X907481Y330330D01*
X907332Y329200D01*
X907481Y328069D01*
X907917Y327016D01*
X908611Y326111D01*
X909516Y325417D01*
X910569Y324981D01*
X911700Y324832D01*
X912831Y324981D01*
X913884Y325417D01*
X914789Y326111D01*
X915483Y327016D01*
X915919Y328069D01*
X916068Y329200D01*
X915919Y330330D01*
X915483Y331384D01*
X914789Y332289D01*
X913884Y332983D01*
X912831Y333419D01*
X911700Y333568D01*
D02*
G37*
G36*
X887500Y333068D02*
X886370Y332919D01*
X885316Y332483D01*
X884411Y331789D01*
X883717Y330884D01*
X883281Y329831D01*
X883132Y328700D01*
X883281Y327570D01*
X883717Y326516D01*
X884411Y325611D01*
X885316Y324917D01*
X886370Y324481D01*
X887500Y324332D01*
X888630Y324481D01*
X889684Y324917D01*
X890589Y325611D01*
X891283Y326516D01*
X891719Y327570D01*
X891868Y328700D01*
X891719Y329831D01*
X891283Y330884D01*
X890589Y331789D01*
X889684Y332483D01*
X888630Y332919D01*
X887500Y333068D01*
D02*
G37*
G36*
X847000Y332668D02*
X845870Y332519D01*
X844816Y332083D01*
X843911Y331389D01*
X843217Y330484D01*
X842781Y329431D01*
X842632Y328300D01*
X842781Y327169D01*
X843217Y326116D01*
X843911Y325211D01*
X844816Y324517D01*
X845870Y324081D01*
X847000Y323932D01*
X848131Y324081D01*
X849184Y324517D01*
X850089Y325211D01*
X850783Y326116D01*
X851219Y327169D01*
X851368Y328300D01*
X851219Y329431D01*
X850783Y330484D01*
X850089Y331389D01*
X849184Y332083D01*
X848131Y332519D01*
X847000Y332668D01*
D02*
G37*
G36*
X962500Y324768D02*
X961370Y324619D01*
X960316Y324183D01*
X959411Y323489D01*
X958717Y322584D01*
X958281Y321531D01*
X958132Y320400D01*
X958281Y319269D01*
X958717Y318216D01*
X959411Y317311D01*
X960316Y316617D01*
X961370Y316181D01*
X962500Y316032D01*
X963630Y316181D01*
X964684Y316617D01*
X965589Y317311D01*
X966283Y318216D01*
X966719Y319269D01*
X966868Y320400D01*
X966719Y321531D01*
X966283Y322584D01*
X965589Y323489D01*
X964684Y324183D01*
X963630Y324619D01*
X962500Y324768D01*
D02*
G37*
G36*
X830024Y337428D02*
X828789Y337306D01*
X827601Y336946D01*
X826507Y336361D01*
X825548Y335574D01*
X824761Y334615D01*
X824176Y333521D01*
X823816Y332333D01*
X823694Y331098D01*
Y321256D01*
X823816Y320021D01*
X824176Y318834D01*
X824761Y317739D01*
X825548Y316780D01*
X826507Y315993D01*
X827601Y315408D01*
X828789Y315048D01*
X830024Y314926D01*
X831258Y315048D01*
X832446Y315408D01*
X833540Y315993D01*
X834499Y316780D01*
X835287Y317739D01*
X835872Y318834D01*
X836232Y320021D01*
X836353Y321256D01*
Y331098D01*
X836232Y332333D01*
X835872Y333521D01*
X835287Y334615D01*
X834499Y335574D01*
X833540Y336361D01*
X832446Y336946D01*
X831258Y337306D01*
X830024Y337428D01*
D02*
G37*
G36*
X846600Y322468D02*
X845469Y322319D01*
X844416Y321883D01*
X843511Y321189D01*
X842817Y320284D01*
X842381Y319231D01*
X842232Y318100D01*
X842381Y316969D01*
X842817Y315916D01*
X843511Y315011D01*
X844416Y314317D01*
X845469Y313881D01*
X846600Y313732D01*
X847731Y313881D01*
X848784Y314317D01*
X849689Y315011D01*
X850383Y315916D01*
X850819Y316969D01*
X850968Y318100D01*
X850819Y319231D01*
X850383Y320284D01*
X849689Y321189D01*
X848784Y321883D01*
X847731Y322319D01*
X846600Y322468D01*
D02*
G37*
G36*
X962300Y313968D02*
X961170Y313819D01*
X960116Y313383D01*
X959211Y312689D01*
X958517Y311784D01*
X958081Y310731D01*
X957932Y309600D01*
X958081Y308470D01*
X958517Y307416D01*
X959211Y306511D01*
X960116Y305817D01*
X961170Y305381D01*
X962300Y305232D01*
X963431Y305381D01*
X964484Y305817D01*
X965389Y306511D01*
X966083Y307416D01*
X966519Y308470D01*
X966668Y309600D01*
X966519Y310731D01*
X966083Y311784D01*
X965389Y312689D01*
X964484Y313383D01*
X963431Y313819D01*
X962300Y313968D01*
D02*
G37*
G36*
X960900Y300868D02*
X959770Y300719D01*
X958716Y300283D01*
X957811Y299589D01*
X957117Y298684D01*
X956681Y297631D01*
X956532Y296500D01*
X956681Y295370D01*
X957117Y294316D01*
X957811Y293411D01*
X958716Y292717D01*
X959770Y292281D01*
X960900Y292132D01*
X962031Y292281D01*
X963084Y292717D01*
X963989Y293411D01*
X964683Y294316D01*
X965119Y295370D01*
X965268Y296500D01*
X965119Y297631D01*
X964683Y298684D01*
X963989Y299589D01*
X963084Y300283D01*
X962031Y300719D01*
X960900Y300868D01*
D02*
G37*
G36*
X961800Y289668D02*
X960670Y289519D01*
X959616Y289083D01*
X958711Y288389D01*
X958017Y287484D01*
X957581Y286431D01*
X957432Y285300D01*
X957581Y284170D01*
X958017Y283116D01*
X958711Y282211D01*
X959616Y281517D01*
X960670Y281081D01*
X961800Y280932D01*
X962930Y281081D01*
X963984Y281517D01*
X964889Y282211D01*
X965583Y283116D01*
X966019Y284170D01*
X966168Y285300D01*
X966019Y286431D01*
X965583Y287484D01*
X964889Y288389D01*
X963984Y289083D01*
X962930Y289519D01*
X961800Y289668D01*
D02*
G37*
G36*
X743504Y292123D02*
X741883Y291963D01*
X740325Y291490D01*
X738888Y290722D01*
X737630Y289689D01*
X736596Y288430D01*
X735829Y286994D01*
X735356Y285436D01*
X735196Y283815D01*
X735356Y282194D01*
X735829Y280636D01*
X736596Y279199D01*
X737630Y277940D01*
X738888Y276907D01*
X740325Y276139D01*
X741883Y275667D01*
X743504Y275507D01*
X745125Y275667D01*
X746683Y276139D01*
X748119Y276907D01*
X749378Y277940D01*
X750412Y279199D01*
X751179Y280636D01*
X751652Y282194D01*
X751812Y283815D01*
X751652Y285436D01*
X751179Y286994D01*
X750412Y288430D01*
X749378Y289689D01*
X748119Y290722D01*
X746683Y291490D01*
X745125Y291963D01*
X743504Y292123D01*
D02*
G37*
G36*
X911472Y291238D02*
X909659Y291059D01*
X907915Y290530D01*
X906308Y289671D01*
X904899Y288515D01*
X903743Y287106D01*
X902883Y285499D01*
X902354Y283755D01*
X902176Y281941D01*
X902354Y280127D01*
X902883Y278383D01*
X903743Y276776D01*
X904899Y275367D01*
X906308Y274211D01*
X907915Y273352D01*
X909659Y272823D01*
X911472Y272644D01*
X913286Y272823D01*
X915030Y273352D01*
X916637Y274211D01*
X918046Y275367D01*
X919202Y276776D01*
X920061Y278383D01*
X920591Y280127D01*
X920769Y281941D01*
X920591Y283755D01*
X920061Y285499D01*
X919202Y287106D01*
X918046Y288515D01*
X916637Y289671D01*
X915030Y290530D01*
X913286Y291059D01*
X911472Y291238D01*
D02*
G37*
G36*
X772150Y282310D02*
X770915Y282188D01*
X769727Y281828D01*
X768633Y281243D01*
X767674Y280456D01*
X766887Y279497D01*
X766302Y278403D01*
X765941Y277215D01*
X765820Y275980D01*
Y266138D01*
X765941Y264903D01*
X766302Y263716D01*
X766887Y262621D01*
X767674Y261662D01*
X768633Y260875D01*
X769727Y260290D01*
X770915Y259930D01*
X772150Y259808D01*
X773385Y259930D01*
X774572Y260290D01*
X775666Y260875D01*
X776625Y261662D01*
X777413Y262621D01*
X777997Y263716D01*
X778358Y264903D01*
X778479Y266138D01*
Y275980D01*
X778358Y277215D01*
X777997Y278403D01*
X777413Y279497D01*
X776625Y280456D01*
X775666Y281243D01*
X774572Y281828D01*
X773385Y282188D01*
X772150Y282310D01*
D02*
G37*
G36*
X968100Y266968D02*
X966969Y266819D01*
X965916Y266383D01*
X965011Y265689D01*
X964317Y264784D01*
X963881Y263731D01*
X963732Y262600D01*
X963881Y261470D01*
X964317Y260416D01*
X965011Y259511D01*
X965916Y258817D01*
X966969Y258381D01*
X968100Y258232D01*
X969230Y258381D01*
X970284Y258817D01*
X971189Y259511D01*
X971883Y260416D01*
X972319Y261470D01*
X972468Y262600D01*
X972319Y263731D01*
X971883Y264784D01*
X971189Y265689D01*
X970284Y266383D01*
X969230Y266819D01*
X968100Y266968D01*
D02*
G37*
G36*
X966100Y254368D02*
X964970Y254219D01*
X963916Y253783D01*
X963011Y253089D01*
X962317Y252184D01*
X961881Y251131D01*
X961732Y250000D01*
X961881Y248869D01*
X962317Y247816D01*
X963011Y246911D01*
X963916Y246217D01*
X964970Y245781D01*
X966100Y245632D01*
X967231Y245781D01*
X968284Y246217D01*
X969189Y246911D01*
X969883Y247816D01*
X970319Y248869D01*
X970468Y250000D01*
X970319Y251131D01*
X969883Y252184D01*
X969189Y253089D01*
X968284Y253783D01*
X967231Y254219D01*
X966100Y254368D01*
D02*
G37*
G36*
X879000Y246357D02*
X877612Y246174D01*
X876320Y245639D01*
X875209Y244787D01*
X874357Y243676D01*
X873822Y242384D01*
X873639Y240996D01*
X873822Y239609D01*
X874357Y238316D01*
X875209Y237205D01*
X876320Y236353D01*
X877612Y235818D01*
X879000Y235635D01*
X880387Y235818D01*
X881680Y236353D01*
X882791Y237205D01*
X883643Y238316D01*
X884178Y239609D01*
X884361Y240996D01*
X884178Y242384D01*
X883643Y243676D01*
X882791Y244787D01*
X881680Y245639D01*
X880387Y246174D01*
X879000Y246357D01*
D02*
G37*
G36*
X966300Y243068D02*
X965170Y242919D01*
X964116Y242483D01*
X963211Y241789D01*
X962517Y240884D01*
X962081Y239830D01*
X961932Y238700D01*
X962081Y237569D01*
X962517Y236516D01*
X963211Y235611D01*
X964116Y234917D01*
X965170Y234481D01*
X966300Y234332D01*
X967430Y234481D01*
X968484Y234917D01*
X969389Y235611D01*
X970083Y236516D01*
X970519Y237569D01*
X970668Y238700D01*
X970519Y239830D01*
X970083Y240884D01*
X969389Y241789D01*
X968484Y242483D01*
X967430Y242919D01*
X966300Y243068D01*
D02*
G37*
G36*
X743504Y242123D02*
X741883Y241963D01*
X740325Y241490D01*
X738888Y240722D01*
X737630Y239689D01*
X736596Y238430D01*
X735829Y236994D01*
X735356Y235436D01*
X735196Y233815D01*
X735356Y232194D01*
X735829Y230636D01*
X736596Y229199D01*
X737630Y227940D01*
X738888Y226907D01*
X740325Y226139D01*
X741883Y225667D01*
X743504Y225507D01*
X745125Y225667D01*
X746683Y226139D01*
X748119Y226907D01*
X749378Y227940D01*
X750412Y229199D01*
X751179Y230636D01*
X751652Y232194D01*
X751812Y233815D01*
X751652Y235436D01*
X751179Y236994D01*
X750412Y238430D01*
X749378Y239689D01*
X748119Y240722D01*
X746683Y241490D01*
X745125Y241963D01*
X743504Y242123D01*
D02*
G37*
G36*
X967400Y231868D02*
X966269Y231719D01*
X965216Y231283D01*
X964311Y230589D01*
X963617Y229684D01*
X963181Y228630D01*
X963032Y227500D01*
X963181Y226370D01*
X963617Y225316D01*
X964311Y224411D01*
X965216Y223717D01*
X966269Y223281D01*
X967400Y223132D01*
X968530Y223281D01*
X969584Y223717D01*
X970489Y224411D01*
X971183Y225316D01*
X971619Y226370D01*
X971768Y227500D01*
X971619Y228630D01*
X971183Y229684D01*
X970489Y230589D01*
X969584Y231283D01*
X968530Y231719D01*
X967400Y231868D01*
D02*
G37*
G36*
X879000Y224861D02*
X877612Y224678D01*
X876320Y224143D01*
X875209Y223291D01*
X874357Y222180D01*
X873822Y220887D01*
X873639Y219500D01*
X873822Y218112D01*
X874357Y216820D01*
X875209Y215709D01*
X876320Y214857D01*
X877612Y214322D01*
X879000Y214139D01*
X880387Y214322D01*
X881680Y214857D01*
X882791Y215709D01*
X883643Y216820D01*
X884178Y218112D01*
X884361Y219500D01*
X884178Y220887D01*
X883643Y222180D01*
X882791Y223291D01*
X881680Y224143D01*
X880387Y224678D01*
X879000Y224861D01*
D02*
G37*
G36*
X967400Y221068D02*
X966269Y220919D01*
X965216Y220483D01*
X964311Y219789D01*
X963617Y218884D01*
X963181Y217830D01*
X963032Y216700D01*
X963181Y215569D01*
X963617Y214516D01*
X964311Y213611D01*
X965216Y212917D01*
X966269Y212481D01*
X967400Y212332D01*
X968530Y212481D01*
X969584Y212917D01*
X970489Y213611D01*
X971183Y214516D01*
X971619Y215569D01*
X971768Y216700D01*
X971619Y217830D01*
X971183Y218884D01*
X970489Y219789D01*
X969584Y220483D01*
X968530Y220919D01*
X967400Y221068D01*
D02*
G37*
G36*
X830650Y234310D02*
X829415Y234188D01*
X828227Y233828D01*
X827133Y233243D01*
X826174Y232456D01*
X825387Y231497D01*
X824802Y230403D01*
X824442Y229215D01*
X824320Y227980D01*
Y218138D01*
X824442Y216903D01*
X824802Y215716D01*
X825387Y214621D01*
X826174Y213662D01*
X827133Y212875D01*
X828227Y212290D01*
X829415Y211930D01*
X830650Y211808D01*
X831884Y211930D01*
X833072Y212290D01*
X834166Y212875D01*
X835125Y213662D01*
X835913Y214621D01*
X836497Y215716D01*
X836858Y216903D01*
X836979Y218138D01*
Y227980D01*
X836858Y229215D01*
X836497Y230403D01*
X835913Y231497D01*
X835125Y232456D01*
X834166Y233243D01*
X833072Y233828D01*
X831884Y234188D01*
X830650Y234310D01*
D02*
G37*
G36*
X969500Y201068D02*
X968369Y200919D01*
X967316Y200483D01*
X966411Y199789D01*
X965717Y198884D01*
X965281Y197830D01*
X965132Y196700D01*
X965281Y195570D01*
X965717Y194516D01*
X966411Y193611D01*
X967316Y192917D01*
X968369Y192481D01*
X969500Y192332D01*
X970630Y192481D01*
X971684Y192917D01*
X972589Y193611D01*
X973283Y194516D01*
X973719Y195570D01*
X973868Y196700D01*
X973719Y197830D01*
X973283Y198884D01*
X972589Y199789D01*
X971684Y200483D01*
X970630Y200919D01*
X969500Y201068D01*
D02*
G37*
G36*
X911472Y209340D02*
X909659Y209161D01*
X907915Y208632D01*
X906308Y207773D01*
X904899Y206617D01*
X903743Y205208D01*
X902883Y203601D01*
X902354Y201857D01*
X902176Y200043D01*
X902354Y198230D01*
X902883Y196486D01*
X903743Y194878D01*
X904899Y193470D01*
X906308Y192313D01*
X907915Y191454D01*
X909659Y190925D01*
X911472Y190747D01*
X913286Y190925D01*
X915030Y191454D01*
X916637Y192313D01*
X918046Y193470D01*
X919202Y194878D01*
X920061Y196486D01*
X920591Y198230D01*
X920769Y200043D01*
X920591Y201857D01*
X920061Y203601D01*
X919202Y205208D01*
X918046Y206617D01*
X916637Y207773D01*
X915030Y208632D01*
X913286Y209161D01*
X911472Y209340D01*
D02*
G37*
G36*
X970100Y189968D02*
X968970Y189819D01*
X967916Y189383D01*
X967011Y188689D01*
X966317Y187784D01*
X965881Y186731D01*
X965732Y185600D01*
X965881Y184469D01*
X966317Y183416D01*
X967011Y182511D01*
X967916Y181817D01*
X968970Y181381D01*
X970100Y181232D01*
X971231Y181381D01*
X972284Y181817D01*
X973189Y182511D01*
X973883Y183416D01*
X974319Y184469D01*
X974468Y185600D01*
X974319Y186731D01*
X973883Y187784D01*
X973189Y188689D01*
X972284Y189383D01*
X971231Y189819D01*
X970100Y189968D01*
D02*
G37*
G36*
X972000Y179368D02*
X970870Y179219D01*
X969816Y178783D01*
X968911Y178089D01*
X968217Y177184D01*
X967781Y176130D01*
X967632Y175000D01*
X967781Y173870D01*
X968217Y172816D01*
X968911Y171911D01*
X969816Y171217D01*
X970870Y170781D01*
X972000Y170632D01*
X973131Y170781D01*
X974184Y171217D01*
X975089Y171911D01*
X975783Y172816D01*
X976219Y173870D01*
X976368Y175000D01*
X976219Y176130D01*
X975783Y177184D01*
X975089Y178089D01*
X974184Y178783D01*
X973131Y179219D01*
X972000Y179368D01*
D02*
G37*
G36*
X957134Y178904D02*
X955899Y178783D01*
X954712Y178423D01*
X953617Y177838D01*
X952658Y177051D01*
X951871Y176091D01*
X951286Y174997D01*
X950926Y173810D01*
X950804Y172575D01*
X950926Y171340D01*
X951286Y170152D01*
X951871Y169058D01*
X952658Y168099D01*
X953617Y167312D01*
X954712Y166727D01*
X955899Y166367D01*
X957134Y166245D01*
X958369Y166367D01*
X959556Y166727D01*
X960650Y167312D01*
X961610Y168099D01*
X962397Y169058D01*
X962982Y170152D01*
X963342Y171340D01*
X963464Y172575D01*
X963342Y173810D01*
X962982Y174997D01*
X962397Y176091D01*
X961610Y177051D01*
X960650Y177838D01*
X959556Y178423D01*
X958369Y178783D01*
X957134Y178904D01*
D02*
G37*
G36*
X972700Y167768D02*
X971570Y167619D01*
X970516Y167183D01*
X969611Y166489D01*
X968917Y165584D01*
X968481Y164531D01*
X968332Y163400D01*
X968481Y162269D01*
X968917Y161216D01*
X969611Y160311D01*
X970516Y159617D01*
X971570Y159181D01*
X972700Y159032D01*
X973831Y159181D01*
X974884Y159617D01*
X975789Y160311D01*
X976483Y161216D01*
X976919Y162269D01*
X977068Y163400D01*
X976919Y164531D01*
X976483Y165584D01*
X975789Y166489D01*
X974884Y167183D01*
X973831Y167619D01*
X972700Y167768D01*
D02*
G37*
G36*
X772776Y179192D02*
X771541Y179070D01*
X770353Y178710D01*
X769259Y178125D01*
X768300Y177338D01*
X767513Y176379D01*
X766928Y175285D01*
X766568Y174097D01*
X766446Y172862D01*
Y163020D01*
X766568Y161785D01*
X766928Y160597D01*
X767513Y159503D01*
X768300Y158544D01*
X769259Y157757D01*
X770353Y157172D01*
X771541Y156812D01*
X772776Y156690D01*
X774010Y156812D01*
X775198Y157172D01*
X776292Y157757D01*
X777251Y158544D01*
X778039Y159503D01*
X778623Y160597D01*
X778984Y161785D01*
X779105Y163020D01*
Y172862D01*
X778984Y174097D01*
X778623Y175285D01*
X778039Y176379D01*
X777251Y177338D01*
X776292Y178125D01*
X775198Y178710D01*
X774010Y179070D01*
X772776Y179192D01*
D02*
G37*
G36*
X743504Y170052D02*
X741883Y169892D01*
X740325Y169419D01*
X738888Y168652D01*
X737630Y167619D01*
X736596Y166360D01*
X735829Y164923D01*
X735356Y163365D01*
X735196Y161744D01*
X735356Y160123D01*
X735829Y158565D01*
X736596Y157129D01*
X737630Y155870D01*
X738888Y154836D01*
X740325Y154069D01*
X741883Y153596D01*
X743504Y153436D01*
X745125Y153596D01*
X746683Y154069D01*
X748119Y154836D01*
X749378Y155870D01*
X750412Y157129D01*
X751179Y158565D01*
X751652Y160123D01*
X751812Y161744D01*
X751652Y163365D01*
X751179Y164923D01*
X750412Y166360D01*
X749378Y167619D01*
X748119Y168652D01*
X746683Y169419D01*
X745125Y169892D01*
X743504Y170052D01*
D02*
G37*
G36*
X971800Y156968D02*
X970669Y156819D01*
X969616Y156383D01*
X968711Y155689D01*
X968017Y154784D01*
X967581Y153730D01*
X967432Y152600D01*
X967581Y151470D01*
X968017Y150416D01*
X968711Y149511D01*
X969616Y148817D01*
X970669Y148381D01*
X971800Y148232D01*
X972931Y148381D01*
X973984Y148817D01*
X974889Y149511D01*
X975583Y150416D01*
X976019Y151470D01*
X976168Y152600D01*
X976019Y153730D01*
X975583Y154784D01*
X974889Y155689D01*
X973984Y156383D01*
X972931Y156819D01*
X971800Y156968D01*
D02*
G37*
G36*
X955854Y158056D02*
X954716Y157943D01*
X953621Y157612D01*
X952612Y157072D01*
X951728Y156347D01*
X951003Y155462D01*
X950463Y154454D01*
X950131Y153359D01*
X950019Y152220D01*
X950131Y151082D01*
X950463Y149987D01*
X951003Y148979D01*
X951728Y148094D01*
X952612Y147369D01*
X953621Y146829D01*
X954716Y146497D01*
X955854Y146385D01*
X956993Y146497D01*
X958087Y146829D01*
X959096Y147369D01*
X959980Y148094D01*
X960706Y148979D01*
X961245Y149987D01*
X961577Y151082D01*
X961689Y152220D01*
X961577Y153359D01*
X961245Y154454D01*
X960706Y155462D01*
X959980Y156347D01*
X959096Y157072D01*
X958087Y157612D01*
X956993Y157943D01*
X955854Y158056D01*
D02*
G37*
G36*
X971700Y146268D02*
X970570Y146119D01*
X969516Y145683D01*
X968611Y144989D01*
X967917Y144084D01*
X967481Y143031D01*
X967332Y141900D01*
X967481Y140770D01*
X967917Y139716D01*
X968611Y138811D01*
X969516Y138117D01*
X970570Y137681D01*
X971700Y137532D01*
X972830Y137681D01*
X973884Y138117D01*
X974789Y138811D01*
X975483Y139716D01*
X975919Y140770D01*
X976068Y141900D01*
X975919Y143031D01*
X975483Y144084D01*
X974789Y144989D01*
X973884Y145683D01*
X972830Y146119D01*
X971700Y146268D01*
D02*
G37*
G36*
X972100Y134568D02*
X970969Y134419D01*
X969916Y133983D01*
X969011Y133289D01*
X968317Y132384D01*
X967881Y131331D01*
X967732Y130200D01*
X967881Y129069D01*
X968317Y128016D01*
X969011Y127111D01*
X969916Y126417D01*
X970969Y125981D01*
X972100Y125832D01*
X973230Y125981D01*
X974284Y126417D01*
X975189Y127111D01*
X975883Y128016D01*
X976319Y129069D01*
X976468Y130200D01*
X976319Y131331D01*
X975883Y132384D01*
X975189Y133289D01*
X974284Y133983D01*
X973230Y134419D01*
X972100Y134568D01*
D02*
G37*
G36*
X955854Y135615D02*
X954716Y135503D01*
X953621Y135170D01*
X952612Y134631D01*
X951728Y133906D01*
X951003Y133021D01*
X950463Y132013D01*
X950131Y130918D01*
X950019Y129780D01*
X950131Y128641D01*
X950463Y127547D01*
X951003Y126538D01*
X951728Y125653D01*
X952612Y124928D01*
X953621Y124389D01*
X954716Y124056D01*
X955854Y123944D01*
X956993Y124056D01*
X958087Y124389D01*
X959096Y124928D01*
X959980Y125653D01*
X960706Y126538D01*
X961245Y127547D01*
X961577Y128641D01*
X961689Y129780D01*
X961577Y130918D01*
X961245Y132013D01*
X960706Y133021D01*
X959980Y133906D01*
X959096Y134631D01*
X958087Y135170D01*
X956993Y135503D01*
X955854Y135615D01*
D02*
G37*
G36*
X783630Y137393D02*
X782202Y137253D01*
X780829Y136836D01*
X779564Y136160D01*
X778455Y135250D01*
X777545Y134141D01*
X776868Y132876D01*
X776452Y131503D01*
X776311Y130075D01*
X776452Y128647D01*
X776868Y127274D01*
X777545Y126009D01*
X778455Y124900D01*
X779564Y123989D01*
X780829Y123313D01*
X782202Y122897D01*
X783630Y122756D01*
X785058Y122897D01*
X786431Y123313D01*
X787696Y123989D01*
X788805Y124900D01*
X789715Y126009D01*
X790391Y127274D01*
X790808Y128647D01*
X790949Y130075D01*
X790808Y131503D01*
X790391Y132876D01*
X789715Y134141D01*
X788805Y135250D01*
X787696Y136160D01*
X786431Y136836D01*
X785058Y137253D01*
X783630Y137393D01*
D02*
G37*
G36*
X972700Y123268D02*
X971570Y123119D01*
X970516Y122683D01*
X969611Y121989D01*
X968917Y121084D01*
X968481Y120030D01*
X968332Y118900D01*
X968481Y117770D01*
X968917Y116716D01*
X969611Y115811D01*
X970516Y115117D01*
X971570Y114681D01*
X972700Y114532D01*
X973831Y114681D01*
X974884Y115117D01*
X975789Y115811D01*
X976483Y116716D01*
X976919Y117770D01*
X977068Y118900D01*
X976919Y120030D01*
X976483Y121084D01*
X975789Y121989D01*
X974884Y122683D01*
X973831Y123119D01*
X972700Y123268D01*
D02*
G37*
G36*
X743504Y120052D02*
X741883Y119892D01*
X740325Y119419D01*
X738888Y118652D01*
X737630Y117619D01*
X736596Y116360D01*
X735829Y114923D01*
X735356Y113365D01*
X735196Y111744D01*
X735356Y110123D01*
X735829Y108565D01*
X736596Y107129D01*
X737630Y105870D01*
X738888Y104836D01*
X740325Y104069D01*
X741883Y103596D01*
X743504Y103436D01*
X745125Y103596D01*
X746683Y104069D01*
X748119Y104836D01*
X749378Y105870D01*
X750412Y107129D01*
X751179Y108565D01*
X751652Y110123D01*
X751812Y111744D01*
X751652Y113365D01*
X751179Y114923D01*
X750412Y116360D01*
X749378Y117619D01*
X748119Y118652D01*
X746683Y119419D01*
X745125Y119892D01*
X743504Y120052D01*
D02*
G37*
G36*
X957134Y115755D02*
X955899Y115633D01*
X954712Y115273D01*
X953617Y114688D01*
X952658Y113901D01*
X951871Y112942D01*
X951286Y111847D01*
X950926Y110660D01*
X950804Y109425D01*
X950926Y108190D01*
X951286Y107003D01*
X951871Y105909D01*
X952658Y104949D01*
X953617Y104162D01*
X954712Y103577D01*
X955899Y103217D01*
X957134Y103095D01*
X958369Y103217D01*
X959556Y103577D01*
X960650Y104162D01*
X961610Y104949D01*
X962397Y105909D01*
X962982Y107003D01*
X963342Y108190D01*
X963464Y109425D01*
X963342Y110660D01*
X962982Y111847D01*
X962397Y112942D01*
X961610Y113901D01*
X960650Y114688D01*
X959556Y115273D01*
X958369Y115633D01*
X957134Y115755D01*
D02*
G37*
G36*
X973400Y111568D02*
X972270Y111419D01*
X971216Y110983D01*
X970311Y110289D01*
X969617Y109384D01*
X969181Y108331D01*
X969032Y107200D01*
X969181Y106070D01*
X969617Y105016D01*
X970311Y104111D01*
X971216Y103417D01*
X972270Y102981D01*
X973400Y102832D01*
X974531Y102981D01*
X975584Y103417D01*
X976489Y104111D01*
X977183Y105016D01*
X977619Y106070D01*
X977768Y107200D01*
X977619Y108331D01*
X977183Y109384D01*
X976489Y110289D01*
X975584Y110983D01*
X974531Y111419D01*
X973400Y111568D01*
D02*
G37*
G36*
X804150Y108832D02*
X803173Y108703D01*
X802263Y108326D01*
X801482Y107727D01*
X800883Y106945D01*
X800506Y106035D01*
X800377Y105059D01*
X800506Y104083D01*
X800883Y103173D01*
X801482Y102392D01*
X802263Y101792D01*
X803173Y101415D01*
X804150Y101287D01*
X805126Y101415D01*
X806036Y101792D01*
X806817Y102392D01*
X807417Y103173D01*
X807794Y104083D01*
X807922Y105059D01*
X807794Y106035D01*
X807417Y106945D01*
X806817Y107727D01*
X806036Y108326D01*
X805126Y108703D01*
X804150Y108832D01*
D02*
G37*
G36*
X807890Y98957D02*
X800410D01*
Y91476D01*
X807890D01*
Y98957D01*
D02*
G37*
G36*
X973600Y99168D02*
X972470Y99019D01*
X971416Y98583D01*
X970511Y97889D01*
X969817Y96984D01*
X969381Y95930D01*
X969232Y94800D01*
X969381Y93669D01*
X969817Y92616D01*
X970511Y91711D01*
X971416Y91017D01*
X972470Y90581D01*
X973600Y90432D01*
X974730Y90581D01*
X975784Y91017D01*
X976689Y91711D01*
X977383Y92616D01*
X977819Y93669D01*
X977968Y94800D01*
X977819Y95930D01*
X977383Y96984D01*
X976689Y97889D01*
X975784Y98583D01*
X974730Y99019D01*
X973600Y99168D01*
D02*
G37*
G36*
X974300Y87168D02*
X973170Y87019D01*
X972116Y86583D01*
X971211Y85889D01*
X970517Y84984D01*
X970081Y83930D01*
X969932Y82800D01*
X970081Y81669D01*
X970517Y80616D01*
X971211Y79711D01*
X972116Y79017D01*
X973170Y78581D01*
X974300Y78432D01*
X975430Y78581D01*
X976484Y79017D01*
X977389Y79711D01*
X978083Y80616D01*
X978519Y81669D01*
X978668Y82800D01*
X978519Y83930D01*
X978083Y84984D01*
X977389Y85889D01*
X976484Y86583D01*
X975430Y87019D01*
X974300Y87168D01*
D02*
G37*
G36*
X783630Y87393D02*
X782202Y87253D01*
X780829Y86836D01*
X779564Y86160D01*
X778455Y85250D01*
X777545Y84141D01*
X776868Y82876D01*
X776452Y81503D01*
X776311Y80075D01*
X776452Y78647D01*
X776868Y77274D01*
X777545Y76009D01*
X778455Y74900D01*
X779564Y73989D01*
X780829Y73313D01*
X782202Y72897D01*
X783630Y72756D01*
X785058Y72897D01*
X786431Y73313D01*
X787696Y73989D01*
X788805Y74900D01*
X789715Y76009D01*
X790391Y77274D01*
X790808Y78647D01*
X790949Y80075D01*
X790808Y81503D01*
X790391Y82876D01*
X789715Y84141D01*
X788805Y85250D01*
X787696Y86160D01*
X786431Y86836D01*
X785058Y87253D01*
X783630Y87393D01*
D02*
G37*
G36*
X872126Y105433D02*
X869989Y105293D01*
X867888Y104875D01*
X865860Y104186D01*
X863939Y103239D01*
X862158Y102049D01*
X860548Y100637D01*
X859136Y99027D01*
X857946Y97246D01*
X856999Y95325D01*
X856310Y93297D01*
X855892Y91196D01*
X855752Y89059D01*
X855892Y86922D01*
X856310Y84821D01*
X856999Y82793D01*
X857946Y80872D01*
X859136Y79091D01*
X860548Y77481D01*
X862158Y76069D01*
X863939Y74879D01*
X865860Y73932D01*
X867888Y73243D01*
X869989Y72825D01*
X872126Y72685D01*
X874263Y72825D01*
X876364Y73243D01*
X878392Y73932D01*
X880313Y74879D01*
X882094Y76069D01*
X883704Y77481D01*
X885116Y79091D01*
X886306Y80872D01*
X887253Y82793D01*
X887942Y84821D01*
X888360Y86922D01*
X888500Y89059D01*
X888360Y91196D01*
X887942Y93297D01*
X887253Y95325D01*
X886306Y97246D01*
X885116Y99027D01*
X883704Y100637D01*
X882094Y102049D01*
X880313Y103239D01*
X878392Y104186D01*
X876364Y104875D01*
X874263Y105293D01*
X872126Y105433D01*
D02*
G37*
G36*
X975900Y72968D02*
X974769Y72819D01*
X973716Y72383D01*
X972811Y71689D01*
X972117Y70784D01*
X971681Y69731D01*
X971532Y68600D01*
X971681Y67470D01*
X972117Y66416D01*
X972811Y65511D01*
X973716Y64817D01*
X974769Y64381D01*
X975900Y64232D01*
X977030Y64381D01*
X978084Y64817D01*
X978989Y65511D01*
X979683Y66416D01*
X980119Y67470D01*
X980268Y68600D01*
X980119Y69731D01*
X979683Y70784D01*
X978989Y71689D01*
X978084Y72383D01*
X977030Y72819D01*
X975900Y72968D01*
D02*
G37*
G36*
X743504Y70052D02*
X741883Y69892D01*
X740325Y69419D01*
X738888Y68652D01*
X737630Y67619D01*
X736596Y66360D01*
X735829Y64923D01*
X735356Y63365D01*
X735196Y61744D01*
X735356Y60123D01*
X735829Y58565D01*
X736596Y57129D01*
X737630Y55870D01*
X738888Y54836D01*
X740325Y54069D01*
X741883Y53596D01*
X743504Y53436D01*
X745125Y53596D01*
X746683Y54069D01*
X748119Y54836D01*
X749378Y55870D01*
X750412Y57129D01*
X751179Y58565D01*
X751652Y60123D01*
X751812Y61744D01*
X751652Y63365D01*
X751179Y64923D01*
X750412Y66360D01*
X749378Y67619D01*
X748119Y68652D01*
X746683Y69419D01*
X745125Y69892D01*
X743504Y70052D01*
D02*
G37*
G36*
X969800Y60368D02*
X968670Y60219D01*
X967616Y59783D01*
X966711Y59089D01*
X966017Y58184D01*
X965581Y57130D01*
X965432Y56000D01*
X965581Y54870D01*
X966017Y53816D01*
X966711Y52911D01*
X967616Y52217D01*
X968670Y51781D01*
X969800Y51632D01*
X970930Y51781D01*
X971984Y52217D01*
X972889Y52911D01*
X973583Y53816D01*
X974019Y54870D01*
X974168Y56000D01*
X974019Y57130D01*
X973583Y58184D01*
X972889Y59089D01*
X971984Y59783D01*
X970930Y60219D01*
X969800Y60368D01*
D02*
G37*
G36*
X953984Y46484D02*
X947016D01*
Y39516D01*
X953984D01*
Y46484D01*
D02*
G37*
G36*
X962311Y38202D02*
X961556Y38103D01*
X960852Y37811D01*
X960247Y37347D01*
X959783Y36743D01*
X959492Y36039D01*
X959392Y35283D01*
X959492Y34528D01*
X959783Y33824D01*
X960247Y33220D01*
X960852Y32756D01*
X961556Y32464D01*
X962311Y32365D01*
X963066Y32464D01*
X963770Y32756D01*
X964375Y33220D01*
X964839Y33824D01*
X965130Y34528D01*
X965230Y35283D01*
X965130Y36039D01*
X964839Y36743D01*
X964375Y37347D01*
X963770Y37811D01*
X963066Y38103D01*
X962311Y38202D01*
D02*
G37*
G36*
X926878D02*
X926122Y38103D01*
X925419Y37811D01*
X924814Y37347D01*
X924350Y36743D01*
X924059Y36039D01*
X923959Y35283D01*
X924059Y34528D01*
X924350Y33824D01*
X924814Y33220D01*
X925419Y32756D01*
X926122Y32464D01*
X926878Y32365D01*
X927633Y32464D01*
X928337Y32756D01*
X928942Y33220D01*
X929406Y33824D01*
X929697Y34528D01*
X929797Y35283D01*
X929697Y36039D01*
X929406Y36743D01*
X928942Y37347D01*
X928337Y37811D01*
X927633Y38103D01*
X926878Y38202D01*
D02*
G37*
%LPD*%
G36*
X975740Y376390D02*
Y370105D01*
X975263Y369951D01*
X975123Y370288D01*
X974587Y370987D01*
X925587Y419987D01*
X925147Y420324D01*
X925317Y420824D01*
X931306D01*
X975740Y376390D01*
D02*
G37*
%LPC*%
G36*
X660200Y491119D02*
X659445Y491019D01*
X658741Y490728D01*
X658136Y490264D01*
X657672Y489659D01*
X657400Y489003D01*
X603100D01*
X603100Y489003D01*
X602793Y488942D01*
X602532Y488768D01*
X602532Y488768D01*
X553522Y439758D01*
X553422Y439825D01*
X552500Y440008D01*
X551578Y439825D01*
X550797Y439303D01*
X550275Y438522D01*
X550092Y437600D01*
X550275Y436678D01*
X550797Y435897D01*
X551578Y435375D01*
X552500Y435191D01*
X553370Y435364D01*
X553504Y435253D01*
X553701Y434960D01*
X553475Y434622D01*
X553292Y433700D01*
X553475Y432778D01*
X553997Y431997D01*
X554778Y431475D01*
X555700Y431291D01*
X556622Y431475D01*
X557403Y431997D01*
X557925Y432778D01*
X558109Y433700D01*
X557925Y434622D01*
X557403Y435403D01*
X557119Y435593D01*
X557063Y436228D01*
X604532Y483697D01*
X648868D01*
X649197Y483321D01*
X649181Y483200D01*
X649281Y482445D01*
X649572Y481741D01*
X650036Y481136D01*
X650641Y480672D01*
X651345Y480381D01*
X652100Y480281D01*
X652855Y480381D01*
X653559Y480672D01*
X654164Y481136D01*
X654628Y481741D01*
X654919Y482445D01*
X655019Y483200D01*
X654919Y483955D01*
X654628Y484659D01*
X654164Y485264D01*
X653559Y485728D01*
X652855Y486019D01*
X652100Y486119D01*
X651345Y486019D01*
X650641Y485728D01*
X650036Y485264D01*
X650002Y485219D01*
X649967Y485242D01*
X649660Y485303D01*
X604200D01*
X604200Y485303D01*
X603893Y485242D01*
X603632Y485068D01*
X603632Y485068D01*
X555422Y436857D01*
X555248Y436597D01*
X555187Y436290D01*
Y436250D01*
X554984Y436166D01*
X554653Y436570D01*
X554725Y436678D01*
X554909Y437600D01*
X554725Y438522D01*
X554658Y438623D01*
X603433Y487397D01*
X657400D01*
X657672Y486741D01*
X658136Y486136D01*
X658741Y485672D01*
X659445Y485381D01*
X660200Y485281D01*
X660955Y485381D01*
X661659Y485672D01*
X662264Y486136D01*
X662728Y486741D01*
X663019Y487445D01*
X663119Y488200D01*
X663019Y488955D01*
X662728Y489659D01*
X662264Y490264D01*
X661659Y490728D01*
X660955Y491019D01*
X660200Y491119D01*
D02*
G37*
G36*
X658400Y481319D02*
X657645Y481219D01*
X656941Y480928D01*
X656336Y480464D01*
X655872Y479859D01*
X655581Y479155D01*
X655508Y478605D01*
X608612D01*
X608074Y478498D01*
X607618Y478194D01*
X599810Y470385D01*
X599755Y470407D01*
X599000Y470507D01*
X598245Y470407D01*
X597541Y470116D01*
X596936Y469652D01*
X596472Y469047D01*
X596181Y468344D01*
X596081Y467588D01*
X596181Y466833D01*
X596472Y466129D01*
X596936Y465524D01*
X597541Y465061D01*
X598245Y464769D01*
X599000Y464670D01*
X599755Y464769D01*
X600459Y465061D01*
X601064Y465524D01*
X601528Y466129D01*
X601819Y466833D01*
X601919Y467588D01*
X601819Y468344D01*
X601797Y468398D01*
X609194Y475795D01*
X656380D01*
X656905Y475900D01*
X656941Y475872D01*
X657645Y475581D01*
X658400Y475481D01*
X659155Y475581D01*
X659859Y475872D01*
X660464Y476336D01*
X660928Y476941D01*
X661219Y477645D01*
X661319Y478400D01*
X661219Y479155D01*
X660928Y479859D01*
X660464Y480464D01*
X659859Y480928D01*
X659155Y481219D01*
X658400Y481319D01*
D02*
G37*
G36*
X598300Y463619D02*
X597545Y463519D01*
X596841Y463228D01*
X596236Y462764D01*
X595772Y462159D01*
X595481Y461455D01*
X595381Y460700D01*
X595481Y459945D01*
X595772Y459241D01*
X596236Y458636D01*
X596841Y458172D01*
X597545Y457881D01*
X598300Y457781D01*
X599055Y457881D01*
X599759Y458172D01*
X600364Y458636D01*
X600828Y459241D01*
X601119Y459945D01*
X601219Y460700D01*
X601119Y461455D01*
X600828Y462159D01*
X600364Y462764D01*
X599759Y463228D01*
X599055Y463519D01*
X598300Y463619D01*
D02*
G37*
G36*
X498650Y471433D02*
X496512Y471293D01*
X494412Y470875D01*
X492384Y470186D01*
X490463Y469239D01*
X488682Y468049D01*
X487072Y466637D01*
X485660Y465027D01*
X484470Y463246D01*
X483522Y461325D01*
X482834Y459297D01*
X482416Y457196D01*
X482276Y455059D01*
X482416Y452922D01*
X482834Y450821D01*
X483522Y448793D01*
X484470Y446872D01*
X485660Y445091D01*
X487072Y443481D01*
X488682Y442069D01*
X490463Y440879D01*
X492384Y439932D01*
X494412Y439243D01*
X496512Y438826D01*
X498650Y438685D01*
X500787Y438826D01*
X502887Y439243D01*
X504916Y439932D01*
X506836Y440879D01*
X508617Y442069D01*
X510227Y443481D01*
X511640Y445091D01*
X512830Y446872D01*
X513777Y448793D01*
X514465Y450821D01*
X514883Y452922D01*
X515023Y455059D01*
X514883Y457196D01*
X514465Y459297D01*
X513777Y461325D01*
X512830Y463246D01*
X511640Y465027D01*
X510227Y466637D01*
X508617Y468049D01*
X506836Y469239D01*
X504916Y470186D01*
X502887Y470875D01*
X500787Y471293D01*
X498650Y471433D01*
D02*
G37*
G36*
X613596Y455240D02*
X611744Y455058D01*
X609963Y454517D01*
X608322Y453640D01*
X606883Y452459D01*
X605702Y451020D01*
X604825Y449379D01*
X604284Y447598D01*
X604102Y445746D01*
X604284Y443893D01*
X604825Y442112D01*
X605702Y440471D01*
X606883Y439032D01*
X608322Y437851D01*
X609963Y436974D01*
X611744Y436433D01*
X613596Y436251D01*
X615449Y436433D01*
X617230Y436974D01*
X618871Y437851D01*
X620310Y439032D01*
X621491Y440471D01*
X622368Y442112D01*
X622908Y443893D01*
X623091Y445746D01*
X622908Y447598D01*
X622368Y449379D01*
X621491Y451020D01*
X620310Y452459D01*
X618871Y453640D01*
X617230Y454517D01*
X615449Y455058D01*
X613596Y455240D01*
D02*
G37*
G36*
X592900Y430019D02*
X592145Y429919D01*
X591441Y429628D01*
X590836Y429164D01*
X590372Y428559D01*
X590081Y427855D01*
X589981Y427100D01*
X590081Y426345D01*
X590372Y425641D01*
X590836Y425036D01*
X591441Y424572D01*
X592145Y424281D01*
X592900Y424181D01*
X593655Y424281D01*
X594359Y424572D01*
X594473Y424659D01*
X594883Y424344D01*
X594681Y423855D01*
X594581Y423100D01*
X594681Y422345D01*
X594882Y421858D01*
X594490Y421498D01*
X593955Y421719D01*
X593200Y421819D01*
X592445Y421719D01*
X591741Y421428D01*
X591136Y420964D01*
X590672Y420359D01*
X590381Y419655D01*
X590281Y418900D01*
X590381Y418145D01*
X590672Y417441D01*
X591136Y416836D01*
X591741Y416372D01*
X592445Y416081D01*
X593200Y415981D01*
X593955Y416081D01*
X594659Y416372D01*
X595264Y416836D01*
X595728Y417441D01*
X596019Y418145D01*
X596119Y418900D01*
X596019Y419655D01*
X595818Y420142D01*
X596210Y420502D01*
X596745Y420281D01*
X597500Y420181D01*
X598255Y420281D01*
X598959Y420572D01*
X599564Y421036D01*
X600028Y421641D01*
X600319Y422345D01*
X600419Y423100D01*
X600319Y423855D01*
X600028Y424559D01*
X599564Y425164D01*
X598959Y425628D01*
X598255Y425919D01*
X597500Y426019D01*
X596745Y425919D01*
X596041Y425628D01*
X595927Y425541D01*
X595517Y425856D01*
X595719Y426345D01*
X595819Y427100D01*
X595719Y427855D01*
X595428Y428559D01*
X594964Y429164D01*
X594359Y429628D01*
X593655Y429919D01*
X592900Y430019D01*
D02*
G37*
G36*
X602051Y417819D02*
X601296Y417719D01*
X600592Y417428D01*
X599987Y416964D01*
X599523Y416359D01*
X599232Y415655D01*
X599132Y414900D01*
X599232Y414145D01*
X599523Y413441D01*
X599987Y412836D01*
X600592Y412372D01*
X601296Y412081D01*
X602051Y411981D01*
X602807Y412081D01*
X603457Y412350D01*
X608491Y407316D01*
Y390535D01*
X604465Y386509D01*
X552000D01*
X552000Y386509D01*
X551690Y386448D01*
X551428Y386272D01*
X551428Y386272D01*
X502403Y337247D01*
X501903Y337454D01*
Y338762D01*
X559451Y396310D01*
X598978D01*
X599172Y395841D01*
X599636Y395236D01*
X600241Y394772D01*
X600945Y394481D01*
X601700Y394381D01*
X602455Y394481D01*
X602938Y394681D01*
X603222Y394257D01*
X601149Y392184D01*
X598369D01*
X598062Y392123D01*
X597802Y391949D01*
X597802Y391949D01*
X597232Y391379D01*
X597058Y391119D01*
X596997Y390812D01*
X597058Y390505D01*
X597232Y390244D01*
X597493Y390070D01*
X597800Y390009D01*
X598107Y390070D01*
X598368Y390244D01*
X598702Y390578D01*
X601481D01*
X601788Y390639D01*
X602049Y390813D01*
X606468Y395232D01*
X606642Y395493D01*
X606703Y395800D01*
X606703Y395800D01*
Y399200D01*
X606703Y399200D01*
X606642Y399507D01*
X606468Y399768D01*
X606468Y399768D01*
X603068Y403168D01*
X602807Y403342D01*
X602500Y403403D01*
X597533D01*
X594568Y406368D01*
X594568Y406368D01*
X594307Y406542D01*
X594000Y406603D01*
X593663D01*
X593651Y406601D01*
X593640Y406602D01*
X564339Y405788D01*
X564113Y406269D01*
X565235Y407391D01*
X599254D01*
X599523Y406741D01*
X599987Y406136D01*
X600592Y405672D01*
X601296Y405381D01*
X602051Y405281D01*
X602807Y405381D01*
X603511Y405672D01*
X604115Y406136D01*
X604579Y406741D01*
X604870Y407445D01*
X604970Y408200D01*
X604870Y408955D01*
X604579Y409659D01*
X604115Y410264D01*
X603511Y410728D01*
X602807Y411019D01*
X602051Y411119D01*
X601296Y411019D01*
X600592Y410728D01*
X599987Y410264D01*
X599523Y409659D01*
X599254Y409009D01*
X564900D01*
X564900Y409009D01*
X564590Y408948D01*
X564328Y408772D01*
X564328Y408772D01*
X496828Y341272D01*
X496652Y341010D01*
X496591Y340700D01*
X496591Y340700D01*
Y268635D01*
X466428Y238472D01*
X466252Y238210D01*
X466191Y237900D01*
X466191Y237900D01*
Y124635D01*
X432328Y90772D01*
X432152Y90510D01*
X432091Y90200D01*
X432091Y90200D01*
Y86100D01*
X432091Y86100D01*
X432152Y85790D01*
X432328Y85528D01*
X436828Y81028D01*
X437090Y80852D01*
X437400Y80791D01*
X444565D01*
X450350Y75006D01*
X450081Y74355D01*
X449981Y73600D01*
X450081Y72845D01*
X450372Y72141D01*
X450836Y71536D01*
X451441Y71072D01*
X452145Y70781D01*
X452900Y70681D01*
X453655Y70781D01*
X454359Y71072D01*
X454964Y71536D01*
X455428Y72141D01*
X455719Y72845D01*
X455819Y73600D01*
X455719Y74355D01*
X455428Y75059D01*
X454964Y75664D01*
X454359Y76128D01*
X453655Y76419D01*
X452900Y76519D01*
X452145Y76419D01*
X451495Y76150D01*
X445472Y82172D01*
X445210Y82348D01*
X444900Y82409D01*
X444900Y82409D01*
X437735D01*
X433709Y86435D01*
Y89865D01*
X467572Y123728D01*
X467572Y123728D01*
X467597Y123765D01*
X468097Y123613D01*
Y119432D01*
X437532Y88868D01*
X437358Y88607D01*
X437297Y88300D01*
X437358Y87993D01*
X437532Y87732D01*
X437793Y87558D01*
X438100Y87497D01*
X438407Y87558D01*
X438668Y87732D01*
X469468Y118532D01*
X469468Y118532D01*
X469597Y118726D01*
X469863Y118720D01*
X470097Y118643D01*
Y84968D01*
X470136Y84771D01*
X469736Y84464D01*
X469272Y83859D01*
X468981Y83155D01*
X468881Y82400D01*
X468981Y81645D01*
X469272Y80941D01*
X469736Y80336D01*
X470341Y79872D01*
X471045Y79581D01*
X471800Y79481D01*
X472555Y79581D01*
X473259Y79872D01*
X473864Y80336D01*
X474328Y80941D01*
X474619Y81645D01*
X474719Y82400D01*
X474619Y83155D01*
X474328Y83859D01*
X473864Y84464D01*
X473259Y84928D01*
X472555Y85219D01*
X471800Y85319D01*
X471703Y85404D01*
Y236667D01*
X501491Y266455D01*
X501991Y266248D01*
Y194300D01*
X501991Y194300D01*
X502052Y193990D01*
X502228Y193728D01*
X551891Y144065D01*
Y76497D01*
X551241Y76228D01*
X550636Y75764D01*
X550172Y75159D01*
X549881Y74455D01*
X549781Y73700D01*
X549881Y72945D01*
X550172Y72241D01*
X550636Y71636D01*
X551241Y71172D01*
X551945Y70881D01*
X552700Y70781D01*
X553455Y70881D01*
X554159Y71172D01*
X554764Y71636D01*
X555228Y72241D01*
X555519Y72945D01*
X555619Y73700D01*
X555519Y74455D01*
X555228Y75159D01*
X554764Y75764D01*
X554159Y76228D01*
X553509Y76497D01*
Y144400D01*
X553509Y144400D01*
X553448Y144710D01*
X553272Y144972D01*
X553272Y144972D01*
X503609Y194635D01*
Y336165D01*
X552335Y384891D01*
X604800D01*
X604800Y384891D01*
X605110Y384952D01*
X605372Y385128D01*
X609872Y389628D01*
X610048Y389890D01*
X610109Y390200D01*
Y407651D01*
X610109Y407651D01*
X610048Y407961D01*
X609872Y408223D01*
X604601Y413494D01*
X604870Y414145D01*
X604970Y414900D01*
X604870Y415655D01*
X604579Y416359D01*
X604115Y416964D01*
X603511Y417428D01*
X602807Y417719D01*
X602051Y417819D01*
D02*
G37*
G36*
X689000Y403971D02*
X687972Y403836D01*
X687014Y403439D01*
X686192Y402808D01*
X685561Y401986D01*
X685164Y401028D01*
X685029Y400000D01*
X685164Y398972D01*
X685561Y398014D01*
X686192Y397192D01*
X687014Y396561D01*
X687972Y396164D01*
X689000Y396029D01*
X690028Y396164D01*
X690985Y396561D01*
X691808Y397192D01*
X692439Y398014D01*
X692836Y398972D01*
X692971Y400000D01*
X692836Y401028D01*
X692439Y401986D01*
X691808Y402808D01*
X690985Y403439D01*
X690028Y403836D01*
X689000Y403971D01*
D02*
G37*
G36*
X600000Y436019D02*
X599245Y435919D01*
X598541Y435628D01*
X597936Y435164D01*
X597472Y434559D01*
X597181Y433855D01*
X597081Y433100D01*
X597181Y432345D01*
X597472Y431641D01*
X597936Y431036D01*
X598541Y430572D01*
X599245Y430281D01*
X600000Y430181D01*
X600755Y430281D01*
X600763Y430284D01*
X678956Y392721D01*
X679072Y392441D01*
X679536Y391836D01*
X680141Y391372D01*
X680845Y391081D01*
X681600Y390981D01*
X682355Y391081D01*
X683059Y391372D01*
X683664Y391836D01*
X684128Y392441D01*
X684419Y393145D01*
X684519Y393900D01*
X684419Y394655D01*
X684128Y395359D01*
X683664Y395964D01*
X683059Y396428D01*
X682355Y396719D01*
X681600Y396819D01*
X680845Y396719D01*
X680837Y396716D01*
X602644Y434279D01*
X602528Y434559D01*
X602064Y435164D01*
X601459Y435628D01*
X600755Y435919D01*
X600000Y436019D01*
D02*
G37*
G36*
X494900Y409295D02*
X493048Y409112D01*
X491267Y408572D01*
X489625Y407694D01*
X488186Y406514D01*
X487006Y405075D01*
X486128Y403433D01*
X485588Y401652D01*
X485405Y399800D01*
X485588Y397948D01*
X486128Y396167D01*
X487006Y394525D01*
X488186Y393086D01*
X489625Y391906D01*
X491267Y391028D01*
X493048Y390488D01*
X494900Y390305D01*
X496752Y390488D01*
X498533Y391028D01*
X500175Y391906D01*
X501614Y393086D01*
X502794Y394525D01*
X503672Y396167D01*
X504212Y397948D01*
X504394Y399800D01*
X504212Y401652D01*
X503672Y403433D01*
X502794Y405075D01*
X501614Y406514D01*
X500175Y407694D01*
X498533Y408572D01*
X496752Y409112D01*
X494900Y409295D01*
D02*
G37*
G36*
X591700Y393219D02*
X590945Y393119D01*
X590241Y392828D01*
X589636Y392364D01*
X589172Y391759D01*
X588881Y391055D01*
X588781Y390300D01*
X588881Y389545D01*
X589172Y388841D01*
X589636Y388236D01*
X590241Y387772D01*
X590945Y387481D01*
X591700Y387381D01*
X592455Y387481D01*
X593159Y387772D01*
X593764Y388236D01*
X594228Y388841D01*
X594519Y389545D01*
X594619Y390300D01*
X594519Y391055D01*
X594228Y391759D01*
X593764Y392364D01*
X593159Y392828D01*
X592455Y393119D01*
X591700Y393219D01*
D02*
G37*
G36*
X629500Y388519D02*
X628745Y388419D01*
X628041Y388128D01*
X627436Y387664D01*
X626972Y387059D01*
X626681Y386355D01*
X626581Y385600D01*
X626681Y384845D01*
X626972Y384141D01*
X627436Y383536D01*
X628041Y383072D01*
X628745Y382781D01*
X629500Y382681D01*
X630255Y382781D01*
X630959Y383072D01*
X631564Y383536D01*
X632028Y384141D01*
X632319Y384845D01*
X632419Y385600D01*
X632319Y386355D01*
X632028Y387059D01*
X631564Y387664D01*
X630959Y388128D01*
X630255Y388419D01*
X629500Y388519D01*
D02*
G37*
G36*
X574400Y448619D02*
X573645Y448519D01*
X572941Y448228D01*
X572336Y447764D01*
X571872Y447159D01*
X571581Y446455D01*
X571481Y445700D01*
X571581Y444945D01*
X571872Y444241D01*
X572336Y443636D01*
X572941Y443172D01*
X573645Y442881D01*
X574400Y442781D01*
X575155Y442881D01*
X575812Y443153D01*
X579822Y439142D01*
X580083Y438968D01*
X580390Y438907D01*
X585916Y438907D01*
X638140Y388968D01*
X638474Y388596D01*
X638497Y388586D01*
Y386800D01*
X637841Y386528D01*
X637236Y386064D01*
X636772Y385459D01*
X636481Y384755D01*
X636381Y384000D01*
X636481Y383245D01*
X636772Y382541D01*
X637236Y381936D01*
X637841Y381472D01*
X638545Y381181D01*
X639300Y381081D01*
X640055Y381181D01*
X640759Y381472D01*
X641364Y381936D01*
X641828Y382541D01*
X642119Y383245D01*
X642219Y384000D01*
X642119Y384755D01*
X641828Y385459D01*
X641364Y386064D01*
X640759Y386528D01*
X640103Y386800D01*
Y388960D01*
X640042Y389267D01*
X639868Y389528D01*
X639866Y389529D01*
X639648Y389769D01*
X639633Y389779D01*
X639630Y389776D01*
X639618Y389777D01*
X639279Y390101D01*
X586793Y440290D01*
X586669Y440370D01*
X586546Y440452D01*
X586537Y440454D01*
X586529Y440458D01*
X586383Y440484D01*
X586238Y440513D01*
X580722Y440513D01*
X576947Y444288D01*
X577219Y444945D01*
X577319Y445700D01*
X577219Y446455D01*
X576928Y447159D01*
X576464Y447764D01*
X575859Y448228D01*
X575155Y448519D01*
X574400Y448619D01*
D02*
G37*
G36*
X689000Y388971D02*
X687972Y388836D01*
X687014Y388439D01*
X686192Y387808D01*
X685561Y386985D01*
X685164Y386028D01*
X685029Y385000D01*
X685164Y383972D01*
X685561Y383014D01*
X686192Y382192D01*
X687014Y381561D01*
X687972Y381164D01*
X689000Y381029D01*
X690028Y381164D01*
X690985Y381561D01*
X691808Y382192D01*
X692439Y383014D01*
X692836Y383972D01*
X692971Y385000D01*
X692836Y386028D01*
X692439Y386985D01*
X691808Y387808D01*
X690985Y388439D01*
X690028Y388836D01*
X689000Y388971D01*
D02*
G37*
G36*
X510800Y289319D02*
X510045Y289219D01*
X509341Y288928D01*
X508736Y288464D01*
X508272Y287859D01*
X507981Y287155D01*
X507881Y286400D01*
X507981Y285645D01*
X508272Y284941D01*
X508736Y284336D01*
X509341Y283872D01*
X510045Y283581D01*
X510800Y283481D01*
X511555Y283581D01*
X512259Y283872D01*
X512864Y284336D01*
X513328Y284941D01*
X513619Y285645D01*
X513719Y286400D01*
X513619Y287155D01*
X513328Y287859D01*
X512864Y288464D01*
X512259Y288928D01*
X511555Y289219D01*
X510800Y289319D01*
D02*
G37*
G36*
X488000Y287819D02*
X487245Y287719D01*
X486541Y287428D01*
X485936Y286964D01*
X485472Y286359D01*
X485181Y285655D01*
X485081Y284900D01*
X485181Y284145D01*
X485472Y283441D01*
X485936Y282836D01*
X486541Y282372D01*
X487245Y282081D01*
X488000Y281981D01*
X488755Y282081D01*
X489459Y282372D01*
X490064Y282836D01*
X490528Y283441D01*
X490819Y284145D01*
X490919Y284900D01*
X490819Y285655D01*
X490528Y286359D01*
X490064Y286964D01*
X489459Y287428D01*
X488755Y287719D01*
X488000Y287819D01*
D02*
G37*
G36*
X590551Y290941D02*
X588930Y290782D01*
X587372Y290309D01*
X585936Y289541D01*
X584677Y288508D01*
X583644Y287249D01*
X582876Y285813D01*
X582403Y284254D01*
X582243Y282634D01*
X582403Y281013D01*
X582876Y279454D01*
X583644Y278018D01*
X584677Y276759D01*
X585936Y275726D01*
X587372Y274958D01*
X588930Y274486D01*
X590551Y274326D01*
X592172Y274486D01*
X593730Y274958D01*
X595167Y275726D01*
X596426Y276759D01*
X597459Y278018D01*
X598226Y279454D01*
X598699Y281013D01*
X598859Y282634D01*
X598699Y284254D01*
X598226Y285813D01*
X597459Y287249D01*
X596426Y288508D01*
X595167Y289541D01*
X593730Y290309D01*
X592172Y290782D01*
X590551Y290941D01*
D02*
G37*
G36*
X461800Y242119D02*
X461045Y242019D01*
X460341Y241728D01*
X459736Y241264D01*
X459272Y240659D01*
X458981Y239955D01*
X458881Y239200D01*
X458981Y238445D01*
X459272Y237741D01*
X459736Y237136D01*
X460341Y236672D01*
X461045Y236381D01*
X461800Y236281D01*
X462555Y236381D01*
X463259Y236672D01*
X463864Y237136D01*
X464328Y237741D01*
X464619Y238445D01*
X464719Y239200D01*
X464619Y239955D01*
X464328Y240659D01*
X463864Y241264D01*
X463259Y241728D01*
X462555Y242019D01*
X461800Y242119D01*
D02*
G37*
G36*
X555240Y223083D02*
X547760D01*
Y215602D01*
X555240D01*
Y223083D01*
D02*
G37*
G36*
X510600Y219919D02*
X509845Y219819D01*
X509141Y219528D01*
X508536Y219064D01*
X508072Y218459D01*
X507781Y217755D01*
X507681Y217000D01*
X507781Y216245D01*
X508072Y215541D01*
X508536Y214936D01*
X509141Y214472D01*
X509845Y214181D01*
X510600Y214081D01*
X511355Y214181D01*
X512059Y214472D01*
X512664Y214936D01*
X513128Y215541D01*
X513419Y216245D01*
X513519Y217000D01*
X513419Y217755D01*
X513128Y218459D01*
X512664Y219064D01*
X512059Y219528D01*
X511355Y219819D01*
X510600Y219919D01*
D02*
G37*
G36*
X551500Y213272D02*
X550524Y213144D01*
X549614Y212767D01*
X548833Y212168D01*
X548233Y211386D01*
X547856Y210476D01*
X547728Y209500D01*
X547856Y208524D01*
X548109Y207913D01*
X548094Y207881D01*
X546555Y207059D01*
X545206Y205951D01*
X544099Y204603D01*
X543276Y203064D01*
X542770Y201394D01*
X542599Y199657D01*
X542770Y197921D01*
X543276Y196251D01*
X544099Y194712D01*
X545206Y193363D01*
X546555Y192256D01*
X548094Y191434D01*
X549763Y190927D01*
X551500Y190756D01*
X553236Y190927D01*
X554906Y191434D01*
X556445Y192256D01*
X557794Y193363D01*
X558901Y194712D01*
X559724Y196251D01*
X560230Y197921D01*
X560401Y199657D01*
X560230Y201394D01*
X559724Y203064D01*
X558901Y204603D01*
X557794Y205951D01*
X556445Y207059D01*
X554906Y207881D01*
X554891Y207913D01*
X555144Y208524D01*
X555272Y209500D01*
X555144Y210476D01*
X554767Y211386D01*
X554168Y212168D01*
X553386Y212767D01*
X552476Y213144D01*
X551500Y213272D01*
D02*
G37*
G36*
X452992Y195086D02*
X452170Y194978D01*
X451404Y194661D01*
X450746Y194156D01*
X450241Y193498D01*
X449924Y192732D01*
X449815Y191909D01*
X449924Y191087D01*
X450241Y190321D01*
X450746Y189663D01*
X451404Y189158D01*
X452170Y188841D01*
X452992Y188733D01*
X453814Y188841D01*
X454580Y189158D01*
X455238Y189663D01*
X455743Y190321D01*
X456061Y191087D01*
X456169Y191909D01*
X456061Y192732D01*
X455743Y193498D01*
X455238Y194156D01*
X454580Y194661D01*
X453814Y194978D01*
X452992Y195086D01*
D02*
G37*
G36*
X434685Y200210D02*
X431929D01*
X430579Y200078D01*
X429280Y199683D01*
X428083Y199044D01*
X427034Y198183D01*
X426173Y197134D01*
X425533Y195937D01*
X425139Y194638D01*
X425006Y193287D01*
Y190532D01*
X425139Y189181D01*
X425533Y187882D01*
X426173Y186685D01*
X427034Y185636D01*
X428083Y184775D01*
X429280Y184135D01*
X430579Y183741D01*
X431929Y183608D01*
X434685D01*
X436036Y183741D01*
X437334Y184135D01*
X438531Y184775D01*
X439580Y185636D01*
X440441Y186685D01*
X441081Y187882D01*
X441475Y189181D01*
X441608Y190532D01*
Y193287D01*
X441475Y194638D01*
X441081Y195937D01*
X440441Y197134D01*
X439580Y198183D01*
X438531Y199044D01*
X437334Y199683D01*
X436036Y200078D01*
X434685Y200210D01*
D02*
G37*
G36*
X297087Y143568D02*
X296331Y143469D01*
X295627Y143177D01*
X295023Y142713D01*
X294559Y142109D01*
X294267Y141405D01*
X294168Y140650D01*
X294267Y139894D01*
X294559Y139190D01*
X295023Y138586D01*
X295627Y138122D01*
X296331Y137830D01*
X297087Y137731D01*
X297842Y137830D01*
X298546Y138122D01*
X299150Y138586D01*
X299614Y139190D01*
X299906Y139894D01*
X300005Y140650D01*
X299906Y141405D01*
X299614Y142109D01*
X299150Y142713D01*
X298546Y143177D01*
X297842Y143469D01*
X297087Y143568D01*
D02*
G37*
G36*
X454370Y136594D02*
X451614D01*
X450923Y136456D01*
X450337Y136065D01*
X449945Y135479D01*
X449808Y134787D01*
Y132032D01*
X449945Y131340D01*
X450337Y130754D01*
X450923Y130363D01*
X451614Y130225D01*
X454370D01*
X455061Y130363D01*
X455647Y130754D01*
X456039Y131340D01*
X456176Y132032D01*
Y134787D01*
X456039Y135479D01*
X455647Y136065D01*
X455061Y136456D01*
X454370Y136594D01*
D02*
G37*
G36*
X292764Y132232D02*
X285976D01*
Y125445D01*
X292764D01*
Y132232D01*
D02*
G37*
G36*
X528370Y153454D02*
X526115Y153276D01*
X523916Y152748D01*
X521826Y151883D01*
X519897Y150701D01*
X518178Y149232D01*
X516709Y147512D01*
X515527Y145583D01*
X514661Y143494D01*
X514133Y141294D01*
X513956Y139039D01*
X514133Y136784D01*
X514661Y134585D01*
X515527Y132495D01*
X516709Y130567D01*
X518178Y128847D01*
X519897Y127378D01*
X521826Y126196D01*
X523916Y125330D01*
X526115Y124802D01*
X528370Y124625D01*
X530625Y124802D01*
X532824Y125330D01*
X534914Y126196D01*
X536843Y127378D01*
X538563Y128847D01*
X540032Y130567D01*
X541214Y132495D01*
X542079Y134585D01*
X542607Y136784D01*
X542785Y139039D01*
X542607Y141294D01*
X542079Y143494D01*
X541214Y145583D01*
X540032Y147512D01*
X538563Y149232D01*
X536843Y150701D01*
X534914Y151883D01*
X532824Y152748D01*
X530625Y153276D01*
X528370Y153454D01*
D02*
G37*
G36*
X289370Y120450D02*
X288484Y120334D01*
X287659Y119992D01*
X286950Y119448D01*
X286406Y118739D01*
X286064Y117913D01*
X285947Y117028D01*
X286064Y116142D01*
X286406Y115316D01*
X286950Y114607D01*
X287659Y114063D01*
X288484Y113721D01*
X289370Y113605D01*
X290256Y113721D01*
X291082Y114063D01*
X291791Y114607D01*
X292335Y115316D01*
X292676Y116142D01*
X292793Y117028D01*
X292676Y117913D01*
X292335Y118739D01*
X291791Y119448D01*
X291082Y119992D01*
X290256Y120334D01*
X289370Y120450D01*
D02*
G37*
G36*
X539000Y115580D02*
X537664Y115404D01*
X536419Y114888D01*
X535350Y114068D01*
X534529Y112998D01*
X534014Y111753D01*
X533838Y110417D01*
X534014Y109081D01*
X534529Y107836D01*
X535350Y106767D01*
X536419Y105947D01*
X537664Y105431D01*
X539000Y105255D01*
X540336Y105431D01*
X541581Y105947D01*
X542650Y106767D01*
X543471Y107836D01*
X543986Y109081D01*
X544162Y110417D01*
X543986Y111753D01*
X543471Y112998D01*
X542650Y114068D01*
X541581Y114888D01*
X540336Y115404D01*
X539000Y115580D01*
D02*
G37*
G36*
X412000Y110919D02*
X411245Y110819D01*
X410541Y110528D01*
X409936Y110064D01*
X409472Y109459D01*
X409181Y108755D01*
X409081Y108000D01*
X409181Y107245D01*
X409472Y106541D01*
X409936Y105936D01*
X410541Y105472D01*
X411245Y105181D01*
X412000Y105081D01*
X412755Y105181D01*
X413459Y105472D01*
X414064Y105936D01*
X414528Y106541D01*
X414819Y107245D01*
X414919Y108000D01*
X414819Y108755D01*
X414528Y109459D01*
X414064Y110064D01*
X413459Y110528D01*
X412755Y110819D01*
X412000Y110919D01*
D02*
G37*
G36*
X590551Y118871D02*
X588930Y118711D01*
X587372Y118238D01*
X585936Y117471D01*
X584677Y116437D01*
X583644Y115179D01*
X582876Y113742D01*
X582403Y112184D01*
X582243Y110563D01*
X582403Y108942D01*
X582876Y107384D01*
X583644Y105947D01*
X584677Y104689D01*
X585936Y103655D01*
X587372Y102888D01*
X588930Y102415D01*
X590551Y102255D01*
X592172Y102415D01*
X593730Y102888D01*
X595167Y103655D01*
X596426Y104689D01*
X597459Y105947D01*
X598226Y107384D01*
X598699Y108942D01*
X598859Y110563D01*
X598699Y112184D01*
X598226Y113742D01*
X597459Y115179D01*
X596426Y116437D01*
X595167Y117471D01*
X593730Y118238D01*
X592172Y118711D01*
X590551Y118871D01*
D02*
G37*
G36*
X289370Y108640D02*
X288484Y108523D01*
X287659Y108181D01*
X286950Y107637D01*
X286406Y106928D01*
X286064Y106103D01*
X285947Y105217D01*
X286064Y104331D01*
X286406Y103505D01*
X286950Y102796D01*
X287659Y102252D01*
X288484Y101910D01*
X289370Y101794D01*
X290256Y101910D01*
X291082Y102252D01*
X291791Y102796D01*
X292335Y103505D01*
X292676Y104331D01*
X292793Y105217D01*
X292676Y106103D01*
X292335Y106928D01*
X291791Y107637D01*
X291082Y108181D01*
X290256Y108523D01*
X289370Y108640D01*
D02*
G37*
G36*
X380000Y104919D02*
X379245Y104819D01*
X378541Y104528D01*
X377936Y104064D01*
X377472Y103459D01*
X377181Y102755D01*
X377081Y102000D01*
X377181Y101245D01*
X377472Y100541D01*
X377936Y99936D01*
X378541Y99472D01*
X379245Y99181D01*
X380000Y99081D01*
X380755Y99181D01*
X381459Y99472D01*
X382064Y99936D01*
X382528Y100541D01*
X382819Y101245D01*
X382919Y102000D01*
X382819Y102755D01*
X382528Y103459D01*
X382064Y104064D01*
X381459Y104528D01*
X380755Y104819D01*
X380000Y104919D01*
D02*
G37*
G36*
X427752Y98012D02*
X410547D01*
Y91773D01*
X410047Y91603D01*
X409824Y91894D01*
X409096Y92453D01*
X408248Y92804D01*
X407339Y92924D01*
X406429Y92804D01*
X405581Y92453D01*
X404854Y91894D01*
X404295Y91167D01*
X403944Y90319D01*
X403824Y89409D01*
X403944Y88500D01*
X404295Y87652D01*
X404854Y86924D01*
X405581Y86366D01*
X406429Y86015D01*
X407339Y85895D01*
X408248Y86015D01*
X409096Y86366D01*
X409824Y86924D01*
X410047Y87216D01*
X410547Y87046D01*
Y80807D01*
X427679D01*
X427752Y80807D01*
X428224Y80739D01*
X428433Y80234D01*
X428897Y79629D01*
X429501Y79165D01*
X430205Y78874D01*
X430961Y78774D01*
X431716Y78874D01*
X432420Y79165D01*
X433024Y79629D01*
X433488Y80234D01*
X433780Y80937D01*
X433879Y81693D01*
X433780Y82448D01*
X433488Y83152D01*
X433024Y83757D01*
X432420Y84220D01*
X431716Y84512D01*
X430961Y84612D01*
X430205Y84512D01*
X429501Y84220D01*
X428897Y83757D01*
X428433Y83152D01*
X428252Y82715D01*
X427752Y82815D01*
Y98012D01*
D02*
G37*
G36*
X297087Y96324D02*
X296331Y96225D01*
X295627Y95933D01*
X295023Y95469D01*
X294559Y94865D01*
X294267Y94161D01*
X294168Y93405D01*
X294267Y92650D01*
X294559Y91946D01*
X295023Y91342D01*
X295627Y90878D01*
X296331Y90586D01*
X297087Y90487D01*
X297842Y90586D01*
X298546Y90878D01*
X299150Y91342D01*
X299614Y91946D01*
X299906Y92650D01*
X300005Y93405D01*
X299906Y94161D01*
X299614Y94865D01*
X299150Y95469D01*
X298546Y95933D01*
X297842Y96225D01*
X297087Y96324D01*
D02*
G37*
G36*
X395528Y84612D02*
X394772Y84512D01*
X394068Y84220D01*
X393464Y83757D01*
X393000Y83152D01*
X392708Y82448D01*
X392609Y81693D01*
X392708Y80937D01*
X393000Y80234D01*
X393464Y79629D01*
X394068Y79165D01*
X394772Y78874D01*
X395528Y78774D01*
X396283Y78874D01*
X396987Y79165D01*
X397591Y79629D01*
X398055Y80234D01*
X398347Y80937D01*
X398446Y81693D01*
X398347Y82448D01*
X398055Y83152D01*
X397591Y83757D01*
X396987Y84220D01*
X396283Y84512D01*
X395528Y84612D01*
D02*
G37*
G36*
X539000Y99286D02*
X536993Y99088D01*
X535064Y98503D01*
X533286Y97552D01*
X531727Y96273D01*
X530448Y94714D01*
X529497Y92936D01*
X528912Y91007D01*
X528714Y89000D01*
X528912Y86993D01*
X529497Y85064D01*
X530448Y83285D01*
X531727Y81727D01*
X533286Y80448D01*
X535064Y79497D01*
X536993Y78912D01*
X539000Y78714D01*
X541007Y78912D01*
X542936Y79497D01*
X544714Y80448D01*
X546273Y81727D01*
X547552Y83285D01*
X548503Y85064D01*
X549088Y86993D01*
X549286Y89000D01*
X549088Y91007D01*
X548503Y92936D01*
X547552Y94714D01*
X546273Y96273D01*
X544714Y97552D01*
X542936Y98503D01*
X541007Y99088D01*
X539000Y99286D01*
D02*
G37*
G36*
X498626Y105433D02*
X496489Y105293D01*
X494388Y104875D01*
X492360Y104186D01*
X490439Y103239D01*
X488658Y102049D01*
X487048Y100637D01*
X485636Y99027D01*
X484446Y97246D01*
X483499Y95325D01*
X482810Y93297D01*
X482392Y91196D01*
X482252Y89059D01*
X482392Y86922D01*
X482810Y84821D01*
X483499Y82793D01*
X484446Y80872D01*
X485636Y79091D01*
X487048Y77481D01*
X488658Y76069D01*
X490439Y74879D01*
X492360Y73932D01*
X494388Y73243D01*
X496489Y72825D01*
X498626Y72685D01*
X500763Y72825D01*
X502864Y73243D01*
X504892Y73932D01*
X506813Y74879D01*
X508594Y76069D01*
X510204Y77481D01*
X511616Y79091D01*
X512806Y80872D01*
X513753Y82793D01*
X514442Y84821D01*
X514860Y86922D01*
X515000Y89059D01*
X514860Y91196D01*
X514442Y93297D01*
X513753Y95325D01*
X512806Y97246D01*
X511616Y99027D01*
X510204Y100637D01*
X508594Y102049D01*
X506813Y103239D01*
X504892Y104186D01*
X502864Y104875D01*
X500763Y105293D01*
X498626Y105433D01*
D02*
G37*
G36*
X544118Y72701D02*
X533882D01*
Y62465D01*
X542974D01*
X545310Y60128D01*
X545573Y59952D01*
X545883Y59891D01*
X545883Y59891D01*
X557803D01*
X558072Y59241D01*
X558536Y58636D01*
X559141Y58172D01*
X559845Y57881D01*
X560600Y57781D01*
X561355Y57881D01*
X562059Y58172D01*
X562664Y58636D01*
X563128Y59241D01*
X563419Y59945D01*
X563519Y60700D01*
X563419Y61455D01*
X563128Y62159D01*
X562664Y62764D01*
X562059Y63228D01*
X561355Y63519D01*
X560600Y63619D01*
X559845Y63519D01*
X559141Y63228D01*
X558536Y62764D01*
X558072Y62159D01*
X557803Y61509D01*
X546218D01*
X544118Y63609D01*
Y72701D01*
D02*
G37*
G36*
X458799Y51940D02*
X456853Y51787D01*
X454955Y51331D01*
X453152Y50584D01*
X451487Y49564D01*
X450003Y48296D01*
X448735Y46812D01*
X447715Y45148D01*
X446968Y43344D01*
X446512Y41446D01*
X446359Y39500D01*
X446512Y37554D01*
X446968Y35656D01*
X447715Y33852D01*
X448735Y32188D01*
X450003Y30704D01*
X451487Y29436D01*
X453152Y28416D01*
X454955Y27669D01*
X456853Y27213D01*
X458799Y27060D01*
X460745Y27213D01*
X462643Y27669D01*
X464447Y28416D01*
X466111Y29436D01*
X467596Y30704D01*
X468863Y32188D01*
X469883Y33852D01*
X470630Y35656D01*
X471086Y37554D01*
X471239Y39500D01*
X471086Y41446D01*
X470630Y43344D01*
X469883Y45148D01*
X468863Y46812D01*
X467596Y48296D01*
X466111Y49564D01*
X464447Y50584D01*
X462643Y51331D01*
X460745Y51787D01*
X458799Y51940D01*
D02*
G37*
G36*
X417500D02*
X415554Y51787D01*
X413656Y51331D01*
X411852Y50584D01*
X410188Y49564D01*
X408704Y48296D01*
X407436Y46812D01*
X406416Y45148D01*
X405669Y43344D01*
X405213Y41446D01*
X405060Y39500D01*
X405213Y37554D01*
X405669Y35656D01*
X406416Y33852D01*
X407436Y32188D01*
X408704Y30704D01*
X410188Y29436D01*
X411852Y28416D01*
X413656Y27669D01*
X415554Y27213D01*
X417500Y27060D01*
X419446Y27213D01*
X421344Y27669D01*
X423148Y28416D01*
X424812Y29436D01*
X426296Y30704D01*
X427564Y32188D01*
X428584Y33852D01*
X429331Y35656D01*
X429787Y37554D01*
X429940Y39500D01*
X429787Y41446D01*
X429331Y43344D01*
X428584Y45148D01*
X427564Y46812D01*
X426296Y48296D01*
X424812Y49564D01*
X423148Y50584D01*
X421344Y51331D01*
X419446Y51787D01*
X417500Y51940D01*
D02*
G37*
G36*
X328878D02*
X326932Y51787D01*
X325034Y51331D01*
X323230Y50584D01*
X321566Y49564D01*
X320082Y48296D01*
X318814Y46812D01*
X317794Y45148D01*
X317047Y43344D01*
X316591Y41446D01*
X316438Y39500D01*
X316591Y37554D01*
X317047Y35656D01*
X317794Y33852D01*
X318814Y32188D01*
X320082Y30704D01*
X321566Y29436D01*
X323230Y28416D01*
X325034Y27669D01*
X326932Y27213D01*
X328878Y27060D01*
X330824Y27213D01*
X332722Y27669D01*
X334526Y28416D01*
X336190Y29436D01*
X337674Y30704D01*
X338942Y32188D01*
X339962Y33852D01*
X340709Y35656D01*
X341165Y37554D01*
X341318Y39500D01*
X341165Y41446D01*
X340709Y43344D01*
X339962Y45148D01*
X338942Y46812D01*
X337674Y48296D01*
X336190Y49564D01*
X334526Y50584D01*
X332722Y51331D01*
X330824Y51787D01*
X328878Y51940D01*
D02*
G37*
G36*
X287579D02*
X285633Y51787D01*
X283735Y51331D01*
X281931Y50584D01*
X280267Y49564D01*
X278782Y48296D01*
X277515Y46812D01*
X276495Y45148D01*
X275748Y43344D01*
X275292Y41446D01*
X275139Y39500D01*
X275292Y37554D01*
X275748Y35656D01*
X276495Y33852D01*
X277515Y32188D01*
X278782Y30704D01*
X280267Y29436D01*
X281931Y28416D01*
X283735Y27669D01*
X285633Y27213D01*
X287579Y27060D01*
X289525Y27213D01*
X291423Y27669D01*
X293226Y28416D01*
X294891Y29436D01*
X296375Y30704D01*
X297643Y32188D01*
X298663Y33852D01*
X299410Y35656D01*
X299866Y37554D01*
X300019Y39500D01*
X299866Y41446D01*
X299410Y43344D01*
X298663Y45148D01*
X297643Y46812D01*
X296375Y48296D01*
X294891Y49564D01*
X293226Y50584D01*
X291423Y51331D01*
X289525Y51787D01*
X287579Y51940D01*
D02*
G37*
G36*
X528370Y53454D02*
X526115Y53276D01*
X523916Y52748D01*
X521826Y51883D01*
X519897Y50701D01*
X518178Y49232D01*
X516709Y47512D01*
X515527Y45583D01*
X514661Y43494D01*
X514133Y41294D01*
X513956Y39039D01*
X514133Y36784D01*
X514661Y34585D01*
X515527Y32495D01*
X516709Y30567D01*
X518178Y28847D01*
X519897Y27378D01*
X521826Y26196D01*
X523916Y25330D01*
X526115Y24802D01*
X528370Y24625D01*
X530625Y24802D01*
X532824Y25330D01*
X534914Y26196D01*
X536843Y27378D01*
X538563Y28847D01*
X540032Y30567D01*
X541214Y32495D01*
X542079Y34585D01*
X542607Y36784D01*
X542785Y39039D01*
X542607Y41294D01*
X542079Y43494D01*
X541214Y45583D01*
X540032Y47512D01*
X538563Y49232D01*
X536843Y50701D01*
X534914Y51883D01*
X532824Y52748D01*
X530625Y53276D01*
X528370Y53454D01*
D02*
G37*
%LPD*%
G36*
X596632Y402032D02*
X596632Y402032D01*
X596893Y401858D01*
X597200Y401797D01*
X602168D01*
X605097Y398868D01*
Y397496D01*
X604597Y397463D01*
X604519Y398055D01*
X604228Y398759D01*
X603764Y399364D01*
X603159Y399828D01*
X602455Y400119D01*
X601700Y400219D01*
X600945Y400119D01*
X600241Y399828D01*
X599636Y399364D01*
X599172Y398759D01*
X598881Y398055D01*
X598862Y397915D01*
X592873D01*
X592755Y398381D01*
X593459Y398672D01*
X594064Y399136D01*
X594528Y399741D01*
X594819Y400445D01*
X594919Y401200D01*
X594819Y401955D01*
X594528Y402659D01*
X594064Y403264D01*
X593459Y403728D01*
X592755Y404019D01*
X592000Y404119D01*
X591245Y404019D01*
X590541Y403728D01*
X589936Y403264D01*
X589472Y402659D01*
X589181Y401955D01*
X589081Y401200D01*
X589181Y400445D01*
X589472Y399741D01*
X589936Y399136D01*
X590541Y398672D01*
X591245Y398381D01*
X591127Y397915D01*
X559118D01*
X559118Y397915D01*
X558918Y397876D01*
X558647Y398233D01*
X558623Y398288D01*
X564522Y404186D01*
X593668Y404997D01*
X596632Y402032D01*
D02*
G37*
D11*
X639069Y389191D02*
X639063Y389197D01*
X499328Y267934D02*
Y340128D01*
X564180Y404980D01*
X468900Y237506D02*
X499328Y267934D01*
X597800Y390812D02*
X598369Y391381D01*
X601481D01*
X559118Y397113D02*
X601513D01*
X601700Y397300D01*
X564180Y404980D02*
X593663Y405800D01*
X594000D02*
X597200Y402600D01*
X593663Y405800D02*
X594000D01*
X597200Y402600D02*
X602500D01*
X639300Y384000D02*
Y388960D01*
X586238Y439710D02*
X639063Y389197D01*
X580390Y439710D02*
X586238Y439710D01*
X580159Y439941D02*
X580390Y439710D01*
X574400Y445700D02*
X580159Y439941D01*
X639069Y389191D02*
X639300Y388960D01*
X650960Y483200D02*
X652100D01*
X649660Y484500D02*
X650960Y483200D01*
X555990Y436290D02*
X604200Y484500D01*
X649660D01*
X555700Y433700D02*
X555990Y433990D01*
Y436290D01*
X552500Y437600D02*
X603100Y488200D01*
X660200D01*
X602500Y402600D02*
X605900Y399200D01*
X501100Y267200D02*
Y339094D01*
X559118Y397113D01*
X470900Y237000D02*
X501100Y267200D01*
X601481Y391381D02*
X605900Y395800D01*
Y399200D01*
X470900Y84968D02*
X470994Y84874D01*
X468900Y119100D02*
Y237506D01*
X470994Y83206D02*
Y84874D01*
X438100Y88300D02*
X468900Y119100D01*
X470900Y84968D02*
Y237000D01*
X470994Y83206D02*
X471800Y82400D01*
D15*
X497400Y268300D02*
Y340700D01*
X564900Y408200D01*
X467000Y237900D02*
X497400Y268300D01*
X564900Y408200D02*
X602051D01*
Y414900D02*
X609300Y407651D01*
Y390200D02*
Y407651D01*
X432900Y90200D02*
X467000Y124300D01*
Y237900D01*
X502800Y336500D02*
X552000Y385700D01*
X502800Y194300D02*
X552700Y144400D01*
X502800Y194300D02*
Y336500D01*
X604800Y385700D02*
X609300Y390200D01*
X552000Y385700D02*
X604800D01*
X552700Y73700D02*
Y144400D01*
X545883Y60700D02*
X560600D01*
X539000Y67583D02*
X545883Y60700D01*
X432900Y86100D02*
Y90200D01*
Y86100D02*
X437400Y81600D01*
X444900D01*
X452900Y73600D01*
D93*
X414961Y165256D02*
D03*
X419783Y160433D02*
D03*
X424311Y155807D02*
D03*
X429035Y149902D02*
D03*
X429331Y142126D02*
D03*
X426575Y134941D02*
D03*
X440158Y107677D02*
D03*
X436909Y113681D02*
D03*
X433169Y119390D02*
D03*
X428937Y124902D02*
D03*
X423917Y128642D02*
D03*
X805906Y129921D02*
D03*
X817520Y130020D02*
D03*
X805610Y122047D02*
D03*
X817618Y121457D02*
D03*
X926280Y61122D02*
D03*
X937894Y61221D02*
D03*
X925984Y53248D02*
D03*
X937992Y52658D02*
D03*
X911024Y78642D02*
D03*
X922638Y78740D02*
D03*
X910728Y70768D02*
D03*
X922736Y70177D02*
D03*
X909153Y145768D02*
D03*
X920768Y145866D02*
D03*
X908858Y137894D02*
D03*
X920866Y137303D02*
D03*
X838681Y127067D02*
D03*
X850295Y127165D02*
D03*
X838386Y119193D02*
D03*
X850394Y118602D02*
D03*
X875591Y158366D02*
D03*
X887205Y158465D02*
D03*
X875295Y150492D02*
D03*
X887303Y149902D02*
D03*
X926083Y172146D02*
D03*
X937697Y172244D02*
D03*
X925787Y164272D02*
D03*
X937795Y163681D02*
D03*
X929232Y217028D02*
D03*
X940847Y217126D02*
D03*
X928937Y209154D02*
D03*
X940945Y208563D02*
D03*
X928642Y234842D02*
D03*
X940256Y234941D02*
D03*
X928347Y226969D02*
D03*
X940354Y226378D02*
D03*
X928937Y252658D02*
D03*
X940551Y252756D02*
D03*
X928642Y244783D02*
D03*
X940650Y244193D02*
D03*
X929035Y283268D02*
D03*
X940650Y283366D02*
D03*
X928740Y275394D02*
D03*
X940748Y274803D02*
D03*
X940354Y292224D02*
D03*
X928347Y292815D02*
D03*
X940256Y300787D02*
D03*
X928642Y300689D02*
D03*
X920768Y310335D02*
D03*
X880217Y308071D02*
D03*
X908957Y300886D02*
D03*
X890354Y301083D02*
D03*
X899705Y301181D02*
D03*
X830217Y456299D02*
D03*
X779528Y471161D02*
D03*
X817224Y426083D02*
D03*
X826378Y425886D02*
D03*
X836614Y425787D02*
D03*
X883760Y403150D02*
D03*
X867028Y389961D02*
D03*
X795669Y391142D02*
D03*
X823228Y381693D02*
D03*
X830315Y381890D02*
D03*
X837894Y381594D02*
D03*
X867717Y495768D02*
D03*
X875984Y495571D02*
D03*
X884842D02*
D03*
X894094Y495177D02*
D03*
X903445Y495079D02*
D03*
X911516Y495472D02*
D03*
X920571Y495374D02*
D03*
X929429Y495669D02*
D03*
X939173Y495177D02*
D03*
X948720Y495669D02*
D03*
X857185Y495472D02*
D03*
X844390Y496358D02*
D03*
X835335Y496654D02*
D03*
X826772Y496555D02*
D03*
X817717Y496752D02*
D03*
X809055Y496654D02*
D03*
X799213Y496752D02*
D03*
X790551D02*
D03*
X781496D02*
D03*
X773425Y496949D02*
D03*
X653445Y383858D02*
D03*
X647342Y390059D02*
D03*
X647441Y383858D02*
D03*
X537500Y495768D02*
D03*
X546260Y495472D02*
D03*
X554331D02*
D03*
X562402Y496063D02*
D03*
X570472Y495866D02*
D03*
X578248D02*
D03*
X586319Y495472D02*
D03*
X594193Y495079D02*
D03*
X603150Y495276D02*
D03*
X694587Y462303D02*
D03*
X626083Y468209D02*
D03*
X612747Y495278D02*
D03*
X621163Y495355D02*
D03*
X629733Y495278D02*
D03*
X639468Y495276D02*
D03*
X527756Y458169D02*
D03*
X530610Y466043D02*
D03*
X537795Y469980D02*
D03*
X546161Y470669D02*
D03*
X491240Y275689D02*
D03*
X599000Y467588D02*
D03*
X597800Y390812D02*
D03*
X602051Y414900D02*
D03*
X601700Y397300D02*
D03*
X602051Y408200D02*
D03*
X658400Y478400D02*
D03*
X873100Y417600D02*
D03*
X863100Y422500D02*
D03*
X857900Y427600D02*
D03*
X798800Y408600D02*
D03*
X788000Y419800D02*
D03*
X600000Y433100D02*
D03*
X681600Y393900D02*
D03*
X639300Y384000D02*
D03*
X574400Y445700D02*
D03*
X652100Y483200D02*
D03*
X660200Y488200D02*
D03*
X552700Y73700D02*
D03*
X560600Y60700D02*
D03*
X438100Y88300D02*
D03*
X452900Y73600D02*
D03*
X471800Y82400D02*
D03*
X917000Y180500D02*
D03*
X861300Y189600D02*
D03*
D94*
X938689Y43000D02*
D03*
D108*
X933413Y152220D02*
D03*
D109*
Y129780D02*
D03*
D116*
X599000Y467588D02*
X608612Y477200D01*
X656380D01*
X657580Y478400D02*
X658400D01*
X656380Y477200D02*
X657580Y478400D01*
X788000Y419600D02*
X798800Y408800D01*
Y408600D02*
Y408800D01*
X788000Y419600D02*
Y419800D01*
D117*
X600000Y433100D02*
X600000D01*
X681600Y393900D02*
X681600Y393900D01*
X600000Y433100D02*
X681600Y393900D01*
D118*
X932000Y422500D02*
X977416Y377084D01*
X863100Y422500D02*
X932000D01*
X857900Y427600D02*
X933800D01*
X980900Y380500D01*
X891497Y186800D02*
X938673D01*
X888697Y189600D02*
X891497Y186800D01*
X938673D02*
X959673Y207800D01*
X974999Y203771D02*
X980900Y209672D01*
Y380500D01*
X974100Y207800D02*
X977416Y211116D01*
Y377084D01*
X959673Y207800D02*
X974100D01*
X937300Y180500D02*
X960571Y203771D01*
X974999D01*
X917000Y180500D02*
X937300D01*
X861300Y189600D02*
X888697D01*
D129*
X899650Y311059D02*
D03*
X433307Y133409D02*
D03*
D132*
X804150Y114902D02*
D03*
D133*
X729000Y385000D02*
D03*
Y415000D02*
D03*
D135*
X539000Y67583D02*
D03*
D143*
X717126Y18209D02*
D03*
X717421Y7382D02*
D03*
X706398D02*
D03*
X706496Y18602D02*
D03*
X695571Y18307D02*
D03*
X695472Y7579D02*
D03*
X684154Y7283D02*
D03*
X684350Y18602D02*
D03*
X612205D02*
D03*
X612008Y7283D02*
D03*
X623327Y7579D02*
D03*
X623425Y18307D02*
D03*
X634350Y18602D02*
D03*
X634252Y7382D02*
D03*
X645276D02*
D03*
X644980Y18209D02*
D03*
D144*
X834417Y412433D02*
D03*
X838748D02*
D03*
X834417Y408102D02*
D03*
X838748D02*
D03*
X834417Y403772D02*
D03*
X838748D02*
D03*
X577116Y418395D02*
D03*
X572785D02*
D03*
X577116Y422725D02*
D03*
X572785D02*
D03*
X577116Y427056D02*
D03*
X572785D02*
D03*
X577116Y431387D02*
D03*
X572785D02*
D03*
D145*
X555700Y433700D02*
D03*
X552500Y437600D02*
D03*
D146*
X873100Y417600D02*
X923200D01*
X972200Y368600D01*
X953792Y262492D02*
X972200Y280900D01*
Y368600D01*
X879000Y262492D02*
X953792D01*
D147*
X879000D02*
D03*
M02*
