G04*
G04 #@! TF.GenerationSoftware,Altium Limited,Altium Designer,22.5.1 (42)*
G04*
G04 Layer_Physical_Order=1*
G04 Layer_Color=255*
%FSLAX25Y25*%
%MOIN*%
G70*
G04*
G04 #@! TF.SameCoordinates,02EF2946-DDE5-4D11-B7C9-AFF3A69701B4*
G04*
G04*
G04 #@! TF.FilePolarity,Positive*
G04*
G01*
G75*
%ADD11C,0.00787*%
%ADD14C,0.01000*%
%ADD15C,0.00800*%
%ADD17C,0.03937*%
%ADD20R,0.03150X0.03150*%
%ADD21R,0.03543X0.03937*%
%ADD22R,0.03150X0.03543*%
%ADD23R,0.03150X0.03150*%
%ADD24O,0.05118X0.01968*%
%ADD25R,0.10787X0.15197*%
%ADD26R,0.03937X0.03543*%
%ADD27R,0.06693X0.04528*%
%ADD28R,0.06102X0.07284*%
%ADD29R,0.05512X0.02165*%
%ADD30O,0.04500X0.08000*%
%ADD31R,0.04500X0.08000*%
%ADD32R,0.09843X0.03543*%
%ADD33R,0.09449X0.12402*%
%ADD34R,0.23622X0.21457*%
%ADD35R,0.09055X0.03740*%
%ADD36R,0.07087X0.05118*%
%ADD37R,0.10787X0.18701*%
%ADD38R,0.04921X0.01378*%
%ADD39R,0.05118X0.07087*%
%ADD40R,0.06890X0.02756*%
%ADD41R,0.02756X0.06890*%
%ADD42O,0.02165X0.06496*%
%ADD43R,0.14764X0.08268*%
%ADD44R,0.03543X0.14961*%
%ADD45R,0.06299X0.12205*%
%ADD46R,0.14961X0.03543*%
%ADD47R,0.04528X0.06693*%
%ADD48R,0.12205X0.06299*%
%ADD49R,0.04803X0.03583*%
%ADD50R,0.05118X0.03543*%
%ADD51R,0.07677X0.03543*%
%ADD52R,0.07677X0.12795*%
%ADD93C,0.05000*%
%ADD94C,0.06181*%
%ADD95R,0.06181X0.06181*%
%ADD108C,0.10827*%
%ADD109R,0.10827X0.10827*%
%ADD110C,0.11811*%
%ADD116C,0.01968*%
%ADD117C,0.03543*%
%ADD118C,0.02500*%
%ADD119C,0.06299*%
%ADD120C,0.02000*%
%ADD121C,0.01200*%
%ADD122C,0.01378*%
%ADD123C,0.05000*%
%ADD124C,0.15748*%
%ADD125R,0.15748X0.15748*%
%ADD126C,0.06000*%
%ADD127R,0.06000X0.06000*%
G04:AMPARAMS|DCode=128|XSize=55.12mil|YSize=55.12mil|CornerRadius=13.78mil|HoleSize=0mil|Usage=FLASHONLY|Rotation=90.000|XOffset=0mil|YOffset=0mil|HoleType=Round|Shape=RoundedRectangle|*
%AMROUNDEDRECTD128*
21,1,0.05512,0.02756,0,0,90.0*
21,1,0.02756,0.05512,0,0,90.0*
1,1,0.02756,0.01378,0.01378*
1,1,0.02756,0.01378,-0.01378*
1,1,0.02756,-0.01378,-0.01378*
1,1,0.02756,-0.01378,0.01378*
%
%ADD128ROUNDEDRECTD128*%
%ADD129C,0.05512*%
%ADD130C,0.13780*%
%ADD131R,0.06693X0.06693*%
%ADD132C,0.06693*%
%ADD133C,0.07087*%
%ADD134R,0.07087X0.07087*%
%ADD135R,0.09449X0.09449*%
%ADD136C,0.09449*%
%ADD137C,0.17717*%
G04:AMPARAMS|DCode=138|XSize=55.12mil|YSize=55.12mil|CornerRadius=13.78mil|HoleSize=0mil|Usage=FLASHONLY|Rotation=0.000|XOffset=0mil|YOffset=0mil|HoleType=Round|Shape=RoundedRectangle|*
%AMROUNDEDRECTD138*
21,1,0.05512,0.02756,0,0,0.0*
21,1,0.02756,0.05512,0,0,0.0*
1,1,0.02756,0.01378,-0.01378*
1,1,0.02756,-0.01378,-0.01378*
1,1,0.02756,-0.01378,0.01378*
1,1,0.02756,0.01378,0.01378*
%
%ADD138ROUNDEDRECTD138*%
%ADD139R,0.10630X0.09843*%
%ADD140O,0.10630X0.09843*%
%ADD141O,0.11811X0.21654*%
%ADD142C,0.31890*%
%ADD143C,0.07874*%
%ADD144C,0.01968*%
%ADD145C,0.03937*%
G36*
X697539Y495520D02*
X692146D01*
Y494846D01*
X689862D01*
Y496665D01*
X686273D01*
X683771Y499168D01*
X683510Y499342D01*
X683203Y499403D01*
X675643D01*
X675643Y499403D01*
X675336Y499342D01*
X675076Y499168D01*
X672573Y496665D01*
X669181D01*
Y492335D01*
X673906D01*
Y495727D01*
X675976Y497797D01*
X682871D01*
X685138Y495530D01*
Y492335D01*
X689862D01*
Y493240D01*
X692146D01*
Y492567D01*
X697539D01*
Y490520D01*
X692146D01*
Y489846D01*
X690327D01*
X690020Y489785D01*
X689759Y489611D01*
X683813Y483665D01*
X680224D01*
Y479335D01*
X684949D01*
Y482530D01*
X690659Y488240D01*
X692146D01*
Y487567D01*
X697539D01*
Y476437D01*
X692856D01*
Y473708D01*
X684165D01*
Y473862D01*
X679835D01*
Y471713D01*
X679792Y471500D01*
X679835Y471287D01*
Y469138D01*
X684165D01*
Y469292D01*
X692856D01*
Y467650D01*
X697539D01*
Y448327D01*
X694424D01*
X693935Y448728D01*
X693408Y449371D01*
X693300Y449512D01*
X693110Y449776D01*
Y458858D01*
X685039Y466929D01*
X612008D01*
X598228Y453150D01*
X559116D01*
Y457710D01*
X554785D01*
Y452985D01*
X556141D01*
Y452204D01*
X552853Y448916D01*
X545899Y455870D01*
Y459056D01*
X541175D01*
Y454725D01*
X544755D01*
X551709Y447772D01*
X549520Y445583D01*
X545931Y449173D01*
Y452753D01*
X541600D01*
Y448028D01*
X544786D01*
X548376Y444439D01*
X545472Y441535D01*
X532111Y441118D01*
X523721Y449508D01*
X523720Y488967D01*
X534753Y500000D01*
X558661D01*
X558760Y500098D01*
X697539D01*
Y495520D01*
D02*
G37*
G36*
X656600Y458100D02*
X656600Y458100D01*
X677000D01*
X688872Y446228D01*
X689015Y445960D01*
X689985Y444778D01*
X691167Y443808D01*
X691435Y443665D01*
X692600Y442500D01*
Y426400D01*
X685500D01*
X685400Y426500D01*
Y443200D01*
X673900Y454700D01*
X656700D01*
X656600Y454600D01*
X649900D01*
X643200Y447900D01*
X627900D01*
X623500Y452300D01*
X622737D01*
Y455482D01*
X623095Y455831D01*
X624300Y455800D01*
X626700Y458200D01*
X656559D01*
X656600Y458100D01*
D02*
G37*
G36*
X614863Y446816D02*
X617200D01*
Y443900D01*
X615000Y441700D01*
X611200D01*
X608500Y444400D01*
Y451000D01*
X613400Y455900D01*
X614863D01*
Y446816D01*
D02*
G37*
G36*
X628700Y440700D02*
X654400D01*
Y428300D01*
X645000D01*
Y434600D01*
X643700Y435900D01*
X628157D01*
X627806Y436257D01*
X627889Y440861D01*
X628352Y441048D01*
X628700Y440700D01*
D02*
G37*
G36*
X984153Y499902D02*
X984744Y499311D01*
X1003000Y455409D01*
X984744Y393012D01*
X984449Y392717D01*
Y373622D01*
X866625D01*
X858854Y381393D01*
X859045Y381855D01*
X888860D01*
X889398Y381962D01*
X889853Y382266D01*
X894593Y387007D01*
X894898Y387462D01*
X895005Y388000D01*
Y405681D01*
X895183Y405947D01*
X895290Y406485D01*
Y408115D01*
X895183Y408653D01*
X894878Y409109D01*
X870293Y433694D01*
X869838Y433998D01*
X869300Y434105D01*
X813982D01*
X798905Y449182D01*
Y451898D01*
X799402Y451962D01*
X799707Y451507D01*
X812206Y439007D01*
Y438419D01*
X812403Y437683D01*
X812784Y437023D01*
X813323Y436484D01*
X813983Y436103D01*
X814719Y435906D01*
X815481D01*
X816217Y436103D01*
X816877Y436484D01*
X817416Y437023D01*
X817797Y437683D01*
X817994Y438419D01*
Y439181D01*
X817797Y439917D01*
X817416Y440577D01*
X816877Y441116D01*
X816217Y441497D01*
X815481Y441694D01*
X814719D01*
X813983Y441497D01*
X813797Y441389D01*
X802105Y453082D01*
Y458964D01*
X802835Y459694D01*
X803335Y459487D01*
Y455094D01*
X807665D01*
Y456052D01*
X812791D01*
Y454398D01*
X813275D01*
Y451676D01*
X812823Y451415D01*
X812284Y450877D01*
X811903Y450217D01*
X811706Y449481D01*
Y448719D01*
X811903Y447983D01*
X812284Y447323D01*
X812823Y446784D01*
X813483Y446404D01*
X814219Y446206D01*
X814981D01*
X815717Y446404D01*
X816377Y446784D01*
X816916Y447323D01*
X817297Y447983D01*
X817494Y448719D01*
Y449481D01*
X817297Y450217D01*
X816916Y450877D01*
X816377Y451415D01*
X816085Y451584D01*
Y454398D01*
X816728D01*
Y458728D01*
X814640D01*
X814601Y458755D01*
X814063Y458862D01*
X807665D01*
Y459819D01*
X803666D01*
X803459Y460319D01*
X805322Y462181D01*
X807665D01*
Y466905D01*
X807112D01*
Y469335D01*
X808276D01*
Y473665D01*
X803551D01*
Y469335D01*
X804302D01*
Y466905D01*
X803335D01*
Y464168D01*
X799707Y460540D01*
X799402Y460084D01*
X798905Y460148D01*
Y466847D01*
X798798Y467384D01*
X798493Y467840D01*
X796165Y470168D01*
Y472905D01*
X791835D01*
Y468181D01*
X794178D01*
X796041Y466319D01*
X795964Y465819D01*
X791835D01*
Y464984D01*
X789468D01*
Y465669D01*
X785532D01*
Y461732D01*
X789468D01*
Y462174D01*
X791835D01*
Y461095D01*
X796095D01*
Y448600D01*
X796202Y448062D01*
X796507Y447607D01*
X812407Y431706D01*
X812862Y431402D01*
X813400Y431295D01*
X868718D01*
X892480Y407533D01*
Y407004D01*
X892302Y406738D01*
X892195Y406200D01*
Y388582D01*
X888278Y384665D01*
X857165D01*
Y385819D01*
X852835D01*
Y384862D01*
X850665D01*
X850362Y385164D01*
Y387508D01*
X845638D01*
Y383177D01*
X848375D01*
X849089Y382463D01*
X849545Y382159D01*
X850083Y382052D01*
X852835D01*
Y381095D01*
X855178D01*
X862189Y374084D01*
X861998Y373622D01*
X800492D01*
X762598Y411516D01*
X727461D01*
X725295Y413681D01*
Y427543D01*
X725795Y427677D01*
X725850Y427583D01*
X726583Y426850D01*
X727480Y426331D01*
X728482Y426063D01*
X729518D01*
X730314Y426276D01*
X731151Y425439D01*
X731868Y424960D01*
X732712Y424792D01*
X736795D01*
Y422965D01*
X743685D01*
Y431035D01*
X736795D01*
Y429208D01*
X733627D01*
X732937Y429898D01*
Y430518D01*
X732669Y431520D01*
X732150Y432417D01*
X731417Y433150D01*
X730520Y433669D01*
X729518Y433937D01*
X728482D01*
X727480Y433669D01*
X726583Y433150D01*
X725850Y432417D01*
X725795Y432323D01*
X725295Y432457D01*
Y438484D01*
X720079Y443701D01*
Y467805D01*
X720579Y468052D01*
X720667Y467984D01*
X721310Y467718D01*
X722000Y467627D01*
X722690Y467718D01*
X723333Y467984D01*
X723885Y468408D01*
X724309Y468960D01*
X724576Y469603D01*
X724667Y470293D01*
Y471241D01*
X727835D01*
Y470138D01*
X732165D01*
Y474862D01*
X727835D01*
Y472846D01*
X724667D01*
Y473793D01*
X724576Y474483D01*
X724309Y475127D01*
X723885Y475679D01*
X723333Y476103D01*
X722690Y476369D01*
X722000Y476460D01*
X721310Y476369D01*
X720667Y476103D01*
X720579Y476035D01*
X720079Y476282D01*
Y481398D01*
X717028Y484449D01*
Y487567D01*
X722854D01*
Y487638D01*
X746575D01*
X787995Y446218D01*
Y426819D01*
X787422Y426246D01*
X787118Y425790D01*
X787011Y425253D01*
Y422531D01*
X786883Y422497D01*
X786223Y422116D01*
X785684Y421577D01*
X785303Y420917D01*
X785106Y420181D01*
Y419419D01*
X785303Y418683D01*
X785684Y418023D01*
X786223Y417485D01*
X786883Y417103D01*
X787619Y416906D01*
X788381D01*
X789117Y417103D01*
X789777Y417485D01*
X790315Y418023D01*
X790696Y418683D01*
X790894Y419419D01*
Y420181D01*
X790696Y420917D01*
X790315Y421577D01*
X789821Y422072D01*
Y424671D01*
X790393Y425244D01*
X790698Y425699D01*
X790805Y426237D01*
Y446800D01*
X790698Y447338D01*
X790393Y447793D01*
X748150Y490037D01*
X747694Y490341D01*
X747157Y490448D01*
X722854D01*
Y490520D01*
X717028D01*
Y499541D01*
X717487Y500000D01*
X984153Y499902D01*
D02*
G37*
G36*
X562287Y409730D02*
X562555Y409300D01*
X562523Y409142D01*
X562593Y408794D01*
X562790Y408498D01*
X563086Y408301D01*
X563435Y408231D01*
X565900D01*
Y402700D01*
X566800Y401800D01*
Y384400D01*
X561800D01*
X561700Y384300D01*
X551100Y394900D01*
X528600D01*
Y396727D01*
X529282D01*
X529806Y396203D01*
X530102Y396005D01*
X530450Y395936D01*
X530799Y396005D01*
X531095Y396203D01*
X531292Y396498D01*
X531362Y396847D01*
X531292Y397196D01*
X531095Y397492D01*
X530304Y398282D01*
X530128Y398400D01*
X530263Y398900D01*
X554700D01*
X555000Y398600D01*
X558900D01*
Y398800D01*
X560900Y400800D01*
X561000Y409800D01*
X562198D01*
X562287Y409730D01*
D02*
G37*
G36*
X626378Y401772D02*
Y398031D01*
X631496Y392913D01*
X647539D01*
X654331Y386122D01*
X661319D01*
Y380165D01*
X661319Y379665D01*
X656595D01*
Y378303D01*
X654165D01*
Y379862D01*
X649835D01*
Y376273D01*
X649447Y375886D01*
X642490D01*
X641905Y376470D01*
Y379665D01*
X640103D01*
Y381219D01*
X640417Y381304D01*
X641077Y381684D01*
X641615Y382223D01*
X641996Y382883D01*
X642194Y383619D01*
Y384381D01*
X641996Y385117D01*
X641615Y385777D01*
X641077Y386315D01*
X640417Y386697D01*
X639681Y386894D01*
X638919D01*
X638183Y386697D01*
X637523Y386315D01*
X636984Y385777D01*
X636603Y385117D01*
X636406Y384381D01*
Y383619D01*
X636603Y382883D01*
X636984Y382223D01*
X637523Y381684D01*
X638183Y381304D01*
X638497Y381219D01*
Y379665D01*
X637181D01*
Y375886D01*
X625996D01*
X623165Y378717D01*
Y380319D01*
X618835D01*
Y380165D01*
X615838D01*
X615486Y380519D01*
X615650Y402953D01*
X625197D01*
X626378Y401772D01*
D02*
G37*
G36*
X597616Y326157D02*
X597266Y325800D01*
X563500D01*
Y346200D01*
X597180D01*
X597616Y326157D01*
D02*
G37*
G36*
X544942Y230754D02*
X544589Y230400D01*
X541700D01*
X535700Y236400D01*
Y342700D01*
X538400Y345400D01*
X544470D01*
X544942Y230754D01*
D02*
G37*
G36*
X579500Y308400D02*
X570500Y299400D01*
Y218900D01*
X557900Y206300D01*
X557385D01*
X557147Y206538D01*
X555696Y207508D01*
X554084Y208175D01*
X552373Y208516D01*
X550628D01*
X549400Y208272D01*
X548900Y208682D01*
Y211300D01*
X550300Y212700D01*
X557000D01*
X559000Y214700D01*
Y311800D01*
X579500D01*
Y308400D01*
D02*
G37*
G36*
X826900Y312100D02*
X858100D01*
X873263Y296937D01*
Y257300D01*
X873291D01*
Y257177D01*
X884709D01*
Y267807D01*
X884500D01*
Y282000D01*
X893700Y291200D01*
X920300D01*
Y191000D01*
X907800D01*
X902100Y196700D01*
Y219700D01*
X892900Y228900D01*
X859700D01*
X843800Y244800D01*
X769100Y244800D01*
X753200Y260700D01*
Y288300D01*
X734400Y307100D01*
Y338200D01*
X738100Y341900D01*
X797100Y341900D01*
X826900Y312100D01*
D02*
G37*
G36*
X437500Y194500D02*
Y190000D01*
X434500Y187000D01*
X354500D01*
X354500Y205000D01*
X427000D01*
X437500Y194500D01*
D02*
G37*
G36*
X899700Y219600D02*
Y196900D01*
X910700Y185900D01*
Y178981D01*
X872606D01*
Y185470D01*
X859797Y197396D01*
X859734Y222934D01*
X864100Y227300D01*
X892000D01*
X899700Y219600D01*
D02*
G37*
G36*
X950900Y191800D02*
X942800Y183700D01*
X942800Y40400D01*
X941000Y38600D01*
X932600Y38600D01*
X894929Y76271D01*
X895163Y93792D01*
X880622Y111300D01*
X802600D01*
X800700Y113200D01*
X800700Y130900D01*
X806000Y136200D01*
X857800Y136200D01*
X863300Y141700D01*
Y171600D01*
X900400D01*
Y167814D01*
X903506Y165300D01*
X911000D01*
X922300Y176600D01*
X922300Y290000D01*
X920000Y292300D01*
X881600D01*
X859600Y314300D01*
Y319700D01*
X950900D01*
Y191800D01*
D02*
G37*
G36*
X785200Y178297D02*
X785200Y158400D01*
X774100Y147300D01*
X741000Y147300D01*
X736200Y152100D01*
Y178600D01*
X742400Y184800D01*
X778697D01*
X785200Y178297D01*
D02*
G37*
G36*
X857200Y228600D02*
Y145200D01*
X857034Y144800D01*
X833700D01*
X789700Y188800D01*
X740600Y188800D01*
X736100Y193300D01*
Y237000D01*
X741800Y242700D01*
X843100D01*
X857200Y228600D01*
D02*
G37*
G36*
X456900Y128000D02*
X449800D01*
Y195200D01*
X456900D01*
Y128000D01*
D02*
G37*
G36*
X543400Y112000D02*
X537700Y106300D01*
Y106000D01*
X537000D01*
X526800Y116200D01*
X480700D01*
X462100Y97600D01*
Y90800D01*
X461900Y90600D01*
Y86800D01*
X451500D01*
X451400Y86841D01*
Y91300D01*
X454100Y94000D01*
Y100800D01*
X458300D01*
X478700Y121200D01*
X534200D01*
X543400Y112000D01*
D02*
G37*
G36*
X435500Y151500D02*
Y129500D01*
X447413Y100400D01*
Y86800D01*
X445380D01*
X445331Y87300D01*
X445652Y87364D01*
X445981Y87584D01*
X446366Y87969D01*
X446586Y88297D01*
X446663Y88685D01*
X446586Y89073D01*
X446366Y89401D01*
X446037Y89621D01*
X445650Y89698D01*
X445262Y89621D01*
X444933Y89401D01*
X444845Y89313D01*
X443153D01*
X439244Y102461D01*
X420764Y123300D01*
X397500D01*
Y127900D01*
X416347D01*
X423100Y135075D01*
Y150700D01*
X406900Y166900D01*
X382100D01*
X380500Y168500D01*
Y173500D01*
X413500D01*
X435500Y151500D01*
D02*
G37*
G36*
X598000Y234000D02*
Y196300D01*
X566100Y164400D01*
X566100Y95800D01*
X595400Y66500D01*
Y56300D01*
X581950D01*
X553500Y84750D01*
X539356Y84569D01*
X539000Y84920D01*
Y94000D01*
X553000D01*
X556000Y97000D01*
X556000Y123000D01*
X549000Y130000D01*
X528419D01*
X520400Y139800D01*
X581500Y201500D01*
Y234000D01*
X589600Y240400D01*
X598000Y234000D01*
D02*
G37*
G36*
X797400Y131500D02*
X797400Y112200D01*
X801200Y108400D01*
X805500Y108400D01*
X807400Y106500D01*
Y103600D01*
X805400Y101600D01*
X800200Y101600D01*
X797400Y98800D01*
Y75700D01*
X773500Y51800D01*
X735000Y51800D01*
X735000Y89469D01*
X756300Y107917D01*
Y131900D01*
X764900Y140500D01*
X788400D01*
X797400Y131500D01*
D02*
G37*
G36*
X865423Y370850D02*
X865995Y370278D01*
Y361410D01*
X866102Y360873D01*
X866407Y360417D01*
X866862Y360112D01*
X867400Y360005D01*
X867938Y360112D01*
X868393Y360417D01*
X868698Y360873D01*
X868805Y361410D01*
Y370850D01*
X970363Y370850D01*
X984463Y356750D01*
Y63950D01*
X959263Y38750D01*
X947763D01*
Y184450D01*
X954163Y190850D01*
Y318437D01*
X950650Y321950D01*
X859950Y321950D01*
X851750Y313750D01*
X828850D01*
X821163Y321437D01*
X821163Y349550D01*
X842463Y370850D01*
X865423D01*
D02*
G37*
G36*
X422500Y52800D02*
X426600Y48700D01*
X464300Y48700D01*
X469500Y43500D01*
X469500Y35000D01*
X464500Y30000D01*
X413000D01*
X407500Y35500D01*
X407500Y43200D01*
X416000Y51700D01*
X416000Y92500D01*
X422500D01*
Y52800D01*
D02*
G37*
G36*
X734252Y197D02*
X734170Y0D01*
X675197D01*
X671457Y5610D01*
Y20472D01*
X675295Y24311D01*
X734252D01*
Y197D01*
D02*
G37*
G36*
X657677Y20472D02*
Y5512D01*
X654232Y0D01*
X600336D01*
X600295Y98D01*
Y24508D01*
X653642D01*
X657677Y20472D01*
D02*
G37*
%LPC*%
G36*
X666819Y496665D02*
X662094D01*
Y495303D01*
X657862D01*
Y496665D01*
X653138D01*
Y492335D01*
X656272D01*
Y491325D01*
X656333Y491018D01*
X656507Y490758D01*
X657653Y489612D01*
X657381Y488955D01*
X657281Y488200D01*
X657381Y487445D01*
X657672Y486741D01*
X658136Y486136D01*
X658741Y485672D01*
X659445Y485381D01*
X660200Y485281D01*
X660955Y485381D01*
X661659Y485672D01*
X662264Y486136D01*
X662728Y486741D01*
X663019Y487445D01*
X663119Y488200D01*
X663019Y488955D01*
X662728Y489659D01*
X662264Y490264D01*
X661659Y490728D01*
X660955Y491019D01*
X660200Y491119D01*
X659445Y491019D01*
X658788Y490747D01*
X657878Y491658D01*
Y493122D01*
X657878Y493122D01*
X657862Y493200D01*
Y493697D01*
X662094D01*
Y492335D01*
X666819D01*
Y496665D01*
D02*
G37*
G36*
X677862Y483665D02*
X673138D01*
Y482905D01*
X669862D01*
Y483665D01*
X665138D01*
Y482905D01*
X662320D01*
X661783Y482798D01*
X661327Y482493D01*
X659790Y480956D01*
X659155Y481219D01*
X658400Y481319D01*
X657645Y481219D01*
X656941Y480928D01*
X656336Y480464D01*
X655872Y479859D01*
X655581Y479155D01*
X655481Y478400D01*
X655581Y477645D01*
X655872Y476941D01*
X655900Y476905D01*
X655653Y476405D01*
X612600D01*
X612062Y476298D01*
X611607Y475993D01*
X602281Y466668D01*
X602052Y466750D01*
X601831Y466925D01*
X601919Y467588D01*
X601819Y468344D01*
X601528Y469047D01*
X601064Y469652D01*
X600459Y470116D01*
X599755Y470407D01*
X599000Y470507D01*
X598245Y470407D01*
X597541Y470116D01*
X596936Y469652D01*
X596472Y469047D01*
X596181Y468344D01*
X596081Y467588D01*
X596181Y466833D01*
X596472Y466129D01*
X596936Y465524D01*
X597541Y465061D01*
X598245Y464769D01*
X599000Y464670D01*
X599663Y464757D01*
X599838Y464536D01*
X599920Y464307D01*
X599110Y463497D01*
X599055Y463519D01*
X598300Y463619D01*
X597545Y463519D01*
X596841Y463228D01*
X596236Y462764D01*
X595772Y462159D01*
X595481Y461455D01*
X595381Y460700D01*
X595481Y459945D01*
X595772Y459241D01*
X596236Y458636D01*
X596841Y458172D01*
X597545Y457881D01*
X598300Y457781D01*
X599055Y457881D01*
X599759Y458172D01*
X600364Y458636D01*
X600828Y459241D01*
X601119Y459945D01*
X601219Y460700D01*
X601119Y461455D01*
X601097Y461510D01*
X613182Y473595D01*
X655418D01*
X657807Y471207D01*
X658262Y470902D01*
X658800Y470795D01*
X674520D01*
Y469138D01*
X678850D01*
Y473862D01*
X674520D01*
Y473605D01*
X659382D01*
X657951Y475036D01*
X658184Y475510D01*
X658400Y475481D01*
X659155Y475581D01*
X659859Y475872D01*
X660464Y476336D01*
X660928Y476941D01*
X661219Y477645D01*
X661319Y478400D01*
X661306Y478499D01*
X662902Y480095D01*
X665138D01*
Y479335D01*
X669862D01*
Y480095D01*
X673138D01*
Y479335D01*
X677862D01*
Y483665D01*
D02*
G37*
G36*
X650776Y496665D02*
X646051D01*
Y492335D01*
X649443D01*
X651297Y490481D01*
Y486000D01*
X650641Y485728D01*
X650036Y485264D01*
X649572Y484659D01*
X649281Y483955D01*
X649181Y483200D01*
X649281Y482445D01*
X649572Y481741D01*
X650036Y481136D01*
X650641Y480672D01*
X651345Y480381D01*
X652100Y480281D01*
X652855Y480381D01*
X653559Y480672D01*
X654164Y481136D01*
X654628Y481741D01*
X654919Y482445D01*
X655019Y483200D01*
X654919Y483955D01*
X654628Y484659D01*
X654164Y485264D01*
X653559Y485728D01*
X652903Y486000D01*
Y490813D01*
X652842Y491121D01*
X652668Y491381D01*
X650776Y493273D01*
Y496665D01*
D02*
G37*
G36*
X815362Y473665D02*
X810638D01*
Y469335D01*
X815362D01*
Y470095D01*
X820032D01*
Y469531D01*
X823969D01*
Y473468D01*
X820032D01*
Y472905D01*
X815362D01*
Y473665D01*
D02*
G37*
G36*
X830268Y473468D02*
X826331D01*
Y469531D01*
X826895D01*
Y468182D01*
X824555Y465842D01*
X820469D01*
Y466602D01*
X816531D01*
Y462272D01*
X820469D01*
Y463032D01*
X825137D01*
X825675Y463139D01*
X826130Y463444D01*
X829293Y466607D01*
X829598Y467062D01*
X829705Y467600D01*
Y469531D01*
X830268D01*
Y473468D01*
D02*
G37*
G36*
X732165Y467776D02*
X727835D01*
Y463051D01*
X729197D01*
Y459406D01*
X727835D01*
Y454681D01*
X732165D01*
Y455717D01*
X737415D01*
X737584Y455423D01*
X738123Y454884D01*
X738783Y454503D01*
X739519Y454306D01*
X740281D01*
X741017Y454503D01*
X741677Y454884D01*
X742215Y455423D01*
X742596Y456083D01*
X742794Y456819D01*
Y457581D01*
X742596Y458317D01*
X742215Y458977D01*
X741677Y459515D01*
X741017Y459897D01*
X740281Y460094D01*
X739519D01*
X738783Y459897D01*
X738123Y459515D01*
X737584Y458977D01*
X737324Y458527D01*
X732165D01*
Y459406D01*
X730803D01*
Y463051D01*
X732165D01*
Y467776D01*
D02*
G37*
G36*
X981197Y471398D02*
X979055D01*
X976932Y471118D01*
X974863Y470564D01*
X972884Y469744D01*
X971029Y468673D01*
X969330Y467369D01*
X967816Y465855D01*
X966512Y464156D01*
X965441Y462301D01*
X964621Y460322D01*
X964067Y458253D01*
X963787Y456130D01*
Y453988D01*
X964067Y451865D01*
X964621Y449796D01*
X965441Y447817D01*
X966512Y445962D01*
X967816Y444263D01*
X969330Y442749D01*
X971029Y441445D01*
X972884Y440374D01*
X974863Y439554D01*
X976932Y439000D01*
X979055Y438721D01*
X981197D01*
X983320Y439000D01*
X985389Y439554D01*
X987368Y440374D01*
X989223Y441445D01*
X990922Y442749D01*
X992436Y444263D01*
X993740Y445962D01*
X994811Y447817D01*
X995631Y449796D01*
X996185Y451865D01*
X996465Y453988D01*
Y456130D01*
X996185Y458253D01*
X995631Y460322D01*
X994811Y462301D01*
X993740Y464156D01*
X992436Y465855D01*
X990922Y467369D01*
X989223Y468673D01*
X987368Y469744D01*
X985389Y470564D01*
X983320Y471118D01*
X981197Y471398D01*
D02*
G37*
G36*
X806581Y435594D02*
X805819D01*
X805083Y435396D01*
X804423Y435015D01*
X803885Y434477D01*
X803504Y433817D01*
X803306Y433081D01*
Y432319D01*
X803417Y431904D01*
X799218Y427705D01*
X795800D01*
X795262Y427598D01*
X794806Y427293D01*
X792106Y424593D01*
X791802Y424138D01*
X791695Y423600D01*
Y416005D01*
X760605D01*
Y416765D01*
X755881D01*
Y412435D01*
X760605D01*
Y413195D01*
X805507D01*
X813650Y405052D01*
Y402138D01*
X817980D01*
Y402859D01*
X822103D01*
X822370Y402359D01*
X822293Y402242D01*
X822186Y401705D01*
X822293Y401167D01*
X822370Y401051D01*
X822103Y400551D01*
X819386D01*
X818848Y400444D01*
X818392Y400139D01*
X817919Y399665D01*
X815181D01*
Y395335D01*
X819905D01*
Y397678D01*
X819968Y397741D01*
X822103D01*
X822370Y397241D01*
X822293Y397124D01*
X822186Y396587D01*
X822293Y396049D01*
X822597Y395593D01*
X823053Y395289D01*
X823591Y395182D01*
X823678D01*
Y392862D01*
X822835D01*
Y388138D01*
X827165D01*
Y392862D01*
X826488D01*
Y395182D01*
X826740D01*
X827278Y395289D01*
X827734Y395593D01*
X828038Y396049D01*
X828145Y396587D01*
X828038Y397124D01*
X827747Y397560D01*
X827680Y397692D01*
Y398040D01*
X827747Y398172D01*
X828038Y398608D01*
X828145Y399146D01*
X828038Y399683D01*
X827747Y400119D01*
X827680Y400251D01*
Y400599D01*
X827747Y400732D01*
X828038Y401167D01*
X828145Y401705D01*
X828038Y402242D01*
X827734Y402698D01*
X827680Y402734D01*
Y403234D01*
X827734Y403270D01*
X828038Y403726D01*
X828145Y404264D01*
X828038Y404801D01*
X827747Y405237D01*
X827680Y405369D01*
Y405718D01*
X827747Y405850D01*
X828038Y406285D01*
X828145Y406823D01*
X828038Y407361D01*
X827734Y407816D01*
X827680Y407852D01*
Y408352D01*
X827734Y408388D01*
X828038Y408844D01*
X828145Y409382D01*
X828038Y409920D01*
X827734Y410375D01*
X827278Y410680D01*
X826740Y410787D01*
X816696D01*
X806490Y420994D01*
X806034Y421298D01*
X805496Y421405D01*
X801330D01*
X801116Y421777D01*
X800577Y422316D01*
X799917Y422696D01*
X799181Y422894D01*
X798419D01*
X797683Y422696D01*
X797023Y422316D01*
X796485Y421777D01*
X796103Y421117D01*
X795906Y420381D01*
Y419619D01*
X796103Y418883D01*
X796485Y418223D01*
X797023Y417685D01*
X797683Y417304D01*
X798419Y417106D01*
X799181D01*
X799917Y417304D01*
X800577Y417685D01*
X801116Y418223D01*
X801330Y418595D01*
X804914D01*
X815121Y408388D01*
X815577Y408084D01*
X816115Y407977D01*
X822103D01*
X822370Y407477D01*
X822293Y407361D01*
X822186Y406823D01*
X822293Y406285D01*
X822370Y406169D01*
X822103Y405669D01*
X817980D01*
Y406862D01*
X815814D01*
X807082Y415593D01*
X806627Y415898D01*
X806089Y416005D01*
X794505D01*
Y423018D01*
X796382Y424895D01*
X799800D01*
X800338Y425002D01*
X800793Y425307D01*
X805404Y429917D01*
X805819Y429806D01*
X806581D01*
X807317Y430003D01*
X807977Y430384D01*
X808515Y430923D01*
X808897Y431583D01*
X809094Y432319D01*
Y433081D01*
X808897Y433817D01*
X808515Y434477D01*
X807977Y435015D01*
X807317Y435396D01*
X806581Y435594D01*
D02*
G37*
G36*
X858281Y430494D02*
X857519D01*
X856783Y430297D01*
X856123Y429916D01*
X855585Y429377D01*
X855204Y428717D01*
X855006Y427981D01*
Y427219D01*
X855162Y426638D01*
X849547Y421023D01*
X846425D01*
X845888Y420916D01*
X845432Y420612D01*
X845127Y420156D01*
X845020Y419618D01*
X845127Y419080D01*
X845432Y418625D01*
X845888Y418320D01*
X846425Y418213D01*
X849575D01*
X850112Y418320D01*
X850568Y418625D01*
X850873Y419080D01*
X850973Y419583D01*
X856472Y425083D01*
X856783Y424903D01*
X857519Y424706D01*
X858281D01*
X859017Y424903D01*
X859677Y425284D01*
X860215Y425823D01*
X860596Y426483D01*
X860794Y427219D01*
Y427981D01*
X860596Y428717D01*
X860215Y429377D01*
X859677Y429916D01*
X859017Y430297D01*
X858281Y430494D01*
D02*
G37*
G36*
X863481Y425394D02*
X862719D01*
X861983Y425197D01*
X861323Y424816D01*
X860785Y424277D01*
X860404Y423617D01*
X860206Y422881D01*
Y422119D01*
X860404Y421383D01*
X860457Y421290D01*
X854680Y415513D01*
X850539D01*
X850112Y415798D01*
X849575Y415905D01*
X846425D01*
X845888Y415798D01*
X845432Y415493D01*
X845127Y415038D01*
X845020Y414500D01*
X845127Y413962D01*
X845432Y413507D01*
X845888Y413202D01*
X846425Y413095D01*
X849575D01*
X850112Y413202D01*
X850539Y413487D01*
X855100D01*
X855488Y413564D01*
X855816Y413784D01*
X861890Y419857D01*
X861983Y419803D01*
X862719Y419606D01*
X863481D01*
X864217Y419803D01*
X864877Y420185D01*
X865415Y420723D01*
X865796Y421383D01*
X865994Y422119D01*
Y422881D01*
X865796Y423617D01*
X865415Y424277D01*
X864877Y424816D01*
X864217Y425197D01*
X863481Y425394D01*
D02*
G37*
G36*
X754118Y431035D02*
X747228D01*
Y422965D01*
X748752D01*
Y416808D01*
X745523D01*
Y416962D01*
X741192D01*
Y414813D01*
X741150Y414600D01*
X741192Y414387D01*
Y412238D01*
X745523D01*
Y412392D01*
X751157D01*
X751370Y412435D01*
X753519D01*
Y416765D01*
X753168D01*
Y422965D01*
X754118D01*
Y431035D01*
D02*
G37*
G36*
X873481Y420494D02*
X872719D01*
X871983Y420296D01*
X871323Y419915D01*
X870784Y419377D01*
X870570Y419005D01*
X863413D01*
X862875Y418898D01*
X862420Y418594D01*
X854613Y410787D01*
X846425D01*
X845888Y410680D01*
X845432Y410375D01*
X845127Y409920D01*
X845020Y409382D01*
X845127Y408844D01*
X845418Y408409D01*
X845486Y408277D01*
Y407928D01*
X845418Y407796D01*
X845127Y407361D01*
X845020Y406823D01*
X845127Y406285D01*
X845418Y405850D01*
X845486Y405718D01*
Y405369D01*
X845418Y405237D01*
X845127Y404801D01*
X845020Y404264D01*
X845127Y403726D01*
X845418Y403291D01*
X845486Y403159D01*
Y402810D01*
X845418Y402678D01*
X845127Y402242D01*
X845020Y401705D01*
X845127Y401167D01*
X845418Y400732D01*
X845486Y400599D01*
Y400251D01*
X845418Y400119D01*
X845127Y399683D01*
X845020Y399146D01*
X845127Y398608D01*
X845418Y398172D01*
X845486Y398040D01*
Y397692D01*
X845418Y397560D01*
X845127Y397124D01*
X845020Y396587D01*
X845127Y396049D01*
X845432Y395593D01*
X845888Y395289D01*
X846425Y395182D01*
X846595D01*
Y392823D01*
X845638D01*
Y391927D01*
X842906D01*
Y392665D01*
X838181D01*
Y388335D01*
X842906D01*
Y389117D01*
X845638D01*
Y388492D01*
X850362D01*
Y389117D01*
X852835D01*
Y388181D01*
X857165D01*
Y392905D01*
X852835D01*
Y391927D01*
X850362D01*
Y392823D01*
X849405D01*
Y395182D01*
X849575D01*
X850112Y395289D01*
X850568Y395593D01*
X850873Y396049D01*
X850980Y396587D01*
X850873Y397124D01*
X850795Y397241D01*
X851062Y397741D01*
X853012D01*
X853542Y397211D01*
X853998Y396907D01*
X854535Y396800D01*
X857094D01*
Y395335D01*
X861819D01*
Y399245D01*
X871468D01*
X874194Y396519D01*
X873903Y396017D01*
X873706Y395281D01*
Y394519D01*
X873903Y393783D01*
X874284Y393123D01*
X874823Y392584D01*
X875483Y392203D01*
X876219Y392006D01*
X876981D01*
X877717Y392203D01*
X878377Y392584D01*
X878916Y393123D01*
X879296Y393783D01*
X879494Y394519D01*
Y395281D01*
X879296Y396017D01*
X878916Y396677D01*
X878377Y397216D01*
X877717Y397597D01*
X876981Y397794D01*
X876794D01*
X876593Y398093D01*
X873044Y401643D01*
X872588Y401948D01*
X872050Y402055D01*
X861973D01*
X861508Y402138D01*
Y406862D01*
X858656D01*
X858465Y407324D01*
X860836Y409695D01*
X875070D01*
X875284Y409323D01*
X875823Y408784D01*
X876483Y408403D01*
X877219Y408206D01*
X877981D01*
X878717Y408403D01*
X879377Y408784D01*
X879916Y409323D01*
X880297Y409983D01*
X880494Y410719D01*
Y411481D01*
X880297Y412217D01*
X879916Y412877D01*
X879377Y413415D01*
X878717Y413797D01*
X877981Y413994D01*
X877219D01*
X876483Y413797D01*
X875823Y413415D01*
X875284Y412877D01*
X875070Y412505D01*
X860958D01*
X860767Y412967D01*
X863995Y416195D01*
X870570D01*
X870784Y415823D01*
X871323Y415284D01*
X871983Y414903D01*
X872719Y414706D01*
X873481D01*
X874217Y414903D01*
X874877Y415284D01*
X875416Y415823D01*
X875797Y416483D01*
X875994Y417219D01*
Y417981D01*
X875797Y418717D01*
X875416Y419377D01*
X874877Y419915D01*
X874217Y420296D01*
X873481Y420494D01*
D02*
G37*
G36*
X737642Y417208D02*
X729000D01*
X728155Y417040D01*
X727439Y416561D01*
X726960Y415845D01*
X726792Y415000D01*
X726960Y414155D01*
X727439Y413439D01*
X728155Y412960D01*
X729000Y412792D01*
X736851D01*
X737198Y412560D01*
X738042Y412392D01*
X738887Y412560D01*
X739604Y413039D01*
X740082Y413755D01*
X740250Y414600D01*
X740082Y415445D01*
X739604Y416161D01*
X739204Y416561D01*
X738487Y417040D01*
X737642Y417208D01*
D02*
G37*
G36*
X788681Y410794D02*
X787919D01*
X787183Y410597D01*
X786523Y410216D01*
X785985Y409677D01*
X785604Y409017D01*
X785406Y408281D01*
Y407519D01*
X785604Y406783D01*
X785985Y406123D01*
X786523Y405584D01*
X787183Y405203D01*
X787919Y405006D01*
X788681D01*
X789417Y405203D01*
X790077Y405584D01*
X790616Y406123D01*
X790997Y406783D01*
X791194Y407519D01*
Y408281D01*
X790997Y409017D01*
X790616Y409677D01*
X790077Y410216D01*
X789417Y410597D01*
X788681Y410794D01*
D02*
G37*
G36*
X799181Y411494D02*
X798419D01*
X797683Y411297D01*
X797023Y410916D01*
X796485Y410377D01*
X796103Y409717D01*
X795906Y408981D01*
Y408219D01*
X796103Y407483D01*
X796485Y406823D01*
X797023Y406285D01*
X797683Y405903D01*
X798419Y405706D01*
X799181D01*
X799880Y405894D01*
X808095Y397678D01*
Y395335D01*
X812819D01*
Y399665D01*
X810081D01*
X801659Y408088D01*
X801694Y408219D01*
Y408981D01*
X801497Y409717D01*
X801116Y410377D01*
X800577Y410916D01*
X799917Y411297D01*
X799181Y411494D01*
D02*
G37*
G36*
X821850Y392862D02*
X817520D01*
Y391905D01*
X814862D01*
Y392665D01*
X810138D01*
Y388335D01*
X814862D01*
Y389095D01*
X817520D01*
Y388138D01*
X821850D01*
Y392862D01*
D02*
G37*
G36*
X623228Y401988D02*
X622921Y401927D01*
X622661Y401753D01*
X622487Y401492D01*
X622426Y401185D01*
X622487Y400878D01*
X622661Y400617D01*
X623846Y399432D01*
X624106Y399258D01*
X624413Y399197D01*
X624721Y399258D01*
X624981Y399432D01*
X625155Y399693D01*
X625216Y400000D01*
X625155Y400307D01*
X624981Y400568D01*
X623796Y401753D01*
X623536Y401927D01*
X623228Y401988D01*
D02*
G37*
G36*
X629881Y388494D02*
X629119D01*
X628383Y388297D01*
X627723Y387915D01*
X627184Y387377D01*
X626809Y386727D01*
X623165D01*
Y387405D01*
X618835D01*
Y382681D01*
X623165D01*
Y383917D01*
X627131D01*
X627184Y383823D01*
X627723Y383284D01*
X628383Y382904D01*
X629119Y382706D01*
X629881D01*
X630617Y382904D01*
X631277Y383284D01*
X631815Y383823D01*
X632197Y384483D01*
X632394Y385219D01*
Y385981D01*
X632197Y386717D01*
X631815Y387377D01*
X631277Y387915D01*
X630617Y388297D01*
X629881Y388494D01*
D02*
G37*
G36*
X957134Y178904D02*
X955899Y178783D01*
X954712Y178423D01*
X953617Y177838D01*
X952658Y177051D01*
X951871Y176091D01*
X951286Y174997D01*
X950926Y173810D01*
X950804Y172575D01*
X950926Y171340D01*
X951286Y170152D01*
X951871Y169058D01*
X952658Y168099D01*
X953617Y167312D01*
X954712Y166727D01*
X955899Y166367D01*
X957134Y166245D01*
X958369Y166367D01*
X959556Y166727D01*
X960650Y167312D01*
X961610Y168099D01*
X962397Y169058D01*
X962982Y170152D01*
X963342Y171340D01*
X963464Y172575D01*
X963342Y173810D01*
X962982Y174997D01*
X962397Y176091D01*
X961610Y177051D01*
X960650Y177838D01*
X959556Y178423D01*
X958369Y178783D01*
X957134Y178904D01*
D02*
G37*
G36*
Y115755D02*
X955899Y115633D01*
X954712Y115273D01*
X953617Y114688D01*
X952658Y113901D01*
X951871Y112942D01*
X951286Y111847D01*
X950926Y110660D01*
X950804Y109425D01*
X950926Y108190D01*
X951286Y107003D01*
X951871Y105909D01*
X952658Y104949D01*
X953617Y104162D01*
X954712Y103577D01*
X955899Y103217D01*
X957134Y103095D01*
X958369Y103217D01*
X959556Y103577D01*
X960650Y104162D01*
X961610Y104949D01*
X962397Y105909D01*
X962982Y107003D01*
X963342Y108190D01*
X963464Y109425D01*
X963342Y110660D01*
X962982Y111847D01*
X962397Y112942D01*
X961610Y113901D01*
X960650Y114688D01*
X959556Y115273D01*
X958369Y115633D01*
X957134Y115755D01*
D02*
G37*
%LPD*%
D11*
X639300Y377743D02*
X639497D01*
X642496Y374744D02*
X649441D01*
X652000Y377303D01*
X639497Y377743D02*
X642496Y374744D01*
X652000Y377303D02*
Y377500D01*
X597800Y390812D02*
Y402332D01*
X601700Y397300D02*
Y402300D01*
X729543Y472043D02*
X730000Y472500D01*
X722000Y472043D02*
X729543D01*
X730000Y457043D02*
Y465413D01*
X598860Y433100D02*
X600000D01*
X586466Y434733D02*
X597227D01*
X598860Y433100D01*
X639300Y377743D02*
Y384000D01*
X571307Y442607D02*
X574400Y445700D01*
X563435Y442607D02*
X571307D01*
X652000Y377500D02*
X658957D01*
X593149Y407232D02*
X597799Y402582D01*
X593071Y407232D02*
X593149D01*
X588533Y407232D02*
X593071Y407232D01*
X597799Y402582D02*
X597800Y402332D01*
X586466Y407174D02*
X588533Y407232D01*
X594858Y409142D02*
X601700Y402300D01*
X586466Y409142D02*
X594858D01*
X671543Y494500D02*
X671740D01*
X673118Y495878D02*
Y496075D01*
X671740Y494500D02*
X673118Y495878D01*
X675643Y498600D02*
X683203D01*
X673118Y496075D02*
X675643Y498600D01*
X690327Y489043D02*
X695295D01*
X682784Y481500D02*
X690327Y489043D01*
X682587Y481500D02*
X682784D01*
X687957Y494043D02*
X695295D01*
X687500Y494500D02*
X687957Y494043D01*
X687303Y494500D02*
X687500D01*
X683203Y498600D02*
X687303Y494500D01*
X649988Y492925D02*
Y493122D01*
Y492925D02*
X652100Y490813D01*
Y483200D02*
Y490813D01*
X648413Y494500D02*
X648610D01*
X649988Y493122D01*
X655697Y494500D02*
X664457D01*
X657075Y491325D02*
Y493122D01*
X655500Y494500D02*
X655697D01*
X657075Y493122D01*
Y491325D02*
X660200Y488200D01*
X556303Y434303D02*
X557855D01*
X555700Y433700D02*
X556303Y434303D01*
X557855D02*
X558285Y434733D01*
X554251Y436702D02*
X563435D01*
X558285Y434733D02*
X563435D01*
X556950Y409350D02*
X558711Y411111D01*
X563435D01*
X556950Y402206D02*
Y409350D01*
X623228Y401185D02*
X624413Y400000D01*
D14*
X572528Y409142D02*
X574950Y411565D01*
Y424891D01*
X563435Y409142D02*
X572528D01*
X574950Y424891D02*
Y437155D01*
X580402Y442607D01*
X586466D01*
X527461Y397638D02*
X529660D01*
X530450Y396847D01*
X526476Y398622D02*
X527461Y397638D01*
X526476Y398622D02*
Y410630D01*
X529864Y414017D01*
Y422391D01*
D15*
X530450Y409550D02*
X538400Y417500D01*
X546000D01*
X530450Y403934D02*
Y409550D01*
X601903Y415048D02*
X602051Y414900D01*
X586466Y411111D02*
X599140D01*
X586466Y415048D02*
X601903D01*
X599140Y411111D02*
X602051Y408200D01*
X553004Y430796D02*
X563435D01*
X549438Y434362D02*
X553004Y430796D01*
X556015Y438685D02*
X558954D01*
X553535Y441165D02*
Y447089D01*
Y441165D02*
X556015Y438685D01*
X558954D02*
X558969Y438670D01*
X563435D01*
X543765Y450194D02*
X549438Y444521D01*
Y434362D02*
Y444521D01*
X545519Y434822D02*
X551513Y428828D01*
X563435D01*
X543950Y436194D02*
Y436391D01*
Y436194D02*
X545322Y434822D01*
X545519D01*
X543734Y456891D02*
X553535Y447089D01*
X543950Y422391D02*
X544147Y422587D01*
X547000D02*
X549303Y424891D01*
X563435D01*
X544147Y422587D02*
X547000D01*
X538519Y405502D02*
X553970Y420954D01*
X563435D01*
X536950Y403934D02*
Y404131D01*
X538322Y405502D01*
X538519D01*
X546000Y417500D02*
X551422Y422922D01*
X563435D01*
X556685Y418985D02*
X563435D01*
X544334Y404817D02*
Y406634D01*
X556685Y418985D01*
X543450Y403934D02*
X544334Y404817D01*
X556950Y448391D02*
Y455347D01*
X559584Y440639D02*
X563435D01*
X557147Y443076D02*
X559584Y440639D01*
X556950Y443076D02*
X557147D01*
X543537Y456891D02*
X543734D01*
X543765Y450194D02*
Y450391D01*
X536950Y422391D02*
X543950D01*
X550200Y404183D02*
Y408995D01*
X558221Y417017D01*
X563435D01*
X549950Y403934D02*
X550200Y404183D01*
D17*
X672141Y434500D02*
X672370Y434271D01*
Y417244D02*
Y434271D01*
Y417244D02*
X672598Y417016D01*
X678500Y407300D02*
X681700D01*
X672598Y413202D02*
X678500Y407300D01*
X672598Y413202D02*
Y417016D01*
X681700Y407300D02*
X689000Y400000D01*
X396606Y100142D02*
Y108142D01*
Y100142D02*
X407339Y89409D01*
X382842Y108142D02*
X396606D01*
X373189Y117794D02*
X382842Y108142D01*
X373189Y117794D02*
Y133489D01*
X382763Y143063D01*
X386500D01*
X368701Y105500D02*
X376500D01*
X380000Y102000D01*
X386500Y143063D02*
X393795D01*
X402161Y134697D02*
X402772D01*
X393795Y143063D02*
X402161Y134697D01*
D20*
X787500Y470000D02*
D03*
Y463701D02*
D03*
D21*
X805500Y464543D02*
D03*
Y457457D02*
D03*
X864657Y404500D02*
D03*
X859342D02*
D03*
X855000Y383457D02*
D03*
Y390543D02*
D03*
X825000Y390500D02*
D03*
X819685D02*
D03*
X810500Y404500D02*
D03*
X815815D02*
D03*
X743358Y414600D02*
D03*
X738042D02*
D03*
X730000Y449957D02*
D03*
Y457043D02*
D03*
Y472500D02*
D03*
Y465413D02*
D03*
X682000Y471500D02*
D03*
X676685D02*
D03*
X646685Y377500D02*
D03*
X652000D02*
D03*
X556950Y462434D02*
D03*
Y455347D02*
D03*
X538450Y450391D02*
D03*
X543765D02*
D03*
X543950Y436391D02*
D03*
Y443477D02*
D03*
Y429477D02*
D03*
Y422391D02*
D03*
X549950Y403934D02*
D03*
Y396847D02*
D03*
X543450Y403934D02*
D03*
Y396847D02*
D03*
X536950Y403934D02*
D03*
Y396847D02*
D03*
X530450Y403934D02*
D03*
Y396847D02*
D03*
X485000Y259957D02*
D03*
Y267043D02*
D03*
X541000Y199457D02*
D03*
Y206543D02*
D03*
X445650Y88685D02*
D03*
Y81598D02*
D03*
X453150D02*
D03*
Y88685D02*
D03*
X460150Y81642D02*
D03*
Y88728D02*
D03*
X794000Y470543D02*
D03*
Y463457D02*
D03*
X621000Y385043D02*
D03*
Y377957D02*
D03*
D22*
X818500Y464437D02*
D03*
X822240Y456563D02*
D03*
X814760D02*
D03*
D23*
X828299Y471500D02*
D03*
X822000D02*
D03*
D24*
X825165Y419618D02*
D03*
Y414500D02*
D03*
Y409382D02*
D03*
Y406823D02*
D03*
Y404264D02*
D03*
Y401705D02*
D03*
Y399146D02*
D03*
Y396587D02*
D03*
X848000Y419618D02*
D03*
Y414500D02*
D03*
Y409382D02*
D03*
Y406823D02*
D03*
Y404264D02*
D03*
Y401705D02*
D03*
Y399146D02*
D03*
Y396587D02*
D03*
D25*
X836583Y408102D02*
D03*
D26*
X859457Y397500D02*
D03*
X866543D02*
D03*
X848000Y385343D02*
D03*
Y390657D02*
D03*
X840543Y390500D02*
D03*
X833457D02*
D03*
X812500D02*
D03*
X805413D02*
D03*
X810457Y397500D02*
D03*
X817543D02*
D03*
X758243Y414600D02*
D03*
X751157D02*
D03*
X687500Y494500D02*
D03*
X680413D02*
D03*
X675500Y481500D02*
D03*
X682587D02*
D03*
X667500D02*
D03*
Y476185D02*
D03*
X664457Y494500D02*
D03*
X671543D02*
D03*
X622343Y454100D02*
D03*
X615257D02*
D03*
X659500Y389657D02*
D03*
Y384343D02*
D03*
X666043Y377500D02*
D03*
X658957D02*
D03*
X639543D02*
D03*
X632457D02*
D03*
X556950Y443076D02*
D03*
Y448391D02*
D03*
X543537Y456891D02*
D03*
X536450D02*
D03*
X556950Y396891D02*
D03*
Y402206D02*
D03*
X536950Y422391D02*
D03*
X529864D02*
D03*
X523857Y219900D02*
D03*
X530943D02*
D03*
X396606Y108142D02*
D03*
X403693D02*
D03*
X322150Y115909D02*
D03*
X315063D02*
D03*
X813000Y471500D02*
D03*
X805913D02*
D03*
X648413Y494500D02*
D03*
X655500D02*
D03*
X624413Y400000D02*
D03*
X631500D02*
D03*
Y407000D02*
D03*
X624413D02*
D03*
X617500Y401185D02*
D03*
Y406500D02*
D03*
D27*
X907200Y181601D02*
D03*
Y169199D02*
D03*
X897100D02*
D03*
Y181601D02*
D03*
X886700Y169299D02*
D03*
Y181701D02*
D03*
X876700Y169499D02*
D03*
Y181901D02*
D03*
X866400Y169599D02*
D03*
Y182001D02*
D03*
X640400Y438199D02*
D03*
Y450601D02*
D03*
X494457Y266910D02*
D03*
Y254509D02*
D03*
X505457Y266910D02*
D03*
Y254509D02*
D03*
D28*
X750673Y427000D02*
D03*
X740240D02*
D03*
X668240Y385000D02*
D03*
X678673D02*
D03*
D29*
X719705Y489043D02*
D03*
Y494043D02*
D03*
X695295Y489043D02*
D03*
Y494043D02*
D03*
D30*
X722000Y452043D02*
D03*
Y472043D02*
D03*
X695500Y452043D02*
D03*
D31*
Y472043D02*
D03*
D32*
X651800Y468602D02*
D03*
Y456398D02*
D03*
X638600Y468702D02*
D03*
Y456498D02*
D03*
X838650Y134457D02*
D03*
Y146661D02*
D03*
X852650Y134457D02*
D03*
Y146661D02*
D03*
X942000Y312898D02*
D03*
Y325102D02*
D03*
X864500Y315898D02*
D03*
Y328102D02*
D03*
D33*
X672141Y434500D02*
D03*
X649700D02*
D03*
X933780Y74000D02*
D03*
X956221D02*
D03*
D34*
X647795Y408000D02*
D03*
D35*
X672598Y417016D02*
D03*
Y398984D02*
D03*
D36*
X631400Y439000D02*
D03*
Y450417D02*
D03*
X512500Y210209D02*
D03*
Y198791D02*
D03*
X532500Y210209D02*
D03*
Y198791D02*
D03*
D37*
X574950Y424891D02*
D03*
D38*
X586466Y407174D02*
D03*
Y409142D02*
D03*
Y411111D02*
D03*
Y415048D02*
D03*
Y418985D02*
D03*
Y422922D02*
D03*
Y426859D02*
D03*
Y430796D02*
D03*
Y434733D02*
D03*
Y438670D02*
D03*
Y440639D02*
D03*
Y442607D02*
D03*
X563435Y407174D02*
D03*
Y409142D02*
D03*
Y411111D02*
D03*
Y413080D02*
D03*
Y415048D02*
D03*
Y417017D02*
D03*
Y418985D02*
D03*
Y420954D02*
D03*
Y422922D02*
D03*
Y424891D02*
D03*
Y426859D02*
D03*
Y428828D02*
D03*
Y430796D02*
D03*
Y432765D02*
D03*
Y434733D02*
D03*
Y436702D02*
D03*
Y438670D02*
D03*
Y440639D02*
D03*
Y442607D02*
D03*
D39*
X564242Y387891D02*
D03*
X575659D02*
D03*
X564242Y398391D02*
D03*
X575659D02*
D03*
D40*
X564635Y378800D02*
D03*
X573100D02*
D03*
D41*
X584450Y397391D02*
D03*
Y388926D02*
D03*
X514957Y256477D02*
D03*
Y264942D02*
D03*
X316150Y98945D02*
D03*
Y107409D02*
D03*
Y132642D02*
D03*
Y124177D02*
D03*
D42*
X491500Y210472D02*
D03*
X496500D02*
D03*
X501500D02*
D03*
X491500Y244528D02*
D03*
X496500D02*
D03*
X501500D02*
D03*
D43*
X478200Y236898D02*
D03*
Y249102D02*
D03*
D44*
X543177Y236000D02*
D03*
X560500D02*
D03*
X543177Y253500D02*
D03*
X560500D02*
D03*
X543177Y271000D02*
D03*
X560500D02*
D03*
X543177Y288000D02*
D03*
X560500D02*
D03*
X543177Y305000D02*
D03*
X560500D02*
D03*
X655839Y13000D02*
D03*
X673161D02*
D03*
D45*
X541205Y340000D02*
D03*
X566795D02*
D03*
X520795Y413500D02*
D03*
X495205D02*
D03*
D46*
X572000Y327500D02*
D03*
Y310177D02*
D03*
X406000Y188661D02*
D03*
Y171339D02*
D03*
X388500Y188661D02*
D03*
Y171339D02*
D03*
D47*
X456350Y97409D02*
D03*
X443949D02*
D03*
D48*
X360400Y164405D02*
D03*
Y189995D02*
D03*
X494600Y390000D02*
D03*
Y364409D02*
D03*
D49*
X386500Y143063D02*
D03*
Y155937D02*
D03*
D50*
X395500Y150740D02*
D03*
Y143260D02*
D03*
X365701Y105500D02*
D03*
Y115500D02*
D03*
X328299Y105500D02*
D03*
Y115500D02*
D03*
D51*
X402772Y116587D02*
D03*
Y125642D02*
D03*
Y134697D02*
D03*
D52*
X380528Y125642D02*
D03*
D93*
X926878Y35283D02*
D03*
X962311D02*
D03*
X395528Y81693D02*
D03*
X430961D02*
D03*
X414961Y165256D02*
D03*
X419783Y160433D02*
D03*
X424311Y155807D02*
D03*
X429035Y149902D02*
D03*
X429331Y142126D02*
D03*
X426575Y134941D02*
D03*
X440158Y107677D02*
D03*
X436909Y113681D02*
D03*
X433169Y119390D02*
D03*
X428937Y124902D02*
D03*
X423917Y128642D02*
D03*
X805906Y129921D02*
D03*
X817520Y130020D02*
D03*
X805610Y122047D02*
D03*
X817618Y121457D02*
D03*
X926280Y61122D02*
D03*
X937894Y61221D02*
D03*
X925984Y53248D02*
D03*
X937992Y52658D02*
D03*
X911024Y78642D02*
D03*
X922638Y78740D02*
D03*
X910728Y70768D02*
D03*
X922736Y70177D02*
D03*
X909153Y145768D02*
D03*
X920768Y145866D02*
D03*
X908858Y137894D02*
D03*
X920866Y137303D02*
D03*
X838681Y127067D02*
D03*
X850295Y127165D02*
D03*
X838386Y119193D02*
D03*
X850394Y118602D02*
D03*
X875591Y158366D02*
D03*
X887205Y158465D02*
D03*
X875295Y150492D02*
D03*
X887303Y149902D02*
D03*
X926083Y172146D02*
D03*
X937697Y172244D02*
D03*
X925787Y164272D02*
D03*
X937795Y163681D02*
D03*
X929232Y217028D02*
D03*
X940847Y217126D02*
D03*
X928937Y209154D02*
D03*
X940945Y208563D02*
D03*
X928642Y234842D02*
D03*
X940256Y234941D02*
D03*
X928347Y226969D02*
D03*
X940354Y226378D02*
D03*
X928937Y252658D02*
D03*
X940551Y252756D02*
D03*
X928642Y244783D02*
D03*
X940650Y244193D02*
D03*
X929035Y283268D02*
D03*
X940650Y283366D02*
D03*
X928740Y275394D02*
D03*
X940748Y274803D02*
D03*
X940354Y292224D02*
D03*
X928347Y292815D02*
D03*
X940256Y300787D02*
D03*
X928642Y300689D02*
D03*
X920768Y310335D02*
D03*
X880217Y308071D02*
D03*
X908957Y300886D02*
D03*
X890354Y301083D02*
D03*
X899705Y301181D02*
D03*
X830217Y456299D02*
D03*
X779528Y471161D02*
D03*
X817224Y426083D02*
D03*
X826378Y425886D02*
D03*
X836614Y425787D02*
D03*
X883760Y403150D02*
D03*
X867028Y389961D02*
D03*
X795669Y391142D02*
D03*
X823228Y381693D02*
D03*
X830315Y381890D02*
D03*
X837894Y381594D02*
D03*
X867717Y495768D02*
D03*
X875984Y495571D02*
D03*
X884842D02*
D03*
X894094Y495177D02*
D03*
X903445Y495079D02*
D03*
X911516Y495472D02*
D03*
X920571Y495374D02*
D03*
X929429Y495669D02*
D03*
X939173Y495177D02*
D03*
X948720Y495669D02*
D03*
X857185Y495472D02*
D03*
X844390Y496358D02*
D03*
X835335Y496654D02*
D03*
X826772Y496555D02*
D03*
X817717Y496752D02*
D03*
X809055Y496654D02*
D03*
X799213Y496752D02*
D03*
X790551D02*
D03*
X781496D02*
D03*
X773425Y496949D02*
D03*
X653445Y383858D02*
D03*
X647342Y390059D02*
D03*
X647441Y383858D02*
D03*
X537500Y495768D02*
D03*
X546260Y495472D02*
D03*
X554331D02*
D03*
X562402Y496063D02*
D03*
X570472Y495866D02*
D03*
X578248D02*
D03*
X586319Y495472D02*
D03*
X594193Y495079D02*
D03*
X603150Y495276D02*
D03*
X694587Y462303D02*
D03*
X626083Y468209D02*
D03*
X612747Y495278D02*
D03*
X621163Y495355D02*
D03*
X629733Y495278D02*
D03*
X639468Y495276D02*
D03*
X527756Y458169D02*
D03*
X530610Y466043D02*
D03*
X537795Y469980D02*
D03*
X546161Y470669D02*
D03*
X491240Y275689D02*
D03*
X599000Y467588D02*
D03*
X597800Y390812D02*
D03*
X591700Y390300D02*
D03*
X602051Y414900D02*
D03*
X601700Y397300D02*
D03*
X602051Y408200D02*
D03*
X598300Y460700D02*
D03*
X658400Y478400D02*
D03*
X876600Y394900D02*
D03*
X877600Y411100D02*
D03*
X873100Y417600D02*
D03*
X863100Y422500D02*
D03*
X857900Y427600D02*
D03*
X798800Y408600D02*
D03*
X788300Y407900D02*
D03*
X788000Y419800D02*
D03*
X798800Y420000D02*
D03*
X806200Y432700D02*
D03*
X815100Y438800D02*
D03*
X814600Y449100D02*
D03*
X739900Y457200D02*
D03*
X629500Y385600D02*
D03*
X600000Y433100D02*
D03*
X681600Y393900D02*
D03*
X639300Y384000D02*
D03*
X574400Y445700D02*
D03*
X652100Y483200D02*
D03*
X660200Y488200D02*
D03*
X597500Y423100D02*
D03*
X592900Y427100D02*
D03*
X592000Y401200D02*
D03*
X593200Y418900D02*
D03*
X510600Y217000D02*
D03*
X461800Y239200D02*
D03*
X510800Y286400D02*
D03*
X488000Y284900D02*
D03*
X552700Y73700D02*
D03*
X560600Y60700D02*
D03*
X438100Y88300D02*
D03*
X452900Y73600D02*
D03*
X471800Y82400D02*
D03*
X917000Y180500D02*
D03*
X861300Y189600D02*
D03*
X380000Y102000D02*
D03*
X412000Y108000D02*
D03*
D94*
X938689Y43000D02*
D03*
X407339Y89409D02*
D03*
D95*
X950500Y43000D02*
D03*
X419150Y89409D02*
D03*
D108*
X955854Y129780D02*
D03*
Y152220D02*
D03*
X933413D02*
D03*
D109*
Y129780D02*
D03*
D110*
X957134Y109425D02*
D03*
Y172575D02*
D03*
D116*
X320079Y86516D02*
X328299Y94736D01*
Y105500D01*
X292126Y86516D02*
X320079D01*
X279823Y98819D02*
X292126Y86516D01*
X279823Y98819D02*
Y119291D01*
X289370Y128839D01*
Y117028D02*
X304942Y132600D01*
X289370Y105217D02*
X295642Y98945D01*
X584450Y390694D02*
X584844Y390300D01*
X584450Y388284D02*
Y390993D01*
Y390694D02*
Y390993D01*
X584844Y390300D02*
X591700D01*
X516600Y219900D02*
X523857D01*
X513900Y222600D02*
X516600Y219900D01*
X496500Y212638D02*
X506462Y222600D01*
X513900D01*
X496500Y210472D02*
Y212638D01*
X656000Y475000D02*
X658800Y472200D01*
X612600Y475000D02*
X656000D01*
X658800Y472200D02*
X675985D01*
X676685Y471500D01*
X598300Y460700D02*
X612600Y475000D01*
X659220Y478400D02*
X662320Y481500D01*
X658400Y478400D02*
X659220D01*
X662320Y481500D02*
X667500D01*
X295642Y98945D02*
X316150D01*
X322150Y115909D02*
X322354Y115705D01*
X328095D01*
X328299Y115500D01*
X315260Y115909D02*
X316150Y115020D01*
Y107409D02*
Y115020D01*
X315063Y115909D02*
X315260D01*
X316150Y116799D02*
Y124177D01*
X316108Y132600D02*
X316150Y132642D01*
X304942Y132600D02*
X316108D01*
X875600Y396720D02*
X876600Y395720D01*
X875600Y396720D02*
Y397100D01*
X876600Y394900D02*
Y395720D01*
X872050Y400650D02*
X875600Y397100D01*
X857504Y400650D02*
X872050D01*
X860254Y411100D02*
X877600D01*
X855976Y406823D02*
X860254Y411100D01*
X863413Y417600D02*
X873100D01*
X855195Y409382D02*
X863413Y417600D01*
X813400Y432700D02*
X869300D01*
X893600Y388000D02*
Y406200D01*
X893885Y406485D02*
Y408115D01*
X869300Y432700D02*
X893885Y408115D01*
X893600Y406200D02*
X893885Y406485D01*
X799160Y408600D02*
X810260Y397500D01*
X798800Y408600D02*
X799160D01*
X789400Y426237D02*
Y446800D01*
X788000Y419800D02*
X788416Y420216D01*
Y425253D02*
X789400Y426237D01*
X788416Y420216D02*
Y425253D01*
X793100Y414600D02*
Y423600D01*
X795800Y426300D01*
X798800Y420000D02*
X805496D01*
X816115Y409382D01*
X793100Y414600D02*
X806089D01*
X758243D02*
X793100D01*
X795800Y426300D02*
X799800D01*
X806200Y432700D01*
X806089Y414600D02*
X815028Y405661D01*
X814400Y438800D02*
X815100D01*
X800700Y452500D02*
X814400Y438800D01*
X805500Y464347D02*
Y464543D01*
X800700Y459547D02*
X805500Y464347D01*
X800700Y452500D02*
Y459547D01*
X850083Y383457D02*
X855000D01*
Y383260D02*
X888860D01*
X893600Y388000D01*
X797500Y448600D02*
X813400Y432700D01*
X794000Y470346D02*
X797500Y466847D01*
Y448600D02*
Y466847D01*
X794000Y470346D02*
Y470543D01*
X787622Y463579D02*
X793878D01*
X794000Y463457D01*
X787500Y463701D02*
X787622Y463579D01*
X805707Y464750D02*
Y471293D01*
X805913Y471500D01*
X805500Y464543D02*
X805707Y464750D01*
X813000Y471500D02*
X822000D01*
X828300Y467600D02*
Y471499D01*
X828299Y471500D02*
X828300Y471499D01*
X825137Y464437D02*
X828300Y467600D01*
X818500Y464437D02*
X825137D01*
X814760Y456563D02*
Y456760D01*
X805500Y457457D02*
X814063D01*
X814760Y456760D01*
X814680Y456483D02*
X814760Y456563D01*
X814680Y449180D02*
Y456483D01*
X814600Y449100D02*
X814680Y449180D01*
X730078Y457122D02*
X739822D01*
X730000Y457043D02*
X730078Y457122D01*
X739822D02*
X739900Y457200D01*
X848000Y406823D02*
X855976D01*
X747157Y489043D02*
X789400Y446800D01*
X719705Y489043D02*
X747157D01*
X848000Y409382D02*
X855195D01*
X858752Y398205D02*
X859457Y397500D01*
X854535Y398205D02*
X858752D01*
X848000Y401705D02*
X856449D01*
X853594Y399146D02*
X854535Y398205D01*
X848000Y399146D02*
X853594D01*
X856449Y401705D02*
X857504Y400650D01*
X859106Y404264D02*
X859342Y404500D01*
X848000Y404264D02*
X859106D01*
X840565Y390522D02*
X854978D01*
X848000Y390657D02*
Y396587D01*
X840543Y390500D02*
X840565Y390522D01*
X854978D02*
X855000Y390543D01*
X848197Y385343D02*
X850083Y383457D01*
X848000Y385343D02*
X848197D01*
X855000Y383260D02*
X867400Y370860D01*
Y361410D02*
Y370860D01*
X855000Y383260D02*
Y383457D01*
X816051Y404264D02*
X825165D01*
X815815Y404500D02*
X816051Y404264D01*
X825165D02*
Y406823D01*
Y401705D02*
Y404264D01*
X817740Y397500D02*
X819386Y399146D01*
X825165D01*
X817543Y397500D02*
X817740D01*
X825083Y390583D02*
Y396587D01*
X825165D01*
X825000Y390500D02*
X825083Y390583D01*
X812500Y390500D02*
X819685D01*
X816115Y409382D02*
X825165D01*
X815028Y405287D02*
Y405661D01*
Y405287D02*
X815815Y404500D01*
X810260Y397500D02*
X810457D01*
X631500Y400000D02*
Y407000D01*
X646795D02*
X647795Y408000D01*
X631500Y407000D02*
X646795D01*
X621000Y385043D02*
X621278Y385322D01*
X629222D01*
X629500Y385600D01*
X667500Y481500D02*
X675500D01*
X591693Y400750D02*
X591797Y400902D01*
X592000Y401200D01*
X584450Y397997D02*
X584844Y399027D01*
X584961D01*
X591133Y400191D01*
X591693Y400750D01*
X584450Y397391D02*
Y397997D01*
X575659Y398391D02*
X584057D01*
X584450Y397997D01*
X584057Y387891D02*
X584450Y388284D01*
X575659Y387891D02*
X584057D01*
X575561Y379194D02*
Y381296D01*
X573100Y378800D02*
X575167D01*
X575561Y379194D01*
Y381296D02*
X575659Y381395D01*
Y387891D01*
X524000Y378800D02*
X564635D01*
X494600Y364409D02*
X509610D01*
X524000Y378800D01*
X510600Y211784D02*
X512175Y210209D01*
X510600Y211784D02*
Y217000D01*
X512175Y210209D02*
X512500D01*
X501500Y210376D02*
X501667Y210209D01*
X501500Y210376D02*
Y210472D01*
X501667Y210209D02*
X512500D01*
D117*
X662736Y372185D02*
X665846Y375295D01*
X626575Y372185D02*
X662736D01*
X621000Y377760D02*
X626575Y372185D01*
X665846Y375295D02*
Y377500D01*
X750960Y414600D02*
Y426713D01*
X743358Y414600D02*
X750960D01*
X750673Y427000D02*
X750960Y426713D01*
Y414600D02*
X751157D01*
X665846Y377500D02*
X666043D01*
X621000Y377760D02*
Y377957D01*
X729000Y430000D02*
X729712D01*
X732712Y427000D01*
X740240D01*
X729000Y415000D02*
X737642D01*
X738042Y414600D01*
X679534Y394706D02*
X680794D01*
X681600Y393900D01*
X672598Y398984D02*
X675256D01*
X679534Y394706D01*
X678673Y385000D02*
X689000D01*
X666043Y382803D02*
X668240Y385000D01*
X666043Y377500D02*
Y382803D01*
X659500Y389657D02*
X664173D01*
X668240Y385591D01*
Y385000D02*
Y385591D01*
X694957Y471500D02*
X695500Y472043D01*
X682000Y471500D02*
X694957D01*
X581100Y368700D02*
X590357Y377957D01*
X510800Y352000D02*
X527500Y368700D01*
X581100D01*
X481448Y249102D02*
X485000Y252654D01*
X478200Y249102D02*
X481448D01*
X485000Y252654D02*
Y259957D01*
X462620Y239200D02*
X464923Y236898D01*
X461800Y239200D02*
X462620D01*
X464923Y236898D02*
X478200D01*
X590357Y377957D02*
X621000D01*
X510800Y286400D02*
Y352000D01*
X485000Y267043D02*
Y280764D01*
X487797Y283560D02*
Y284697D01*
X488000Y284900D01*
X485000Y280764D02*
X487797Y283560D01*
D118*
X494457Y266910D02*
Y272472D01*
X491240Y275689D02*
X494457Y272472D01*
X539691Y210209D02*
X541300Y208600D01*
X532500Y210209D02*
X539691D01*
X530943Y219900D02*
X531222Y219621D01*
X551221D01*
X551500Y219342D01*
X530943Y211518D02*
X532252Y210209D01*
X530943Y211518D02*
Y219900D01*
X532252Y210209D02*
X532500D01*
X453025Y81474D02*
X453150Y81598D01*
X453025Y73725D02*
Y81474D01*
X452900Y73600D02*
X453025Y73725D01*
X460529Y82021D02*
X471421D01*
X471800Y82400D01*
X460150Y81642D02*
X460529Y82021D01*
X505457Y254509D02*
X506540D01*
X508508Y256477D02*
X514957D01*
X506540Y254509D02*
X508508Y256477D01*
X505457Y254509D02*
X505500Y254466D01*
X501500Y246358D02*
X505500Y250358D01*
Y254466D01*
X501500Y244528D02*
Y246358D01*
X365701Y162057D02*
X371820Y155937D01*
X363353Y164405D02*
X365701Y162057D01*
Y115500D02*
Y162057D01*
X360400Y164405D02*
X363353D01*
X371820Y155937D02*
X386500D01*
X387041Y155396D02*
X390057D01*
X394713Y150740D02*
X395500D01*
X390057Y155396D02*
X394713Y150740D01*
X386500Y155937D02*
X387041Y155396D01*
X403693Y108142D02*
X403764Y108071D01*
X411929D01*
X412000Y108000D01*
X402772Y116587D02*
X403171D01*
X403693Y108142D02*
Y116065D01*
X403171Y116587D02*
X403693Y116065D01*
X445650Y81598D02*
X453150D01*
D119*
X564800Y216200D02*
Y232800D01*
X558100Y209500D02*
X564800Y216200D01*
X551500Y209500D02*
X558100D01*
D120*
X512500Y198791D02*
X532500D01*
X493209D02*
X512500D01*
X491500Y252634D02*
X493375Y254509D01*
X491500Y244528D02*
Y252634D01*
X493375Y254509D02*
X494457D01*
X491500Y200500D02*
Y210472D01*
Y200500D02*
X493209Y198791D01*
X541100Y199557D02*
X551400D01*
X541000Y199457D02*
X541100Y199557D01*
X551400D02*
X551500Y199657D01*
X540667Y199124D02*
X541000Y199457D01*
X532500Y198791D02*
X532833Y199124D01*
X540667D01*
D121*
X600830Y438670D02*
X617500Y422000D01*
X586466Y438670D02*
X600830D01*
X617500Y406500D02*
Y422000D01*
X849575Y419618D02*
X857557Y427600D01*
X857900D01*
X848000Y419618D02*
X849575D01*
X848000Y414500D02*
X855100D01*
X863100Y422500D01*
X624163Y406750D02*
X624413Y407000D01*
X617500Y406500D02*
X617750Y406750D01*
X624163D01*
X445265Y88300D02*
X445650Y88685D01*
X438100Y88300D02*
X445265D01*
D122*
X586466Y418985D02*
X593115D01*
X597322Y422922D02*
X597500Y423100D01*
X586466Y422922D02*
X597322D01*
X592659Y426859D02*
X592900Y427100D01*
X586466Y426859D02*
X592659D01*
X586466Y430796D02*
X594871D01*
X606400Y392100D02*
Y419267D01*
X594871Y430796D02*
X606400Y419267D01*
X525877Y429477D02*
X543950D01*
X520795Y424395D02*
X525877Y429477D01*
X520795Y413500D02*
Y424395D01*
X546372Y426859D02*
X563435D01*
X543950Y429280D02*
X546372Y426859D01*
X543950Y429280D02*
Y429477D01*
X523000Y372900D02*
X578900D01*
X507217Y357117D02*
X523000Y372900D01*
X578900D02*
X590367Y384367D01*
X507217Y281661D02*
Y357117D01*
X590367Y384367D02*
X598667D01*
X606400Y392100D01*
X514957Y266532D02*
Y273921D01*
X507217Y281661D02*
X514957Y273921D01*
Y264942D02*
Y266532D01*
X514579Y266910D02*
X514957Y266532D01*
X505457Y266910D02*
X514579D01*
D123*
X494600Y390000D02*
X494750Y390150D01*
Y399650D01*
X494900Y399800D01*
X495052Y399952D02*
Y413348D01*
X495205Y413500D01*
X494900Y399800D02*
X495052Y399952D01*
X907810Y169199D02*
X917000Y178389D01*
Y180500D01*
X907200Y169199D02*
X907810D01*
X861300Y186491D02*
X865790Y182001D01*
X866400D01*
X861300Y186491D02*
Y189600D01*
X532500Y146610D02*
Y198791D01*
X528370Y142480D02*
X532500Y146610D01*
X528370Y139039D02*
Y142480D01*
D124*
X590551Y110563D02*
D03*
Y61744D02*
D03*
X743504Y161744D02*
D03*
Y111744D02*
D03*
Y61744D02*
D03*
X590551Y282634D02*
D03*
Y233815D02*
D03*
X743504Y333815D02*
D03*
Y283815D02*
D03*
Y233815D02*
D03*
D125*
X590551Y161744D02*
D03*
Y333815D02*
D03*
D126*
X289370Y117028D02*
D03*
Y105217D02*
D03*
D127*
Y128839D02*
D03*
D128*
X899650Y330744D02*
D03*
D129*
Y311059D02*
D03*
X433307Y133409D02*
D03*
X452992Y191909D02*
D03*
D130*
X783630Y130075D02*
D03*
Y80075D02*
D03*
X328878Y39500D02*
D03*
X458799D02*
D03*
X417500D02*
D03*
X287579D02*
D03*
D131*
X804150Y95217D02*
D03*
X551500Y219342D02*
D03*
D132*
X804150Y105059D02*
D03*
Y114902D02*
D03*
X551500Y199657D02*
D03*
Y209500D02*
D03*
D133*
X729000Y385000D02*
D03*
Y415000D02*
D03*
Y430000D02*
D03*
X689000Y385000D02*
D03*
Y400000D02*
D03*
Y415000D02*
D03*
D134*
Y430000D02*
D03*
D135*
X539000Y67583D02*
D03*
D136*
Y89000D02*
D03*
Y110417D02*
D03*
D137*
X528370Y39039D02*
D03*
Y139039D02*
D03*
X911472Y200043D02*
D03*
Y281941D02*
D03*
D138*
X452992Y133409D02*
D03*
X433307Y191909D02*
D03*
D139*
X879000Y262492D02*
D03*
D140*
Y240996D02*
D03*
Y219500D02*
D03*
D141*
X772776Y167941D02*
D03*
X830650Y223059D02*
D03*
X772150Y271059D02*
D03*
X830024Y326177D02*
D03*
D142*
X498626Y89059D02*
D03*
X498650Y455059D02*
D03*
X980126D02*
D03*
X872126Y89059D02*
D03*
D143*
X717126Y18209D02*
D03*
X717421Y7382D02*
D03*
X706398D02*
D03*
X706496Y18602D02*
D03*
X695571Y18307D02*
D03*
X695472Y7579D02*
D03*
X684154Y7283D02*
D03*
X684350Y18602D02*
D03*
X612205D02*
D03*
X612008Y7283D02*
D03*
X623327Y7579D02*
D03*
X623425Y18307D02*
D03*
X634350Y18602D02*
D03*
X634252Y7382D02*
D03*
X645276D02*
D03*
X644980Y18209D02*
D03*
X613596Y445746D02*
D03*
X494900Y399800D02*
D03*
X962500Y320400D02*
D03*
X961800Y285300D02*
D03*
X960900Y296500D02*
D03*
X962300Y309600D02*
D03*
X968100Y262600D02*
D03*
X969500Y196700D02*
D03*
X967400Y216700D02*
D03*
X867400Y361410D02*
D03*
X828500Y347800D02*
D03*
X846600Y318100D02*
D03*
X866700Y345500D02*
D03*
X866800Y336100D02*
D03*
X969800Y56000D02*
D03*
X975900Y68600D02*
D03*
X974300Y82800D02*
D03*
X973600Y94800D02*
D03*
X973400Y107200D02*
D03*
X972700Y118900D02*
D03*
X972100Y130200D02*
D03*
X971700Y141900D02*
D03*
X971800Y152600D02*
D03*
X972700Y163400D02*
D03*
X972000Y175000D02*
D03*
X970100Y185600D02*
D03*
X967400Y227500D02*
D03*
X966300Y238700D02*
D03*
X966100Y250000D02*
D03*
X960700Y332100D02*
D03*
X951600Y342600D02*
D03*
X938700Y346200D02*
D03*
X924743Y346921D02*
D03*
X867200Y354500D02*
D03*
X909600Y339100D02*
D03*
X911700Y329200D02*
D03*
X899600Y343100D02*
D03*
X889700Y339300D02*
D03*
X887500Y328700D02*
D03*
X847000Y328300D02*
D03*
X846100Y338900D02*
D03*
X841100Y348600D02*
D03*
X406000Y199500D02*
D03*
X389000D02*
D03*
X373000D02*
D03*
D144*
X834417Y412433D02*
D03*
X838748D02*
D03*
X834417Y408102D02*
D03*
X838748D02*
D03*
X834417Y403772D02*
D03*
X838748D02*
D03*
X577116Y418395D02*
D03*
X572785D02*
D03*
X577116Y422725D02*
D03*
X572785D02*
D03*
X577116Y427056D02*
D03*
X572785D02*
D03*
X577116Y431387D02*
D03*
X572785D02*
D03*
D145*
X555700Y433700D02*
D03*
X552500Y437600D02*
D03*
M02*
